<svg width="523" height="525" viewBox="0 0 523 525" fill="none" xmlns="http://www.w3.org/2000/svg">
    <g filter="url(#filter0_d_9126_33810)">
        <rect x="29.4653" y="66.582" width="158" height="163.814" rx="19.4462"
            transform="rotate(-1.84362 29.4653 66.582)" fill="#F56A4D" />
        <rect x="30.7192" y="67.7577" width="155.569" height="161.383" rx="18.2308"
            transform="rotate(-1.84362 30.7192 67.7577)" stroke="#DBDBDB" stroke-width="2.43077" />
        <path
            d="M133.525 117.803C133.453 116.135 132.081 114.838 130.459 114.908C128.837 114.977 127.58 116.386 127.651 118.054L128.942 148.263C129.013 149.931 130.386 151.228 132.008 151.158C133.63 151.089 134.887 149.68 134.816 148.012L133.525 117.803ZM101.089 116.163C102.711 116.094 104.084 117.39 104.155 119.058L105.446 149.267C105.518 150.936 104.261 152.344 102.639 152.414C101.017 152.483 99.6438 151.187 99.5725 149.518L98.2812 119.31C98.2099 117.641 99.467 116.232 101.089 116.163ZM92.4073 119.561C92.336 117.892 90.9632 116.596 89.3412 116.665C87.7192 116.735 86.462 118.143 86.5334 119.812L87.8246 150.02C87.8959 151.689 89.2687 152.985 90.8907 152.916C92.5127 152.846 93.7698 151.438 93.6985 149.769L92.4073 119.561ZM129.942 102.824C138.052 102.478 144.916 108.959 145.273 117.301L146.564 147.51C146.92 155.852 140.635 162.895 132.525 163.242L91.4072 164.999C83.297 165.346 76.4333 158.864 76.0768 150.523L74.7855 120.314C74.4289 111.972 80.7145 104.928 88.8247 104.582L129.942 102.824ZM139.399 117.552C139.185 112.547 135.067 108.658 130.2 108.866L89.0829 110.624C84.2168 110.832 80.4455 115.058 80.6594 120.063L81.9507 150.272C82.1646 155.277 86.2828 159.166 91.149 158.958L132.266 157.2C137.133 156.992 140.904 152.766 140.69 147.761L139.399 117.552Z"
            fill="#FFCEC4" />
        <path
            d="M63.657 186.381C63.6752 186.946 63.5591 187.483 63.3087 187.993C63.0583 188.503 62.645 188.927 62.069 189.266C61.4925 189.594 60.7459 189.772 59.8291 189.802L57.8141 189.867L57.9593 194.376L56.1362 194.435L55.7785 183.321L59.6165 183.197C60.4694 183.17 61.1938 183.296 61.7898 183.576C62.396 183.844 62.8512 184.225 63.1552 184.716C63.4698 185.208 63.6371 185.763 63.657 186.381ZM59.7812 188.315C60.4742 188.292 60.9862 188.121 61.3175 187.801C61.6483 187.47 61.8045 187.017 61.7859 186.441C61.7468 185.226 61.0396 184.64 59.6643 184.685L57.6494 184.749L57.7662 188.38L59.7812 188.315ZM67.2275 186.538C67.4796 186.082 67.8203 185.724 68.2495 185.465C68.689 185.195 69.2126 185.05 69.8203 185.03L69.8811 186.917L69.4173 186.932C68.703 186.955 68.1651 187.154 67.8037 187.528C67.4528 187.902 67.2919 188.537 67.3207 189.433L67.47 194.07L65.6469 194.129L65.3633 185.318L67.1863 185.259L67.2275 186.538ZM79.7114 189.05C79.722 189.38 79.7103 189.68 79.6763 189.948L72.9437 190.164C73.0197 190.866 73.2991 191.423 73.7819 191.834C74.2647 192.245 74.8473 192.44 75.5296 192.418C76.5104 192.387 77.1902 191.954 77.5689 191.12L79.5359 191.057C79.2954 191.875 78.8318 192.557 78.145 193.102C77.4685 193.636 76.6131 193.92 75.579 193.953C74.7368 193.981 73.9738 193.818 73.2902 193.467C72.6168 193.104 72.0773 192.588 71.6715 191.918C71.2761 191.237 71.0638 190.444 71.0346 189.537C71.0054 188.631 71.1611 187.831 71.5016 187.137C71.8524 186.432 72.3524 185.882 73.0013 185.488C73.661 185.093 74.4226 184.882 75.2861 184.854C76.1177 184.827 76.8645 184.985 77.5265 185.326C78.1885 185.668 78.7113 186.163 79.0951 186.813C79.4785 187.451 79.6839 188.197 79.7114 189.05ZM77.7899 188.535C77.7576 187.864 77.5004 187.333 77.0182 186.943C76.5361 186.553 75.9486 186.37 75.2556 186.392C74.6266 186.412 74.0947 186.632 73.66 187.052C73.2249 187.46 72.9757 188.007 72.9124 188.692L77.7899 188.535ZM85.008 191.873L87.2716 184.612L89.2066 184.55L86.1319 193.47L83.957 193.54L80.3311 184.836L82.2821 184.773L85.008 191.873ZM91.4745 183.309C91.144 183.319 90.8632 183.216 90.6322 182.999C90.4011 182.783 90.2802 182.509 90.2696 182.179C90.2589 181.848 90.3619 181.567 90.5786 181.336C90.7953 181.105 91.0689 180.984 91.3994 180.974C91.7192 180.963 91.9947 181.067 92.2258 181.283C92.4569 181.5 92.5777 181.774 92.5884 182.104C92.599 182.435 92.496 182.715 92.2793 182.946C92.0626 183.178 91.7944 183.298 91.4745 183.309ZM92.4076 184.447L92.6913 193.259L90.8682 193.317L90.5846 184.506L92.4076 184.447ZM103.012 188.3C103.022 188.63 103.011 188.93 102.977 189.198L96.2442 189.414C96.3201 190.116 96.5995 190.673 97.0823 191.084C97.5652 191.495 98.1477 191.69 98.83 191.668C99.8109 191.637 100.491 191.204 100.869 190.37L102.836 190.307C102.596 191.125 102.132 191.807 101.445 192.352C100.769 192.886 99.9136 193.17 98.8794 193.203C98.0372 193.231 97.2743 193.068 96.5906 192.717C95.9173 192.354 95.3777 191.838 94.9719 191.168C94.5765 190.487 94.3642 189.694 94.335 188.787C94.3059 187.881 94.4615 187.081 94.802 186.387C95.1529 185.682 95.6528 185.132 96.3018 184.738C96.9614 184.343 97.723 184.132 98.5866 184.104C99.4181 184.077 100.165 184.235 100.827 184.576C101.489 184.918 102.012 185.413 102.396 186.063C102.779 186.701 102.984 187.447 103.012 188.3ZM101.09 187.785C101.058 187.114 100.801 186.583 100.319 186.193C99.8365 185.803 99.249 185.62 98.556 185.642C97.927 185.662 97.3951 185.882 96.9604 186.302C96.5253 186.71 96.2761 187.257 96.2128 187.942L101.09 187.785ZM116.505 183.671L114.054 192.571L112.135 192.633L110.15 186.181L108.585 192.747L106.666 192.809L103.632 184.086L105.487 184.026L107.554 191.051L109.197 183.907L111.1 183.845L113.118 190.84L114.714 183.729L116.505 183.671ZM125.971 192.299C125.224 192.323 124.549 192.217 123.943 191.98C123.338 191.733 122.857 191.375 122.5 190.906C122.144 190.438 121.955 189.883 121.934 189.244L123.885 189.181C123.943 189.659 124.143 190.048 124.483 190.346C124.834 190.644 125.314 190.784 125.921 190.764C126.55 190.744 127.036 190.579 127.378 190.269C127.72 189.949 127.883 189.548 127.868 189.069C127.856 188.696 127.734 188.395 127.503 188.168C127.282 187.94 127.004 187.768 126.67 187.65C126.346 187.533 125.893 187.409 125.313 187.278C124.582 187.109 123.984 186.937 123.519 186.759C123.065 186.571 122.671 186.274 122.338 185.869C122.005 185.463 121.827 184.914 121.805 184.221C121.784 183.582 121.926 183.017 122.23 182.527C122.535 182.037 122.971 181.654 123.538 181.38C124.106 181.106 124.768 180.956 125.525 180.932C126.602 180.897 127.49 181.141 128.19 181.662C128.9 182.173 129.307 182.896 129.412 183.832L127.397 183.897C127.352 183.493 127.149 183.153 126.788 182.876C126.427 182.6 125.959 182.471 125.383 182.489C124.86 182.506 124.438 182.653 124.116 182.93C123.794 183.207 123.642 183.596 123.658 184.098C123.669 184.439 123.779 184.718 123.989 184.935C124.209 185.142 124.481 185.304 124.805 185.421C125.129 185.539 125.57 185.663 126.13 185.795C126.872 185.974 127.475 186.157 127.94 186.345C128.416 186.532 128.82 186.834 129.154 187.25C129.498 187.655 129.681 188.21 129.704 188.914C129.722 189.479 129.585 190.017 129.291 190.528C129.009 191.038 128.58 191.458 128.003 191.786C127.437 192.103 126.76 192.274 125.971 192.299ZM133.398 180.102L133.779 191.936L131.956 191.995L131.575 180.161L133.398 180.102ZM136.779 181.85C136.449 181.861 136.168 181.758 135.937 181.541C135.706 181.324 135.585 181.051 135.574 180.72C135.564 180.39 135.667 180.109 135.883 179.878C136.1 179.647 136.374 179.526 136.704 179.515C137.024 179.505 137.299 179.608 137.53 179.825C137.762 180.042 137.882 180.315 137.893 180.646C137.904 180.976 137.801 181.257 137.584 181.488C137.367 181.719 137.099 181.84 136.779 181.85ZM137.712 182.989L137.996 191.8L136.173 191.859L135.889 183.047L137.712 182.989ZM139.639 187.297C139.61 186.412 139.766 185.623 140.107 184.929C140.458 184.234 140.942 183.691 141.559 183.297C142.186 182.893 142.889 182.678 143.667 182.653C144.243 182.635 144.812 182.744 145.375 182.982C145.948 183.209 146.406 183.525 146.75 183.931L146.613 179.677L148.452 179.618L148.833 191.451L146.994 191.511L146.951 190.183C146.667 190.619 146.262 190.985 145.738 191.279C145.224 191.573 144.627 191.731 143.944 191.753C143.177 191.778 142.467 191.608 141.815 191.245C141.173 190.871 140.655 190.343 140.259 189.662C139.874 188.97 139.667 188.182 139.639 187.297ZM146.852 187.097C146.832 186.489 146.687 185.966 146.417 185.526C146.158 185.086 145.821 184.755 145.409 184.534C144.996 184.312 144.555 184.209 144.086 184.224C143.617 184.239 143.184 184.371 142.786 184.618C142.388 184.855 142.069 185.202 141.827 185.658C141.596 186.103 141.49 186.629 141.51 187.237C141.529 187.845 141.669 188.374 141.929 188.824C142.2 189.274 142.541 189.616 142.954 189.848C143.378 190.069 143.819 190.172 144.277 190.157C144.746 190.142 145.179 190.011 145.577 189.763C145.975 189.516 146.289 189.164 146.52 188.708C146.761 188.242 146.872 187.705 146.852 187.097ZM159.155 186.493C159.165 186.823 159.154 187.122 159.119 187.39L152.387 187.607C152.463 188.309 152.742 188.866 153.225 189.277C153.708 189.688 154.291 189.883 154.973 189.861C155.954 189.829 156.633 189.397 157.012 188.563L158.979 188.499C158.739 189.318 158.275 190 157.588 190.545C156.912 191.079 156.056 191.363 155.022 191.396C154.18 191.423 153.417 191.261 152.733 190.91C152.06 190.547 151.521 190.031 151.115 189.361C150.719 188.68 150.507 187.886 150.478 186.98C150.449 186.074 150.604 185.274 150.945 184.58C151.296 183.875 151.796 183.325 152.445 182.931C153.104 182.536 153.866 182.325 154.729 182.297C155.561 182.27 156.308 182.428 156.97 182.769C157.632 183.111 158.155 183.606 158.538 184.255C158.922 184.894 159.127 185.64 159.155 186.493ZM157.233 185.978C157.201 185.307 156.944 184.776 156.461 184.386C155.979 183.996 155.392 183.812 154.699 183.835C154.07 183.855 153.538 184.075 153.103 184.494C152.668 184.903 152.419 185.45 152.356 186.135L157.233 185.978ZM162.678 183.466C162.93 183.01 163.271 182.652 163.7 182.392C164.14 182.122 164.663 181.977 165.271 181.958L165.332 183.845L164.868 183.86C164.154 183.883 163.616 184.081 163.254 184.456C162.903 184.83 162.742 185.465 162.771 186.36L162.921 190.998L161.097 191.057L160.814 182.245L162.637 182.187L162.678 183.466Z"
            fill="white" />
    </g>
    <g filter="url(#filter1_d_9126_33810)">
        <rect x="202" y="27" width="147" height="147" rx="18.0923" fill="#07A2B4" />
        <rect x="203.131" y="28.1308" width="144.738" height="144.738" rx="16.9615" stroke="#DBDBDB"
            stroke-width="2.26154" />
        <path
            d="M254.967 48.5C250.843 48.5 247.5 51.634 247.5 55.5V62.5C247.5 66.366 250.843 69.5 254.967 69.5H284.833C288.957 69.5 292.3 66.366 292.3 62.5V55.5C292.3 51.634 288.957 48.5 284.833 48.5H254.967ZM251.233 55.5C251.233 53.567 252.905 52 254.967 52H284.833C286.895 52 288.567 53.567 288.567 55.5V62.5C288.567 64.433 286.895 66 284.833 66H254.967C252.905 66 251.233 64.433 251.233 62.5V55.5ZM262.433 88.75C261.402 88.75 260.567 89.5335 260.567 90.5C260.567 91.4665 261.402 92.25 262.433 92.25H277.367C278.398 92.25 279.233 91.4665 279.233 90.5C279.233 89.5335 278.398 88.75 277.367 88.75H262.433ZM280.647 76.5H254.967C250.843 76.5 247.5 79.634 247.5 83.5V97.5C247.5 101.366 250.843 104.5 254.967 104.5H284.833C288.957 104.5 292.3 101.366 292.3 97.5V93.701C291.094 94.0997 289.772 94.0997 288.567 93.701V97.5C288.567 99.433 286.895 101 284.833 101H254.967C252.905 101 251.233 99.433 251.233 97.5V83.5C251.233 81.567 252.905 80 254.967 80H277.686C277.955 79.2835 278.396 78.6108 279.007 78.0377L280.647 76.5ZM303.5 67.75C303.5 66.7835 302.664 66 301.633 66C300.602 66 299.767 66.7835 299.767 67.75V74.75C299.767 77.6495 297.259 80 294.167 80H287.473L291.753 75.9874C292.482 75.304 292.482 74.196 291.753 73.5126C291.024 72.8291 289.842 72.8291 289.113 73.5126L281.647 80.5126C280.918 81.196 280.918 82.304 281.647 82.9874L289.113 89.9874C289.842 90.6709 291.024 90.6709 291.753 89.9874C292.482 89.304 292.482 88.196 291.753 87.5126L287.473 83.5H294.167C299.321 83.5 303.5 79.5825 303.5 74.75V67.75Z"
            fill="#C3F9FF" />
        <path
            d="M229.786 126.991C229.786 125.918 230.033 124.955 230.528 124.103C231.033 123.25 231.712 122.587 232.564 122.114C233.427 121.63 234.369 121.388 235.39 121.388C236.558 121.388 237.594 121.677 238.499 122.256C239.415 122.824 240.078 123.634 240.488 124.687H238.326C238.041 124.108 237.647 123.676 237.142 123.392C236.637 123.108 236.053 122.966 235.39 122.966C234.664 122.966 234.016 123.129 233.448 123.455C232.88 123.782 232.433 124.25 232.106 124.86C231.791 125.471 231.633 126.181 231.633 126.991C231.633 127.801 231.791 128.512 232.106 129.122C232.433 129.732 232.88 130.206 233.448 130.543C234.016 130.869 234.664 131.032 235.39 131.032C236.053 131.032 236.637 130.89 237.142 130.606C237.647 130.322 238.041 129.89 238.326 129.312H240.488C240.078 130.364 239.415 131.174 238.499 131.742C237.594 132.311 236.558 132.595 235.39 132.595C234.358 132.595 233.417 132.358 232.564 131.884C231.712 131.4 231.033 130.732 230.528 129.88C230.033 129.027 229.786 128.065 229.786 126.991ZM246.367 132.642C245.546 132.642 244.804 132.458 244.141 132.09C243.478 131.711 242.957 131.185 242.579 130.511C242.2 129.827 242.01 129.038 242.01 128.143C242.01 127.26 242.205 126.476 242.594 125.792C242.984 125.108 243.515 124.581 244.189 124.213C244.862 123.845 245.614 123.661 246.446 123.661C247.277 123.661 248.029 123.845 248.703 124.213C249.376 124.581 249.908 125.108 250.297 125.792C250.687 126.476 250.881 127.26 250.881 128.143C250.881 129.027 250.681 129.811 250.281 130.495C249.882 131.179 249.334 131.711 248.64 132.09C247.956 132.458 247.198 132.642 246.367 132.642ZM246.367 131.079C246.83 131.079 247.261 130.969 247.661 130.748C248.072 130.527 248.403 130.195 248.656 129.753C248.908 129.312 249.034 128.775 249.034 128.143C249.034 127.512 248.913 126.981 248.671 126.549C248.429 126.107 248.108 125.776 247.709 125.555C247.309 125.334 246.877 125.223 246.414 125.223C245.951 125.223 245.52 125.334 245.12 125.555C244.73 125.776 244.42 126.107 244.189 126.549C243.957 126.981 243.841 127.512 243.841 128.143C243.841 129.08 244.078 129.806 244.552 130.322C245.036 130.827 245.641 131.079 246.367 131.079ZM257.048 123.661C257.732 123.661 258.343 123.803 258.879 124.087C259.426 124.371 259.853 124.792 260.158 125.35C260.463 125.907 260.616 126.581 260.616 127.37V132.5H258.832V127.638C258.832 126.86 258.637 126.265 258.248 125.855C257.858 125.434 257.327 125.223 256.654 125.223C255.98 125.223 255.443 125.434 255.044 125.855C254.654 126.265 254.46 126.86 254.46 127.638V132.5H252.66V123.803H254.46V124.797C254.754 124.439 255.128 124.16 255.58 123.961C256.043 123.761 256.533 123.661 257.048 123.661ZM262.311 128.112C262.311 127.238 262.49 126.465 262.848 125.792C263.216 125.118 263.711 124.597 264.331 124.229C264.963 123.85 265.663 123.661 266.431 123.661C266.999 123.661 267.557 123.787 268.104 124.039C268.662 124.281 269.104 124.608 269.43 125.018V120.819H271.245V132.5H269.43V131.19C269.135 131.611 268.725 131.958 268.199 132.232C267.683 132.505 267.089 132.642 266.415 132.642C265.657 132.642 264.963 132.453 264.331 132.074C263.711 131.684 263.216 131.148 262.848 130.464C262.49 129.769 262.311 128.985 262.311 128.112ZM269.43 128.143C269.43 127.544 269.304 127.023 269.051 126.581C268.809 126.139 268.488 125.802 268.088 125.571C267.688 125.339 267.257 125.223 266.794 125.223C266.331 125.223 265.899 125.339 265.5 125.571C265.1 125.792 264.773 126.123 264.521 126.565C264.279 126.996 264.158 127.512 264.158 128.112C264.158 128.712 264.279 129.238 264.521 129.69C264.773 130.143 265.1 130.49 265.5 130.732C265.91 130.964 266.341 131.079 266.794 131.079C267.257 131.079 267.688 130.964 268.088 130.732C268.488 130.501 268.809 130.164 269.051 129.722C269.304 129.269 269.43 128.743 269.43 128.143ZM274.524 122.65C274.198 122.65 273.924 122.54 273.703 122.319C273.482 122.098 273.372 121.824 273.372 121.498C273.372 121.172 273.482 120.898 273.703 120.677C273.924 120.456 274.198 120.346 274.524 120.346C274.84 120.346 275.108 120.456 275.329 120.677C275.55 120.898 275.661 121.172 275.661 121.498C275.661 121.824 275.55 122.098 275.329 122.319C275.108 122.54 274.84 122.65 274.524 122.65ZM275.408 123.803V132.5H273.609V123.803H275.408ZM279.87 125.271V130.085C279.87 130.411 279.944 130.648 280.091 130.795C280.249 130.932 280.512 131 280.88 131H281.985V132.5H280.564C279.754 132.5 279.133 132.311 278.702 131.932C278.27 131.553 278.055 130.937 278.055 130.085V125.271H277.029V123.803H278.055V121.64H279.87V123.803H281.985V125.271H279.87ZM284.559 122.65C284.233 122.65 283.959 122.54 283.738 122.319C283.517 122.098 283.407 121.824 283.407 121.498C283.407 121.172 283.517 120.898 283.738 120.677C283.959 120.456 284.233 120.346 284.559 120.346C284.875 120.346 285.143 120.456 285.364 120.677C285.585 120.898 285.696 121.172 285.696 121.498C285.696 121.824 285.585 122.098 285.364 122.319C285.143 122.54 284.875 122.65 284.559 122.65ZM285.443 123.803V132.5H283.644V123.803H285.443ZM291.578 132.642C290.757 132.642 290.015 132.458 289.352 132.09C288.689 131.711 288.169 131.185 287.79 130.511C287.411 129.827 287.222 129.038 287.222 128.143C287.222 127.26 287.416 126.476 287.806 125.792C288.195 125.108 288.726 124.581 289.4 124.213C290.073 123.845 290.826 123.661 291.657 123.661C292.488 123.661 293.241 123.845 293.914 124.213C294.588 124.581 295.119 125.108 295.508 125.792C295.898 126.476 296.092 127.26 296.092 128.143C296.092 129.027 295.893 129.811 295.493 130.495C295.093 131.179 294.546 131.711 293.851 132.09C293.167 132.458 292.409 132.642 291.578 132.642ZM291.578 131.079C292.041 131.079 292.473 130.969 292.872 130.748C293.283 130.527 293.614 130.195 293.867 129.753C294.119 129.312 294.246 128.775 294.246 128.143C294.246 127.512 294.125 126.981 293.883 126.549C293.641 126.107 293.32 125.776 292.92 125.555C292.52 125.334 292.088 125.223 291.625 125.223C291.162 125.223 290.731 125.334 290.331 125.555C289.942 125.776 289.631 126.107 289.4 126.549C289.168 126.981 289.053 127.512 289.053 128.143C289.053 129.08 289.289 129.806 289.763 130.322C290.247 130.827 290.852 131.079 291.578 131.079ZM302.259 123.661C302.943 123.661 303.554 123.803 304.09 124.087C304.638 124.371 305.064 124.792 305.369 125.35C305.674 125.907 305.827 126.581 305.827 127.37V132.5H304.043V127.638C304.043 126.86 303.848 126.265 303.459 125.855C303.07 125.434 302.538 125.223 301.865 125.223C301.191 125.223 300.655 125.434 300.255 125.855C299.865 126.265 299.671 126.86 299.671 127.638V132.5H297.871V123.803H299.671V124.797C299.965 124.439 300.339 124.16 300.791 123.961C301.254 123.761 301.744 123.661 302.259 123.661ZM307.522 128.112C307.522 127.238 307.701 126.465 308.059 125.792C308.427 125.118 308.922 124.597 309.543 124.229C310.174 123.85 310.869 123.661 311.626 123.661C312.31 123.661 312.905 123.797 313.41 124.071C313.926 124.334 314.336 124.666 314.641 125.065V123.803H316.456V132.5H314.641V131.206C314.336 131.616 313.92 131.958 313.394 132.232C312.868 132.505 312.268 132.642 311.595 132.642C310.848 132.642 310.164 132.453 309.543 132.074C308.922 131.684 308.427 131.148 308.059 130.464C307.701 129.769 307.522 128.985 307.522 128.112ZM314.641 128.143C314.641 127.544 314.515 127.023 314.262 126.581C314.02 126.139 313.699 125.802 313.299 125.571C312.9 125.339 312.468 125.223 312.005 125.223C311.542 125.223 311.111 125.339 310.711 125.571C310.311 125.792 309.985 126.123 309.732 126.565C309.49 126.996 309.369 127.512 309.369 128.112C309.369 128.712 309.49 129.238 309.732 129.69C309.985 130.143 310.311 130.49 310.711 130.732C311.121 130.964 311.553 131.079 312.005 131.079C312.468 131.079 312.9 130.964 313.299 130.732C313.699 130.501 314.02 130.164 314.262 129.722C314.515 129.269 314.641 128.743 314.641 128.143ZM320.619 120.819V132.5H318.82V120.819H320.619ZM239.038 141.53V142.998H234.382V146.234H238.012V147.701H234.382V152.5H232.582V141.53H239.038ZM244.479 152.642C243.658 152.642 242.916 152.458 242.253 152.09C241.59 151.711 241.069 151.185 240.69 150.511C240.311 149.827 240.122 149.038 240.122 148.143C240.122 147.26 240.317 146.476 240.706 145.792C241.095 145.108 241.627 144.581 242.3 144.213C242.974 143.845 243.726 143.661 244.557 143.661C245.389 143.661 246.141 143.845 246.815 144.213C247.488 144.581 248.02 145.108 248.409 145.792C248.798 146.476 248.993 147.26 248.993 148.143C248.993 149.027 248.793 149.811 248.393 150.495C247.993 151.179 247.446 151.711 246.752 152.09C246.068 152.458 245.31 152.642 244.479 152.642ZM244.479 151.079C244.942 151.079 245.373 150.969 245.773 150.748C246.183 150.527 246.515 150.195 246.767 149.753C247.02 149.312 247.146 148.775 247.146 148.143C247.146 147.512 247.025 146.981 246.783 146.549C246.541 146.107 246.22 145.776 245.82 145.555C245.42 145.334 244.989 145.223 244.526 145.223C244.063 145.223 243.631 145.334 243.232 145.555C242.842 145.776 242.532 146.107 242.3 146.549C242.069 146.981 241.953 147.512 241.953 148.143C241.953 149.08 242.19 149.806 242.663 150.322C243.147 150.827 243.752 151.079 244.479 151.079ZM252.571 145.065C252.834 144.623 253.182 144.281 253.613 144.039C254.055 143.787 254.576 143.661 255.176 143.661V145.523H254.718C254.013 145.523 253.476 145.702 253.108 146.06C252.75 146.418 252.571 147.039 252.571 147.922V152.5H250.772V143.803H252.571V145.065ZM267.358 143.661C268.042 143.661 268.652 143.803 269.189 144.087C269.736 144.371 270.162 144.792 270.468 145.35C270.783 145.907 270.941 146.581 270.941 147.37V152.5H269.158V147.638C269.158 146.86 268.963 146.265 268.574 145.855C268.184 145.434 267.653 145.223 266.979 145.223C266.306 145.223 265.769 145.434 265.369 145.855C264.98 146.265 264.785 146.86 264.785 147.638V152.5H263.002V147.638C263.002 146.86 262.807 146.265 262.418 145.855C262.028 145.434 261.497 145.223 260.823 145.223C260.15 145.223 259.613 145.434 259.213 145.855C258.824 146.265 258.629 146.86 258.629 147.638V152.5H256.83V143.803H258.629V144.797C258.924 144.439 259.297 144.16 259.75 143.961C260.202 143.761 260.686 143.661 261.202 143.661C261.897 143.661 262.517 143.808 263.065 144.103C263.612 144.397 264.033 144.823 264.327 145.381C264.591 144.855 265.001 144.439 265.559 144.134C266.116 143.818 266.716 143.661 267.358 143.661ZM272.631 148.112C272.631 147.238 272.81 146.465 273.168 145.792C273.536 145.118 274.031 144.597 274.652 144.229C275.283 143.85 275.977 143.661 276.735 143.661C277.419 143.661 278.014 143.797 278.519 144.071C279.034 144.334 279.445 144.666 279.75 145.065V143.803H281.565V152.5H279.75V151.206C279.445 151.616 279.029 151.958 278.503 152.232C277.977 152.505 277.377 152.642 276.704 152.642C275.956 152.642 275.272 152.453 274.652 152.074C274.031 151.684 273.536 151.148 273.168 150.464C272.81 149.769 272.631 148.985 272.631 148.112ZM279.75 148.143C279.75 147.544 279.624 147.023 279.371 146.581C279.129 146.139 278.808 145.802 278.408 145.571C278.008 145.339 277.577 145.223 277.114 145.223C276.651 145.223 276.22 145.339 275.82 145.571C275.42 145.792 275.094 146.123 274.841 146.565C274.599 146.996 274.478 147.512 274.478 148.112C274.478 148.712 274.599 149.238 274.841 149.69C275.094 150.143 275.42 150.49 275.82 150.732C276.23 150.964 276.661 151.079 277.114 151.079C277.577 151.079 278.008 150.964 278.408 150.732C278.808 150.501 279.129 150.164 279.371 149.722C279.624 149.269 279.75 148.743 279.75 148.143ZM286.028 145.271V150.085C286.028 150.411 286.102 150.648 286.249 150.795C286.407 150.932 286.67 151 287.038 151H288.143V152.5H286.723C285.912 152.5 285.291 152.311 284.86 151.932C284.429 151.553 284.213 150.937 284.213 150.085V145.271H283.187V143.803H284.213V141.64H286.028V143.803H288.143V145.271H286.028ZM291.901 145.271V150.085C291.901 150.411 291.975 150.648 292.122 150.795C292.28 150.932 292.543 151 292.911 151H294.016V152.5H292.596C291.785 152.5 291.164 152.311 290.733 151.932C290.302 151.553 290.086 150.937 290.086 150.085V145.271H289.06V143.803H290.086V141.64H291.901V143.803H294.016V145.271H291.901ZM296.59 142.65C296.264 142.65 295.99 142.54 295.769 142.319C295.548 142.098 295.438 141.824 295.438 141.498C295.438 141.172 295.548 140.898 295.769 140.677C295.99 140.456 296.264 140.346 296.59 140.346C296.906 140.346 297.174 140.456 297.395 140.677C297.616 140.898 297.727 141.172 297.727 141.498C297.727 141.824 297.616 142.098 297.395 142.319C297.174 142.54 296.906 142.65 296.59 142.65ZM297.474 143.803V152.5H295.675V143.803H297.474ZM304.225 143.661C304.909 143.661 305.519 143.803 306.056 144.087C306.603 144.371 307.029 144.792 307.334 145.35C307.64 145.907 307.792 146.581 307.792 147.37V152.5H306.008V147.638C306.008 146.86 305.814 146.265 305.424 145.855C305.035 145.434 304.504 145.223 303.83 145.223C303.157 145.223 302.62 145.434 302.22 145.855C301.831 146.265 301.636 146.86 301.636 147.638V152.5H299.837V143.803H301.636V144.797C301.931 144.439 302.304 144.16 302.757 143.961C303.22 143.761 303.709 143.661 304.225 143.661ZM313.592 143.661C314.265 143.661 314.86 143.797 315.375 144.071C315.901 144.334 316.312 144.666 316.607 145.065V143.803H318.422V152.642C318.422 153.442 318.253 154.152 317.917 154.773C317.58 155.404 317.091 155.899 316.449 156.257C315.817 156.615 315.06 156.793 314.176 156.793C312.997 156.793 312.018 156.515 311.24 155.957C310.461 155.41 310.019 154.662 309.914 153.715H311.697C311.834 154.168 312.124 154.531 312.566 154.805C313.018 155.089 313.555 155.231 314.176 155.231C314.902 155.231 315.486 155.01 315.928 154.568C316.38 154.126 316.607 153.484 316.607 152.642V151.19C316.301 151.6 315.886 151.948 315.36 152.232C314.844 152.505 314.255 152.642 313.592 152.642C312.834 152.642 312.139 152.453 311.508 152.074C310.887 151.684 310.393 151.148 310.024 150.464C309.667 149.769 309.488 148.985 309.488 148.112C309.488 147.238 309.667 146.465 310.024 145.792C310.393 145.118 310.887 144.597 311.508 144.229C312.139 143.85 312.834 143.661 313.592 143.661ZM316.607 148.143C316.607 147.544 316.48 147.023 316.228 146.581C315.986 146.139 315.665 145.802 315.265 145.571C314.865 145.339 314.433 145.223 313.97 145.223C313.507 145.223 313.076 145.339 312.676 145.571C312.276 145.792 311.95 146.123 311.697 146.565C311.455 146.996 311.334 147.512 311.334 148.112C311.334 148.712 311.455 149.238 311.697 149.69C311.95 150.143 312.276 150.49 312.676 150.732C313.087 150.964 313.518 151.079 313.97 151.079C314.433 151.079 314.865 150.964 315.265 150.732C315.665 150.501 315.986 150.164 316.228 149.722C316.48 149.269 316.607 148.743 316.607 148.143Z"
            fill="white" />
    </g>
    <g filter="url(#filter2_d_9126_33810)">
        <rect x="369.317" y="123.24" width="131" height="131" rx="16.1231"
            transform="rotate(5.28905 369.317 123.24)" fill="#C0A10C" />
        <rect x="370.227" y="124.337" width="128.985" height="128.985" rx="15.1154"
            transform="rotate(5.28905 370.227 124.337)" stroke="#DBDBDB" stroke-width="2.01538" />
        <g clip-path="url(#clip0_9126_33810)">
            <path
                d="M437.001 178.403L434.953 202.084C434.62 205.935 431.228 208.787 427.376 208.454C423.525 208.121 420.672 204.729 421.005 200.877L423.418 172.981C423.751 169.13 427.144 166.277 430.995 166.611C431.036 166.614 431.078 166.618 431.119 166.622C431.167 167.901 431.368 169.146 431.704 170.339C431.389 170.211 431.05 170.128 430.694 170.098C428.768 169.931 427.072 171.357 426.905 173.283L424.492 201.179C424.326 203.105 425.752 204.801 427.678 204.967C429.604 205.134 431.3 203.708 431.466 201.782L433.794 174.871C434.68 176.199 435.762 177.391 437.001 178.403Z"
                fill="#FFF5C2" />
            <path
                d="M458.151 177.575C457.04 178.634 455.78 179.532 454.408 180.237L452.388 203.591C452.222 205.517 450.525 206.943 448.6 206.777C446.674 206.61 445.248 204.914 445.414 202.988L447.23 181.997C446.734 182 446.233 181.981 445.729 181.937C445.055 181.879 444.393 181.779 443.747 181.642L441.927 202.687C441.594 206.538 444.446 209.931 448.298 210.264C452.15 210.597 455.542 207.745 455.875 203.893L458.151 177.575Z"
                fill="#FFF5C2" />
            <path fill-rule="evenodd" clip-rule="evenodd"
                d="M400.084 199.068C399.75 202.919 402.603 206.312 406.454 206.645C410.306 206.978 413.698 204.126 414.031 200.274L415.539 182.839C415.872 178.988 413.02 175.595 409.169 175.262C405.317 174.929 401.925 177.781 401.591 181.633L400.084 199.068ZM406.756 203.158C404.83 202.991 403.404 201.295 403.57 199.369L405.078 181.934C405.245 180.009 406.941 178.582 408.867 178.749C410.793 178.916 412.219 180.612 412.052 182.538L410.544 199.973C410.378 201.898 408.682 203.324 406.756 203.158Z"
                fill="#FFF5C2" />
            <path
                d="M459.063 167.031C458.492 173.633 452.677 178.523 446.074 177.952C439.471 177.381 434.582 171.565 435.153 164.963C435.724 158.36 441.539 153.47 448.142 154.041C454.745 154.612 459.634 160.428 459.063 167.031ZM447.682 159.355C446.949 159.291 446.303 159.835 446.239 160.568L445.78 165.882C445.716 166.615 446.259 167.262 446.993 167.325C447.727 167.389 448.373 166.845 448.436 166.112L448.896 160.798C448.959 160.064 448.416 159.418 447.682 159.355ZM446.505 172.971C447.422 173.05 448.23 172.371 448.309 171.454C448.388 170.537 447.709 169.729 446.792 169.65C445.875 169.57 445.067 170.25 444.988 171.167C444.909 172.084 445.588 172.891 446.505 172.971Z"
                fill="#FFF5C2" />
        </g>
        <path
            d="M398.287 225.108L398.04 227.779L401.182 228.07L401.07 229.287L397.927 228.997L397.669 231.786L401.204 232.113L401.091 233.331L396.063 232.865L396.907 223.752L401.935 224.217L401.822 225.435L398.287 225.108ZM404.994 227.472C405.246 227.125 405.56 226.868 405.937 226.701C406.323 226.525 406.765 226.46 407.262 226.506L407.119 228.051L406.739 228.016C406.155 227.962 405.696 228.069 405.363 228.338C405.038 228.607 404.842 229.108 404.774 229.842L404.423 233.639L402.93 233.501L403.598 226.286L405.091 226.424L404.994 227.472ZM410.019 227.937C410.271 227.591 410.586 227.333 410.962 227.166C411.348 226.99 411.79 226.926 412.288 226.972L412.145 228.517L411.765 228.482C411.18 228.427 410.721 228.535 410.388 228.803C410.064 229.072 409.868 229.574 409.8 230.307L409.448 234.104L407.955 233.966L408.623 226.751L410.116 226.889L410.019 227.937ZM416.099 234.839C415.419 234.776 414.817 234.566 414.296 234.21C413.775 233.844 413.383 233.368 413.121 232.78C412.859 232.184 412.762 231.514 412.831 230.772C412.899 230.039 413.121 229.404 413.496 228.866C413.872 228.329 414.353 227.933 414.94 227.679C415.527 227.426 416.165 227.331 416.855 227.394C417.544 227.458 418.154 227.669 418.685 228.026C419.215 228.383 419.616 228.861 419.886 229.458C420.156 230.055 420.258 230.72 420.19 231.454C420.122 232.187 419.896 232.822 419.512 233.359C419.127 233.895 418.633 234.294 418.027 234.555C417.432 234.808 416.789 234.903 416.099 234.839ZM416.219 233.543C416.604 233.578 416.97 233.52 417.319 233.367C417.676 233.215 417.976 232.966 418.22 232.618C418.463 232.271 418.609 231.836 418.658 231.312C418.706 230.788 418.647 230.338 418.479 229.962C418.312 229.576 418.071 229.277 417.757 229.063C417.442 228.849 417.093 228.724 416.708 228.688C416.324 228.653 415.958 228.711 415.609 228.864C415.269 229.017 414.986 229.268 414.76 229.617C414.535 229.957 414.398 230.389 414.35 230.913C414.278 231.69 414.419 232.311 414.772 232.775C415.135 233.231 415.617 233.487 416.219 233.543ZM423.395 229.175C423.647 228.829 423.961 228.572 424.338 228.404C424.724 228.228 425.165 228.164 425.663 228.21L425.52 229.755L425.14 229.72C424.555 229.666 424.096 229.773 423.763 230.041C423.439 230.311 423.243 230.812 423.175 231.545L422.824 235.343L421.331 235.204L421.999 227.989L423.492 228.128L423.395 229.175ZM435.062 231.761C435.542 231.893 435.933 232.189 436.234 232.648C436.535 233.108 436.66 233.608 436.61 234.149C436.567 234.612 436.406 235.02 436.127 235.372C435.857 235.717 435.486 235.978 435.011 236.154C434.538 236.321 434 236.377 433.398 236.321L429.758 235.984L430.6 226.884L434.07 227.205C434.69 227.263 435.213 227.417 435.639 227.667C436.064 227.918 436.374 228.233 436.568 228.612C436.763 228.982 436.84 229.385 436.799 229.822C436.751 230.346 436.571 230.769 436.259 231.092C435.947 231.416 435.548 231.639 435.062 231.761ZM431.739 230.846L433.585 231.017C434.074 231.062 434.464 230.988 434.755 230.795C435.055 230.594 435.225 230.284 435.263 229.865C435.301 229.454 435.191 229.123 434.933 228.87C434.684 228.609 434.315 228.456 433.826 228.411L431.98 228.24L431.739 230.846ZM433.38 235.092C433.886 235.138 434.295 235.053 434.605 234.835C434.916 234.617 435.091 234.29 435.132 233.854C435.173 233.409 435.053 233.041 434.772 232.751C434.49 232.461 434.097 232.292 433.59 232.245L431.626 232.063L431.363 234.905L433.38 235.092ZM437.845 233.062C437.912 232.337 438.12 231.709 438.468 231.178C438.826 230.648 439.276 230.254 439.819 229.996C440.372 229.73 440.963 229.626 441.591 229.684C442.159 229.737 442.641 229.896 443.039 230.162C443.447 230.42 443.762 230.726 443.984 231.081L444.081 230.034L445.587 230.173L444.919 237.388L443.413 237.249L443.513 236.175C443.228 236.492 442.857 236.744 442.4 236.93C441.942 237.117 441.434 237.184 440.875 237.132C440.256 237.075 439.703 236.865 439.217 236.504C438.732 236.133 438.363 235.65 438.11 235.054C437.866 234.45 437.778 233.786 437.845 233.062ZM443.748 233.635C443.794 233.137 443.729 232.695 443.554 232.309C443.387 231.924 443.146 231.62 442.833 231.397C442.519 231.174 442.17 231.045 441.785 231.01C441.401 230.974 441.035 231.037 440.685 231.198C440.336 231.351 440.04 231.601 439.797 231.948C439.563 232.288 439.423 232.706 439.377 233.204C439.331 233.701 439.391 234.147 439.557 234.541C439.732 234.936 439.976 235.249 440.289 235.48C440.611 235.704 440.96 235.833 441.336 235.868C441.72 235.903 442.087 235.84 442.436 235.679C442.786 235.518 443.078 235.263 443.312 234.915C443.557 234.559 443.702 234.132 443.748 233.635ZM448.944 231.54C449.196 231.194 449.51 230.937 449.887 230.769C450.273 230.594 450.714 230.529 451.212 230.575L451.069 232.12L450.689 232.085C450.104 232.031 449.645 232.138 449.312 232.406C448.988 232.676 448.792 233.177 448.724 233.91L448.373 237.708L446.88 237.569L447.548 230.355L449.041 230.493L448.944 231.54Z"
            fill="white" />
    </g>
    <g filter="url(#filter3_d_9126_33810)">
        <rect x="25.1631" y="253.838" width="156.573" height="156.573" rx="19.2705"
            transform="rotate(-6.06818 25.1631 253.838)" fill="#681CB3" />
        <rect x="26.4881" y="254.908" width="154.164" height="154.164" rx="18.0661"
            transform="rotate(-6.06818 26.4881 254.908)" stroke="#DBDBDB" stroke-width="2.40881" />
        <g clip-path="url(#clip1_9126_33810)">
            <path fill-rule="evenodd" clip-rule="evenodd"
                d="M99.0329 315.878C99.6568 316.767 99.5007 318.018 98.6842 318.672L86.7642 328.22C85.9477 328.874 84.7799 328.683 84.1559 327.795C83.532 326.906 83.6881 325.655 84.5046 325.001L96.4246 315.454C97.2412 314.8 98.4089 314.99 99.0329 315.878Z"
                fill="#E1C3FF" />
            <path fill-rule="evenodd" clip-rule="evenodd"
                d="M118.357 313.202C118.981 314.091 118.825 315.341 118.008 315.995L106.088 325.543C105.272 326.197 104.104 326.007 103.48 325.118C102.856 324.23 103.012 322.979 103.829 322.325L115.749 312.777C116.565 312.123 117.733 312.313 118.357 313.202Z"
                fill="#E1C3FF" />
            <path fill-rule="evenodd" clip-rule="evenodd"
                d="M137.879 310.02C138.503 310.909 138.347 312.159 137.531 312.813L125.611 322.361C124.794 323.015 123.627 322.825 123.003 321.936C122.379 321.048 122.535 319.797 123.351 319.143L135.271 309.595C136.088 308.941 137.256 309.131 137.879 310.02Z"
                fill="#E1C3FF" />
            <path
                d="M86.2526 331.572C86.7308 335.408 90.0083 338.158 93.5732 337.713C97.1381 337.269 99.6403 333.799 99.1621 329.963L98.124 321.635L95.144 324.022L95.9347 330.365C96.1738 332.283 94.9227 334.018 93.1403 334.24C91.3578 334.462 89.719 333.088 89.4799 331.169L89.1841 328.796L87.8944 329.829C87.3602 330.257 86.7509 330.504 86.129 330.581L86.2526 331.572Z"
                fill="#E1C3FF" />
            <path
                d="M96.9974 312.597L97.0592 313.093C96.4378 313.17 95.829 313.417 95.2952 313.845L94.0043 314.879L93.77 312.999C93.5309 311.081 91.8921 309.706 90.1097 309.928C88.3272 310.151 87.0761 311.886 87.3152 313.804L88.0443 319.653L85.0643 322.04L84.0879 314.206C83.6096 310.37 86.1119 306.9 89.6767 306.455C93.2416 306.011 96.5192 308.761 96.9974 312.597Z"
                fill="#E1C3FF" />
            <path
                d="M105.617 329.158C106.095 332.994 109.373 335.744 112.938 335.3C116.502 334.855 119.005 331.385 118.526 327.549L117.453 318.937L114.473 321.324L115.299 327.951C115.538 329.869 114.287 331.604 112.505 331.826C110.722 332.049 109.083 330.674 108.844 328.756L108.513 326.097L106.82 327.454C106.411 327.781 105.957 328.003 105.488 328.123L105.617 329.158Z"
                fill="#E1C3FF" />
            <path
                d="M104.393 319.341L102.153 301.373C101.675 297.537 104.177 294.066 107.742 293.622C111.307 293.178 114.585 295.927 115.063 299.764L116.425 310.692C115.654 310.688 114.88 310.941 114.221 311.469L113.333 312.18L111.836 300.166C111.596 298.248 109.958 296.873 108.175 297.095C106.393 297.317 105.142 299.052 105.381 300.971L107.373 316.954L104.393 319.341Z"
                fill="#E1C3FF" />
            <path
                d="M124.981 326.744C125.459 330.58 128.737 333.33 132.302 332.886C135.867 332.441 138.369 328.971 137.891 325.135L136.817 316.523L133.837 318.91L134.663 325.537C134.902 327.455 133.651 329.19 131.869 329.413C130.086 329.635 128.448 328.26 128.209 326.342L127.877 323.684L126.138 325.077C125.743 325.393 125.307 325.611 124.855 325.734L124.981 326.744Z"
                fill="#E1C3FF" />
            <path
                d="M123.757 316.927L119.786 285.067C119.308 281.23 121.81 277.76 125.375 277.316C128.94 276.871 132.217 279.621 132.695 283.457L135.794 308.315C135.007 308.3 134.213 308.553 133.539 309.092L132.697 309.766L129.468 283.86C129.229 281.942 127.59 280.567 125.808 280.789C124.025 281.011 122.774 282.746 123.013 284.664L126.737 314.54L123.757 316.927Z"
                fill="#E1C3FF" />
        </g>
        <path
            d="M63.7508 365.662C63.6358 364.58 63.7819 363.583 64.1891 362.671C64.6069 361.758 65.22 361.017 66.0284 360.448C66.8463 359.868 67.7697 359.523 68.7986 359.413C69.9759 359.288 71.0517 359.469 72.0259 359.955C73.0096 360.43 73.7647 361.176 74.2911 362.192L72.1114 362.424C71.763 361.871 71.319 361.478 70.7794 361.246C70.2398 361.014 69.6359 360.933 68.9677 361.004C68.2358 361.082 67.601 361.316 67.0632 361.706C66.5253 362.095 66.1247 362.615 65.8613 363.265C65.6085 363.914 65.5255 364.647 65.6123 365.464C65.6992 366.281 65.9344 366.98 66.318 367.561C66.7122 368.141 67.2137 368.571 67.8226 368.849C68.4303 369.117 69.1001 369.212 69.832 369.135C70.5002 369.063 71.0737 368.858 71.5524 368.517C72.0311 368.177 72.3826 367.7 72.607 367.086L74.7867 366.854C74.4858 367.959 73.9044 368.846 73.0424 369.517C72.1911 370.187 71.1768 370.584 69.9994 370.71C68.96 370.82 67.9853 370.682 67.0754 370.296C66.1643 369.9 65.4086 369.299 64.8081 368.494C64.2183 367.688 63.8658 366.744 63.7508 365.662ZM84.2587 360.232L85.1906 368.998L83.3769 369.191L83.2669 368.157C83.0189 368.548 82.6728 368.874 82.2286 369.136C81.7939 369.386 81.3167 369.539 80.797 369.594C80.1076 369.667 79.4718 369.59 78.8898 369.362C78.3184 369.133 77.8437 368.755 77.4658 368.226C77.0984 367.697 76.8724 367.034 76.7879 366.239L76.2399 361.084L78.0377 360.893L78.557 365.777C78.6404 366.562 78.9009 367.146 79.3385 367.529C79.7749 367.901 80.3326 368.05 81.0114 367.978C81.6902 367.906 82.2039 367.642 82.5524 367.187C82.9103 366.72 83.0476 366.094 82.9642 365.309L82.4449 360.424L84.2587 360.232ZM88.9252 361.232L89.4411 366.085C89.476 366.413 89.5756 366.644 89.7399 366.777C89.9137 366.898 90.1862 366.939 90.5574 366.899L91.6712 366.781L91.8318 368.292L90.3999 368.444C89.5832 368.531 88.9371 368.407 88.4616 368.071C87.9861 367.736 87.7027 367.138 87.6114 366.279L87.0955 361.426L86.0613 361.536L85.904 360.057L86.9382 359.947L86.7065 357.767L88.5362 357.572L88.7679 359.752L90.8999 359.526L91.0572 361.005L88.9252 361.232ZM97.7937 352.469L95.3588 370.733L93.5768 370.922L95.9958 352.66L97.7937 352.469ZM100.481 361.757C100.366 360.675 100.512 359.678 100.92 358.766C101.337 357.853 101.951 357.112 102.759 356.543C103.577 355.963 104.5 355.618 105.529 355.509C106.706 355.383 107.782 355.564 108.756 356.05C109.74 356.525 110.495 357.271 111.022 358.288L108.842 358.519C108.494 357.966 108.05 357.574 107.51 357.341C106.97 357.109 106.366 357.029 105.698 357.1C104.966 357.177 104.332 357.411 103.794 357.801C103.256 358.191 102.855 358.711 102.592 359.361C102.339 360.01 102.256 360.743 102.343 361.559C102.43 362.376 102.665 363.075 103.049 363.656C103.443 364.237 103.944 364.666 104.553 364.945C105.161 365.213 105.831 365.308 106.563 365.23C107.231 365.159 107.804 364.953 108.283 364.612C108.762 364.272 109.113 363.795 109.337 363.181L111.517 362.949C111.216 364.054 110.635 364.942 109.773 365.613C108.922 366.282 107.907 366.68 106.73 366.805C105.69 366.915 104.716 366.778 103.806 366.392C102.895 365.995 102.139 365.394 101.539 364.589C100.949 363.783 100.596 362.839 100.481 361.757ZM114.544 353.971L115.796 365.745L113.982 365.937L112.73 354.164L114.544 353.971ZM118.044 355.465C117.716 355.5 117.428 355.418 117.182 355.219C116.935 355.02 116.794 354.756 116.759 354.427C116.725 354.099 116.807 353.811 117.006 353.564C117.205 353.318 117.469 353.177 117.797 353.142C118.116 353.109 118.398 353.191 118.644 353.39C118.891 353.589 119.032 353.853 119.066 354.182C119.101 354.511 119.019 354.799 118.82 355.045C118.621 355.291 118.363 355.431 118.044 355.465ZM119.059 356.532L119.991 365.299L118.177 365.491L117.245 356.725L119.059 356.532ZM123.391 357.375C123.656 356.939 124.039 356.555 124.54 356.223C125.041 355.891 125.625 355.689 126.294 355.618C127.057 355.537 127.772 355.654 128.439 355.969C129.115 356.273 129.669 356.745 130.102 357.385C130.534 358.026 130.798 358.786 130.891 359.667C130.985 360.547 130.889 361.357 130.602 362.095C130.315 362.823 129.874 363.417 129.279 363.877C128.694 364.325 128.02 364.59 127.256 364.671C126.588 364.742 125.98 364.673 125.432 364.463C124.883 364.242 124.422 363.948 124.051 363.58L124.629 369.021L122.815 369.214L121.44 356.279L123.254 356.086L123.391 357.375ZM129.046 359.863C128.981 359.258 128.799 358.752 128.498 358.344C128.207 357.925 127.842 357.626 127.405 357.447C126.977 357.256 126.53 357.186 126.063 357.236C125.607 357.284 125.185 357.447 124.796 357.724C124.418 358 124.125 358.375 123.918 358.847C123.721 359.319 123.655 359.857 123.719 360.461C123.783 361.066 123.962 361.583 124.254 362.014C124.556 362.432 124.921 362.736 125.349 362.927C125.787 363.116 126.235 363.187 126.691 363.138C127.157 363.089 127.58 362.926 127.958 362.65C128.346 362.362 128.637 361.977 128.833 361.495C129.039 361.011 129.11 360.468 129.046 359.863ZM143.714 360.492L139.084 360.984L138.529 363.328L136.636 363.529L139.42 352.034L141.52 351.811L146.659 362.464L144.75 362.667L143.714 360.492ZM143.048 359.066L140.704 354.118L139.436 359.45L143.048 359.066ZM151.665 357.442L154.969 361.58L152.916 361.798L150.707 359.024L149.241 362.189L147.348 362.39L149.721 357.778L146.416 353.624L148.468 353.406L150.678 356.18L152.143 353.015L154.037 352.814L151.665 357.442ZM156.189 351.41C155.86 351.445 155.572 351.363 155.326 351.164C155.08 350.965 154.939 350.701 154.904 350.372C154.869 350.043 154.951 349.756 155.15 349.509C155.349 349.263 155.613 349.122 155.942 349.087C156.26 349.054 156.542 349.136 156.789 349.335C157.035 349.534 157.176 349.798 157.211 350.127C157.246 350.456 157.164 350.743 156.965 350.99C156.766 351.236 156.507 351.376 156.189 351.41ZM157.203 352.477L158.135 361.244L156.321 361.436L155.389 352.67L157.203 352.477ZM163.714 360.795C163.024 360.869 162.391 360.813 161.813 360.627C161.245 360.43 160.78 360.137 160.416 359.746C160.052 359.345 159.831 358.88 159.753 358.352L161.631 358.153C161.702 358.521 161.91 358.815 162.256 359.036C162.61 359.245 163.032 359.323 163.52 359.271C164.029 359.217 164.411 359.08 164.667 358.86C164.932 358.628 165.048 358.358 165.015 358.05C164.98 357.722 164.795 357.495 164.46 357.369C164.135 357.243 163.624 357.12 162.924 357.002C162.248 356.891 161.693 356.773 161.262 356.647C160.83 356.522 160.442 356.3 160.097 355.983C159.763 355.664 159.565 355.219 159.504 354.646C159.455 354.179 159.547 353.74 159.783 353.329C160.017 352.907 160.376 352.558 160.862 352.281C161.358 352.003 161.94 351.829 162.608 351.758C163.605 351.652 164.433 351.821 165.092 352.266C165.76 352.699 166.162 353.348 166.297 354.213L164.483 354.406C164.409 354.017 164.217 353.721 163.906 353.518C163.594 353.315 163.195 353.24 162.707 353.292C162.23 353.343 161.873 353.472 161.638 353.679C161.403 353.886 161.301 354.139 161.332 354.436C161.357 354.669 161.463 354.856 161.649 354.997C161.836 355.138 162.056 355.243 162.31 355.313C162.563 355.372 162.936 355.445 163.428 355.532C164.082 355.634 164.621 355.754 165.043 355.891C165.475 356.017 165.857 356.234 166.19 356.542C166.523 356.85 166.725 357.284 166.795 357.845C166.848 358.344 166.758 358.804 166.524 359.226C166.29 359.647 165.93 359.997 165.444 360.274C164.97 360.549 164.393 360.723 163.714 360.795Z"
            fill="white" />
    </g>
    <g filter="url(#filter4_d_9126_33810)">
        <rect x="202" y="187" width="144.988" height="144.988" rx="17.8447" fill="#D42270" />
        <rect x="203.115" y="188.115" width="142.757" height="142.757" rx="16.7294" stroke="#DBDBDB"
            stroke-width="2.23058" />
        <path
            d="M256.494 216.994H292.494C298.017 216.994 302.494 221.471 302.494 226.994V262.994C302.494 268.517 298.017 272.994 292.494 272.994H256.494C250.971 272.994 246.494 268.517 246.494 262.994V226.994C246.494 221.471 250.971 216.994 256.494 216.994ZM250.494 226.994V234.166L263.666 220.994H256.494C253.18 220.994 250.494 223.68 250.494 226.994ZM250.494 239.823V250.166L279.666 220.994H269.323L250.494 239.823ZM285.323 220.994L250.494 255.823V262.994C250.494 263.92 250.704 264.798 251.079 265.581L295.081 221.579C294.298 221.204 293.421 220.994 292.494 220.994H285.323ZM297.909 224.407L253.908 268.409C254.691 268.784 255.568 268.994 256.494 268.994H263.666L298.494 234.166V226.994C298.494 226.068 298.284 225.19 297.909 224.407ZM298.494 239.823L269.323 268.994H279.666L298.494 250.166V239.823ZM298.494 255.823L285.323 268.994H292.494C295.808 268.994 298.494 266.308 298.494 262.994V255.823Z"
            fill="#FFC2DD" />
        <path
            d="M240.633 290.185V291.498H236.469V294.391H239.715V295.704H236.469V299.994H234.86V290.185H240.633ZM242.942 291.187C242.651 291.187 242.406 291.089 242.208 290.891C242.011 290.693 241.912 290.449 241.912 290.157C241.912 289.865 242.011 289.621 242.208 289.423C242.406 289.226 242.651 289.127 242.942 289.127C243.224 289.127 243.464 289.226 243.662 289.423C243.86 289.621 243.958 289.865 243.958 290.157C243.958 290.449 243.86 290.693 243.662 290.891C243.464 291.089 243.224 291.187 242.942 291.187ZM243.733 292.218V299.994H242.124V292.218H243.733ZM247.454 289.55V299.994H245.845V289.55H247.454ZM251.175 289.55V299.994H249.566V289.55H251.175ZM263.812 293.107C263.812 293.605 263.695 294.076 263.46 294.518C263.224 294.96 262.848 295.322 262.33 295.605C261.813 295.878 261.15 296.014 260.341 296.014H258.562V299.994H256.953V290.185H260.341C261.093 290.185 261.728 290.317 262.246 290.58C262.773 290.834 263.163 291.183 263.417 291.625C263.681 292.067 263.812 292.561 263.812 293.107ZM260.341 294.701C260.952 294.701 261.408 294.565 261.709 294.292C262.011 294.01 262.161 293.615 262.161 293.107C262.161 292.034 261.554 291.498 260.341 291.498H258.562V294.701H260.341ZM264.811 296.07C264.811 295.29 264.97 294.598 265.29 293.996C265.62 293.394 266.062 292.928 266.617 292.599C267.182 292.26 267.802 292.091 268.48 292.091C269.091 292.091 269.623 292.213 270.075 292.458C270.536 292.693 270.903 292.989 271.176 293.347V292.218H272.799V299.994H271.176V298.837C270.903 299.204 270.531 299.509 270.061 299.754C269.59 299.999 269.054 300.121 268.452 300.121C267.784 300.121 267.172 299.952 266.617 299.613C266.062 299.265 265.62 298.785 265.29 298.173C264.97 297.552 264.811 296.851 264.811 296.07ZM271.176 296.099C271.176 295.562 271.063 295.097 270.837 294.701C270.62 294.306 270.333 294.005 269.976 293.798C269.618 293.591 269.233 293.488 268.819 293.488C268.405 293.488 268.019 293.591 267.661 293.798C267.304 293.996 267.012 294.292 266.786 294.687C266.57 295.073 266.462 295.534 266.462 296.07C266.462 296.607 266.57 297.077 266.786 297.482C267.012 297.886 267.304 298.197 267.661 298.413C268.028 298.62 268.414 298.724 268.819 298.724C269.233 298.724 269.618 298.62 269.976 298.413C270.333 298.206 270.62 297.905 270.837 297.51C271.063 297.105 271.176 296.635 271.176 296.099ZM276.789 293.53V297.835C276.789 298.126 276.855 298.338 276.986 298.47C277.128 298.592 277.363 298.653 277.692 298.653H278.68V299.994H277.41C276.685 299.994 276.13 299.825 275.744 299.486C275.359 299.147 275.166 298.597 275.166 297.835V293.53H274.248V292.218H275.166V290.284H276.789V292.218H278.68V293.53H276.789ZM282.04 293.53V297.835C282.04 298.126 282.106 298.338 282.237 298.47C282.379 298.592 282.614 298.653 282.943 298.653H283.931V299.994H282.661C281.936 299.994 281.381 299.825 280.995 299.486C280.61 299.147 280.417 298.597 280.417 297.835V293.53H279.499V292.218H280.417V290.284H282.04V292.218H283.931V293.53H282.04ZM292.541 295.915C292.541 296.207 292.522 296.47 292.485 296.706H286.543C286.59 297.327 286.82 297.825 287.234 298.202C287.648 298.578 288.157 298.766 288.759 298.766C289.624 298.766 290.236 298.404 290.593 297.679H292.329C292.094 298.394 291.666 298.982 291.045 299.443C290.433 299.895 289.671 300.121 288.759 300.121C288.015 300.121 287.347 299.956 286.755 299.627C286.171 299.288 285.71 298.818 285.372 298.216C285.042 297.604 284.878 296.898 284.878 296.099C284.878 295.299 285.038 294.598 285.357 293.996C285.687 293.384 286.143 292.914 286.726 292.585C287.319 292.255 287.997 292.091 288.759 292.091C289.493 292.091 290.146 292.251 290.72 292.57C291.294 292.89 291.741 293.342 292.061 293.925C292.381 294.499 292.541 295.163 292.541 295.915ZM290.862 295.407C290.852 294.814 290.64 294.339 290.226 293.982C289.812 293.624 289.3 293.445 288.688 293.445C288.133 293.445 287.658 293.624 287.263 293.982C286.868 294.33 286.632 294.805 286.557 295.407H290.862ZM295.733 293.347C295.968 292.951 296.279 292.646 296.665 292.429C297.06 292.203 297.526 292.091 298.062 292.091V293.756H297.653C297.022 293.756 296.542 293.916 296.213 294.236C295.893 294.556 295.733 295.111 295.733 295.901V299.994H294.124V292.218H295.733V293.347ZM303.464 292.091C304.076 292.091 304.621 292.218 305.101 292.472C305.591 292.726 305.972 293.102 306.244 293.601C306.517 294.099 306.654 294.701 306.654 295.407V299.994H305.059V295.647C305.059 294.951 304.885 294.419 304.537 294.052C304.189 293.676 303.714 293.488 303.111 293.488C302.509 293.488 302.029 293.676 301.672 294.052C301.324 294.419 301.15 294.951 301.15 295.647V299.994H299.541V292.218H301.15V293.107C301.413 292.787 301.747 292.537 302.152 292.359C302.566 292.18 303.003 292.091 303.464 292.091ZM311.529 300.121C310.917 300.121 310.367 300.013 309.877 299.796C309.398 299.571 309.016 299.269 308.734 298.893C308.452 298.507 308.301 298.079 308.283 297.609H309.948C309.976 297.938 310.131 298.216 310.414 298.441C310.705 298.658 311.068 298.766 311.5 298.766C311.952 298.766 312.3 298.681 312.545 298.512C312.799 298.333 312.926 298.107 312.926 297.835C312.926 297.543 312.785 297.327 312.502 297.185C312.23 297.044 311.792 296.889 311.19 296.72C310.607 296.56 310.131 296.404 309.764 296.254C309.398 296.103 309.078 295.873 308.805 295.562C308.541 295.252 308.41 294.843 308.41 294.335C308.41 293.921 308.532 293.544 308.777 293.205C309.021 292.857 309.369 292.585 309.821 292.387C310.282 292.189 310.809 292.091 311.402 292.091C312.286 292.091 312.996 292.316 313.533 292.768C314.078 293.21 314.37 293.817 314.408 294.589H312.799C312.771 294.24 312.629 293.963 312.375 293.756C312.121 293.549 311.778 293.445 311.345 293.445C310.922 293.445 310.597 293.525 310.371 293.685C310.146 293.845 310.033 294.057 310.033 294.32C310.033 294.527 310.108 294.701 310.258 294.843C310.409 294.984 310.592 295.097 310.809 295.181C311.025 295.257 311.345 295.355 311.769 295.478C312.333 295.628 312.794 295.783 313.152 295.943C313.519 296.094 313.834 296.32 314.097 296.621C314.361 296.922 314.497 297.322 314.506 297.82C314.506 298.263 314.384 298.658 314.14 299.006C313.895 299.354 313.547 299.627 313.095 299.825C312.653 300.022 312.131 300.121 311.529 300.121Z"
            fill="white" />
    </g>
    <g filter="url(#filter5_d_9126_33810)">
        <rect x="211.98" y="339.232" width="133" height="133" rx="16.3692"
            transform="rotate(3.33414 211.98 339.232)" fill="#1E9C24" />
        <rect x="212.942" y="340.313" width="130.954" height="130.954" rx="15.3462"
            transform="rotate(3.33414 212.942 340.313)" stroke="#DBDBDB" stroke-width="2.04615" />
        <path d="M249.557 415.439L249.855 410.333L298.88 413.189L298.582 418.296L249.557 415.439Z"
            fill="#CFFFD1" />
        <path d="M266.901 381.607L252.83 394.452L252.433 401.261L272.349 402.421L279.385 395.999"
            stroke="#CFFFD1" stroke-width="4.09231" stroke-linecap="round" stroke-linejoin="round" />
        <path
            d="M297.445 385.039L286.498 394.78C285.61 395.555 284.453 395.951 283.275 395.882C282.098 395.814 280.995 395.286 280.202 394.413L269.19 382.039C268.415 381.15 268.019 379.993 268.088 378.816C268.157 377.639 268.684 376.535 269.557 375.743L280.504 366.001"
            stroke="#CFFFD1" stroke-width="4.09231" stroke-linecap="round" stroke-linejoin="round" />
        <path
            d="M234.761 436.594L234.215 445.968L232.677 445.878L233.224 436.505L234.761 436.594ZM241.531 441.563C242.03 441.682 242.441 441.972 242.766 442.433C243.091 442.894 243.237 443.404 243.205 443.961C243.177 444.438 243.026 444.862 242.752 445.234C242.487 445.597 242.114 445.878 241.634 446.075C241.154 446.264 240.603 446.34 239.983 446.304L236.234 446.086L236.78 436.712L240.354 436.92C240.992 436.957 241.534 437.097 241.98 437.34C242.426 437.582 242.755 437.895 242.968 438.277C243.181 438.65 243.274 439.062 243.248 439.511C243.216 440.051 243.046 440.492 242.738 440.835C242.429 441.178 242.027 441.42 241.531 441.563ZM238.088 440.74L239.989 440.851C240.493 440.88 240.891 440.79 241.182 440.582C241.484 440.365 241.647 440.041 241.672 439.609C241.697 439.186 241.572 438.85 241.298 438.599C241.033 438.34 240.649 438.196 240.146 438.167L238.244 438.056L238.088 440.74ZM239.921 445.042C240.443 445.072 240.859 444.97 241.171 444.736C241.482 444.501 241.651 444.159 241.677 443.71C241.704 443.251 241.567 442.878 241.268 442.59C240.97 442.302 240.559 442.142 240.038 442.112L238.015 441.994L237.844 444.921L239.921 445.042ZM244.491 441.844C244.544 440.927 244.803 440.116 245.268 439.412C245.742 438.709 246.355 438.177 247.107 437.814C247.868 437.444 248.685 437.284 249.557 437.335C250.555 437.393 251.427 437.692 252.171 438.231C252.925 438.762 253.451 439.488 253.75 440.407L251.902 440.3C251.688 439.791 251.372 439.403 250.955 439.135C250.537 438.867 250.045 438.716 249.479 438.683C248.858 438.647 248.297 438.754 247.796 439.005C247.294 439.255 246.888 439.633 246.579 440.138C246.279 440.644 246.109 441.243 246.069 441.936C246.028 442.628 246.128 443.243 246.367 443.78C246.615 444.318 246.974 444.745 247.443 445.061C247.912 445.368 248.457 445.539 249.077 445.575C249.644 445.608 250.15 445.516 250.596 445.298C251.041 445.081 251.4 444.732 251.672 444.251L253.519 444.359C253.116 445.238 252.51 445.897 251.699 446.337C250.897 446.777 249.998 446.969 249 446.911C248.118 446.859 247.325 446.61 246.621 446.163C245.917 445.707 245.37 445.102 244.981 444.349C244.601 443.596 244.437 442.761 244.491 441.844ZM258.243 447.463C257.614 447.426 257.054 447.285 256.563 447.04C256.072 446.786 255.695 446.448 255.431 446.027C255.167 445.605 255.05 445.125 255.082 444.585L256.727 444.681C256.74 445.088 256.878 445.43 257.141 445.707C257.414 445.984 257.806 446.138 258.319 446.168C258.849 446.199 259.27 446.097 259.582 445.862C259.893 445.619 260.061 445.295 260.085 444.89C260.103 444.576 260.024 444.314 259.846 444.105C259.678 443.897 259.458 443.731 259.185 443.606C258.922 443.483 258.551 443.344 258.073 443.19C257.471 442.992 256.981 442.801 256.604 442.617C256.236 442.424 255.928 442.145 255.678 441.778C255.429 441.412 255.322 440.936 255.356 440.352C255.387 439.812 255.549 439.348 255.843 438.959C256.136 438.571 256.532 438.282 257.03 438.095C257.528 437.907 258.096 437.832 258.735 437.869C259.643 437.922 260.371 438.195 260.92 438.687C261.478 439.17 261.766 439.81 261.783 440.605L260.083 440.506C260.076 440.162 259.931 439.861 259.649 439.601C259.366 439.341 258.982 439.196 258.497 439.168C258.056 439.142 257.69 439.234 257.398 439.442C257.106 439.651 256.948 439.967 256.923 440.389C256.906 440.677 256.978 440.92 257.138 441.119C257.307 441.309 257.524 441.466 257.787 441.59C258.051 441.713 258.412 441.852 258.873 442.005C259.483 442.212 259.977 442.412 260.353 442.605C260.739 442.799 261.056 443.084 261.305 443.459C261.563 443.826 261.675 444.306 261.641 444.9C261.613 445.376 261.456 445.818 261.171 446.226C260.894 446.634 260.501 446.954 259.992 447.186C259.491 447.409 258.909 447.501 258.243 447.463ZM273.405 438.846L273.332 440.1L270.837 439.955L270.364 448.074L268.827 447.984L269.3 439.865L266.791 439.719L266.864 438.465L273.405 438.846ZM278.7 440.981C279.267 441.014 279.763 441.165 280.189 441.433C280.625 441.702 280.955 442.082 281.179 442.574C281.412 443.065 281.508 443.648 281.469 444.323L281.214 448.706L279.69 448.617L279.932 444.463C279.971 443.798 279.834 443.28 279.522 442.91C279.21 442.531 278.766 442.325 278.191 442.291C277.615 442.258 277.146 442.411 276.784 442.751C276.431 443.082 276.235 443.58 276.196 444.246L275.954 448.4L274.416 448.31L274.998 438.33L276.535 438.419L276.336 441.831C276.616 441.532 276.958 441.308 277.363 441.16C277.778 441.013 278.224 440.953 278.7 440.981ZM290.213 445.319C290.197 445.598 290.164 445.849 290.115 446.071L284.437 445.741C284.447 446.337 284.64 446.826 285.015 447.209C285.389 447.592 285.864 447.8 286.44 447.833C287.267 447.881 287.872 447.569 288.254 446.897L289.913 446.993C289.648 447.664 289.206 448.202 288.587 448.608C287.977 449.005 287.237 449.179 286.364 449.128C285.654 449.087 285.025 448.892 284.477 448.544C283.938 448.188 283.524 447.713 283.234 447.119C282.953 446.516 282.835 445.832 282.879 445.068C282.924 444.304 283.116 443.643 283.455 443.085C283.804 442.519 284.266 442.095 284.842 441.813C285.427 441.531 286.083 441.411 286.811 441.454C287.513 441.495 288.129 441.684 288.659 442.022C289.19 442.359 289.592 442.816 289.865 443.391C290.139 443.957 290.255 444.6 290.213 445.319ZM288.636 444.74C288.66 444.173 288.485 443.707 288.109 443.343C287.733 442.978 287.253 442.779 286.669 442.745C286.138 442.714 285.674 442.858 285.277 443.178C284.88 443.488 284.628 443.929 284.523 444.501L288.636 444.74ZM300.935 442.277C301.519 442.311 302.034 442.462 302.478 442.732C302.932 443.002 303.275 443.383 303.508 443.874C303.75 444.367 303.851 444.95 303.812 445.624L303.557 450.008L302.032 449.919L302.275 445.765C302.313 445.1 302.177 444.582 301.864 444.212C301.553 443.833 301.109 443.626 300.533 443.593C299.958 443.559 299.489 443.713 299.126 444.052C298.773 444.384 298.577 444.882 298.539 445.547L298.297 449.701L296.773 449.612L297.015 445.458C297.053 444.793 296.917 444.275 296.604 443.905C296.293 443.526 295.849 443.32 295.274 443.286C294.698 443.253 294.229 443.406 293.866 443.746C293.513 444.077 293.317 444.575 293.279 445.241L293.037 449.395L291.499 449.305L291.932 441.874L293.47 441.963L293.42 442.813C293.69 442.522 294.023 442.302 294.419 442.154C294.816 442.006 295.234 441.944 295.675 441.97C296.268 442.005 296.792 442.161 297.244 442.44C297.697 442.719 298.036 443.105 298.26 443.596C298.511 443.159 298.882 442.825 299.374 442.592C299.866 442.35 300.386 442.245 300.935 442.277ZM312.551 446.621C312.535 446.899 312.502 447.15 312.453 447.373L306.775 447.042C306.785 447.638 306.978 448.127 307.353 448.51C307.727 448.893 308.202 449.101 308.778 449.134C309.605 449.183 310.21 448.871 310.592 448.198L312.251 448.295C311.986 448.965 311.544 449.503 310.925 449.909C310.315 450.307 309.575 450.48 308.702 450.429C307.992 450.388 307.363 450.193 306.815 449.846C306.276 449.489 305.862 449.014 305.572 448.42C305.291 447.817 305.173 447.134 305.217 446.369C305.262 445.605 305.454 444.944 305.793 444.387C306.142 443.82 306.604 443.396 307.18 443.114C307.765 442.832 308.421 442.713 309.149 442.755C309.851 442.796 310.467 442.985 310.997 443.323C311.528 443.661 311.93 444.117 312.203 444.692C312.477 445.259 312.593 445.901 312.551 446.621ZM310.974 446.042C310.998 445.475 310.823 445.009 310.447 444.644C310.071 444.279 309.591 444.08 309.007 444.046C308.476 444.015 308.012 444.159 307.615 444.479C307.218 444.79 306.966 445.231 306.861 445.802L310.974 446.042Z"
            fill="white" />
    </g>
    <g filter="url(#filter6_d_9126_33810)">
        <rect x="360" y="278" width="130.883" height="130.883" rx="16.1087" fill="#0C0C81" />
        <rect x="361.007" y="279.007" width="128.869" height="128.869" rx="15.1019" stroke="#DBDBDB"
            stroke-width="2.01358" />
        <path
            d="M431.877 302.677C432.658 301.896 433.924 301.896 434.706 302.677L441.291 309.262L447.877 302.677C448.658 301.896 449.924 301.896 450.705 302.677C451.486 303.458 451.486 304.724 450.705 305.505L442.705 313.505C441.924 314.286 440.658 314.286 439.877 313.505L431.877 305.505C431.096 304.724 431.096 303.458 431.877 302.677ZM419.291 310.091C420.103 310.091 420.835 310.582 421.142 311.333L439.142 355.333C439.56 356.355 439.07 357.523 438.048 357.941C437.026 358.36 435.858 357.87 435.44 356.848L429.291 341.818V342.09H409.292V341.816L403.143 356.848C402.724 357.87 401.557 358.36 400.534 357.941C399.512 357.523 399.022 356.355 399.44 355.333L417.44 311.333C417.748 310.582 418.479 310.091 419.291 310.091ZM410.816 338.09H427.766L419.291 317.373L410.816 338.09Z"
            fill="#C4C4FF" />
        <path
            d="M382.158 379.545C382.158 378.689 382.355 377.92 382.75 377.24C383.153 376.56 383.695 376.031 384.375 375.653C385.063 375.267 385.815 375.073 386.63 375.073C387.562 375.073 388.389 375.304 389.111 375.766C389.842 376.22 390.371 376.866 390.698 377.706H388.973C388.746 377.244 388.431 376.9 388.028 376.673C387.625 376.446 387.159 376.333 386.63 376.333C386.05 376.333 385.534 376.463 385.08 376.724C384.627 376.984 384.27 377.358 384.01 377.845C383.758 378.332 383.632 378.899 383.632 379.545C383.632 380.192 383.758 380.759 384.01 381.246C384.27 381.733 384.627 382.111 385.08 382.379C385.534 382.64 386.05 382.77 386.63 382.77C387.159 382.77 387.625 382.657 388.028 382.43C388.431 382.203 388.746 381.859 388.973 381.397H390.698C390.371 382.237 389.842 382.883 389.111 383.337C388.389 383.79 387.562 384.017 386.63 384.017C385.807 384.017 385.055 383.828 384.375 383.45C383.695 383.064 383.153 382.531 382.75 381.85C382.355 381.17 382.158 380.402 382.158 379.545ZM398.665 377.001V383.941H397.229V383.123C397.002 383.408 396.704 383.635 396.334 383.803C395.973 383.962 395.587 384.042 395.176 384.042C394.63 384.042 394.138 383.929 393.702 383.702C393.273 383.475 392.933 383.139 392.681 382.694C392.438 382.249 392.316 381.712 392.316 381.082V377.001H393.74V380.868C393.74 381.489 393.895 381.968 394.206 382.304C394.516 382.631 394.94 382.795 395.478 382.795C396.015 382.795 396.439 382.631 396.75 382.304C397.069 381.968 397.229 381.489 397.229 380.868V377.001H398.665ZM403.079 384.055C402.533 384.055 402.042 383.958 401.605 383.765C401.177 383.564 400.837 383.295 400.585 382.959C400.333 382.615 400.198 382.232 400.182 381.813H401.668C401.693 382.107 401.832 382.354 402.084 382.556C402.344 382.749 402.667 382.846 403.054 382.846C403.457 382.846 403.767 382.77 403.986 382.619C404.213 382.459 404.326 382.258 404.326 382.014C404.326 381.754 404.2 381.561 403.948 381.435C403.704 381.309 403.314 381.17 402.777 381.019C402.256 380.876 401.832 380.738 401.504 380.603C401.177 380.469 400.891 380.263 400.648 379.986C400.413 379.709 400.295 379.344 400.295 378.89C400.295 378.521 400.404 378.185 400.623 377.882C400.841 377.572 401.152 377.328 401.555 377.152C401.966 376.976 402.436 376.887 402.965 376.887C403.755 376.887 404.389 377.089 404.868 377.492C405.355 377.887 405.615 378.428 405.649 379.117H404.213C404.187 378.806 404.061 378.558 403.835 378.374C403.608 378.189 403.301 378.097 402.915 378.097C402.537 378.097 402.247 378.168 402.046 378.311C401.844 378.454 401.744 378.642 401.744 378.878C401.744 379.062 401.811 379.218 401.945 379.344C402.08 379.47 402.243 379.57 402.436 379.646C402.63 379.713 402.915 379.801 403.293 379.911C403.797 380.045 404.208 380.183 404.527 380.326C404.855 380.461 405.136 380.662 405.371 380.931C405.607 381.2 405.728 381.556 405.737 382.002C405.737 382.396 405.628 382.749 405.409 383.06C405.191 383.37 404.88 383.614 404.477 383.79C404.082 383.967 403.616 384.055 403.079 384.055ZM408.964 378.172V382.014C408.964 382.274 409.022 382.463 409.14 382.581C409.266 382.69 409.476 382.745 409.77 382.745H410.652V383.941H409.518C408.871 383.941 408.376 383.79 408.032 383.488C407.687 383.186 407.515 382.694 407.515 382.014V378.172H406.696V377.001H407.515V375.275H408.964V377.001H410.652V378.172H408.964ZM414.986 384.055C414.331 384.055 413.739 383.908 413.21 383.614C412.681 383.312 412.265 382.892 411.963 382.354C411.66 381.808 411.509 381.179 411.509 380.465C411.509 379.759 411.664 379.134 411.975 378.588C412.286 378.042 412.71 377.622 413.247 377.328C413.785 377.034 414.385 376.887 415.049 376.887C415.712 376.887 416.313 377.034 416.85 377.328C417.387 377.622 417.812 378.042 418.122 378.588C418.433 379.134 418.588 379.759 418.588 380.465C418.588 381.17 418.429 381.796 418.11 382.342C417.791 382.887 417.354 383.312 416.8 383.614C416.254 383.908 415.649 384.055 414.986 384.055ZM414.986 382.808C415.355 382.808 415.7 382.72 416.019 382.543C416.346 382.367 416.611 382.102 416.812 381.75C417.014 381.397 417.115 380.969 417.115 380.465C417.115 379.961 417.018 379.537 416.825 379.193C416.632 378.84 416.376 378.575 416.056 378.399C415.737 378.223 415.393 378.134 415.024 378.134C414.654 378.134 414.31 378.223 413.991 378.399C413.68 378.575 413.432 378.84 413.247 379.193C413.063 379.537 412.97 379.961 412.97 380.465C412.97 381.212 413.159 381.792 413.537 382.203C413.923 382.606 414.406 382.808 414.986 382.808ZM428.41 376.887C428.956 376.887 429.443 377.001 429.871 377.227C430.308 377.454 430.648 377.79 430.891 378.235C431.143 378.68 431.269 379.218 431.269 379.848V383.941H429.846V380.062C429.846 379.44 429.69 378.966 429.38 378.638C429.069 378.302 428.645 378.134 428.107 378.134C427.57 378.134 427.142 378.302 426.823 378.638C426.512 378.966 426.357 379.44 426.357 380.062V383.941H424.933V380.062C424.933 379.44 424.778 378.966 424.467 378.638C424.156 378.302 423.732 378.134 423.195 378.134C422.657 378.134 422.229 378.302 421.91 378.638C421.599 378.966 421.444 379.44 421.444 380.062V383.941H420.008V377.001H421.444V377.794C421.679 377.509 421.977 377.286 422.338 377.127C422.699 376.967 423.086 376.887 423.497 376.887C424.051 376.887 424.547 377.005 424.984 377.24C425.42 377.475 425.756 377.815 425.991 378.26C426.201 377.84 426.529 377.509 426.974 377.265C427.419 377.013 427.898 376.887 428.41 376.887ZM437.805 382.783H440.765V383.941H436.369V375.187H437.805V382.783ZM441.487 380.44C441.487 379.743 441.63 379.125 441.915 378.588C442.209 378.05 442.604 377.635 443.099 377.341C443.603 377.038 444.158 376.887 444.762 376.887C445.308 376.887 445.783 376.997 446.186 377.215C446.597 377.425 446.925 377.689 447.168 378.008V377.001H448.617V383.941H447.168V382.908C446.925 383.236 446.593 383.509 446.173 383.727C445.753 383.946 445.274 384.055 444.737 384.055C444.141 384.055 443.595 383.904 443.099 383.601C442.604 383.291 442.209 382.862 441.915 382.316C441.63 381.762 441.487 381.137 441.487 380.44ZM447.168 380.465C447.168 379.986 447.067 379.57 446.866 379.218C446.673 378.865 446.417 378.596 446.097 378.412C445.778 378.227 445.434 378.134 445.065 378.134C444.695 378.134 444.351 378.227 444.032 378.412C443.712 378.588 443.452 378.852 443.251 379.205C443.057 379.549 442.961 379.961 442.961 380.44C442.961 380.918 443.057 381.338 443.251 381.699C443.452 382.06 443.712 382.337 444.032 382.531C444.359 382.715 444.703 382.808 445.065 382.808C445.434 382.808 445.778 382.715 446.097 382.531C446.417 382.346 446.673 382.077 446.866 381.724C447.067 381.363 447.168 380.943 447.168 380.465ZM451.939 378.034C452.182 377.698 452.514 377.425 452.934 377.215C453.362 376.997 453.837 376.887 454.357 376.887C454.97 376.887 455.525 377.034 456.02 377.328C456.516 377.622 456.906 378.042 457.192 378.588C457.477 379.125 457.62 379.743 457.62 380.44C457.62 381.137 457.477 381.762 457.192 382.316C456.906 382.862 456.511 383.291 456.008 383.601C455.512 383.904 454.962 384.055 454.357 384.055C453.82 384.055 453.341 383.95 452.921 383.74C452.51 383.53 452.182 383.261 451.939 382.934V383.941H450.503V374.62H451.939V378.034ZM456.159 380.44C456.159 379.961 456.058 379.549 455.856 379.205C455.663 378.852 455.403 378.588 455.075 378.412C454.756 378.227 454.412 378.134 454.043 378.134C453.681 378.134 453.337 378.227 453.01 378.412C452.69 378.596 452.43 378.865 452.229 379.218C452.035 379.57 451.939 379.986 451.939 380.465C451.939 380.943 452.035 381.363 452.229 381.724C452.43 382.077 452.69 382.346 453.01 382.531C453.337 382.715 453.681 382.808 454.043 382.808C454.412 382.808 454.756 382.715 455.075 382.531C455.403 382.337 455.663 382.06 455.856 381.699C456.058 381.338 456.159 380.918 456.159 380.44ZM465.401 380.301C465.401 380.561 465.384 380.796 465.351 381.006H460.048C460.09 381.561 460.295 382.006 460.665 382.342C461.034 382.678 461.488 382.846 462.025 382.846C462.798 382.846 463.344 382.522 463.663 381.876H465.212C465.002 382.514 464.62 383.039 464.066 383.45C463.52 383.853 462.84 384.055 462.025 384.055C461.362 384.055 460.766 383.908 460.237 383.614C459.716 383.312 459.305 382.892 459.002 382.354C458.708 381.808 458.561 381.179 458.561 380.465C458.561 379.751 458.704 379.125 458.99 378.588C459.284 378.042 459.691 377.622 460.211 377.328C460.741 377.034 461.345 376.887 462.025 376.887C462.68 376.887 463.264 377.03 463.776 377.316C464.289 377.601 464.687 378.004 464.973 378.525C465.259 379.037 465.401 379.629 465.401 380.301ZM463.902 379.848C463.894 379.318 463.705 378.894 463.335 378.575C462.966 378.256 462.508 378.097 461.962 378.097C461.467 378.097 461.043 378.256 460.69 378.575C460.337 378.886 460.128 379.31 460.06 379.848H463.902ZM468.25 374.62V383.941H466.814V374.62H468.25Z"
            fill="white" />
    </g>
    <defs>
        <filter id="filter0_d_9126_33810" x="2.40299" y="61.499" width="217.313" height="222.937"
            filterUnits="userSpaceOnUse" color-interpolation-filters="sRGB">
            <feFlood flood-opacity="0" result="BackgroundImageFix" />
            <feColorMatrix in="SourceAlpha" type="matrix"
                values="0 0 0 0 0 0 0 0 0 0 0 0 0 0 0 0 0 0 127 0" result="hardAlpha" />
            <feMorphology radius="9.02078" operator="erode" in="SourceAlpha"
                result="effect1_dropShadow_9126_33810" />
            <feOffset dy="27.0623" />
            <feGaussianBlur stdDeviation="18.0416" />
            <feColorMatrix type="matrix"
                values="0 0 0 0 0.0627451 0 0 0 0 0.0941176 0 0 0 0 0.156863 0 0 0 0.08 0" />
            <feBlend mode="normal" in2="BackgroundImageFix" result="effect1_dropShadow_9126_33810" />
            <feBlend mode="normal" in="SourceGraphic" in2="effect1_dropShadow_9126_33810"
                result="shape" />
        </filter>
        <filter id="filter1_d_9126_33810" x="176.822" y="27" width="197.357" height="197.357"
            filterUnits="userSpaceOnUse" color-interpolation-filters="sRGB">
            <feFlood flood-opacity="0" result="BackgroundImageFix" />
            <feColorMatrix in="SourceAlpha" type="matrix"
                values="0 0 0 0 0 0 0 0 0 0 0 0 0 0 0 0 0 0 127 0" result="hardAlpha" />
            <feMorphology radius="8.39275" operator="erode" in="SourceAlpha"
                result="effect1_dropShadow_9126_33810" />
            <feOffset dy="25.1783" />
            <feGaussianBlur stdDeviation="16.7855" />
            <feColorMatrix type="matrix"
                values="0 0 0 0 0.0627451 0 0 0 0 0.0941176 0 0 0 0 0.156863 0 0 0 0.08 0" />
            <feBlend mode="normal" in2="BackgroundImageFix" result="effect1_dropShadow_9126_33810" />
            <feBlend mode="normal" in="SourceGraphic" in2="effect1_dropShadow_9126_33810"
                result="shape" />
        </filter>
        <filter id="filter2_d_9126_33810" x="334.803" y="123.24" width="187.394" height="187.393"
            filterUnits="userSpaceOnUse" color-interpolation-filters="sRGB">
            <feFlood flood-opacity="0" result="BackgroundImageFix" />
            <feColorMatrix in="SourceAlpha" type="matrix"
                values="0 0 0 0 0 0 0 0 0 0 0 0 0 0 0 0 0 0 127 0" result="hardAlpha" />
            <feMorphology radius="7.47926" operator="erode" in="SourceAlpha"
                result="effect1_dropShadow_9126_33810" />
            <feOffset dy="22.4378" />
            <feGaussianBlur stdDeviation="14.9585" />
            <feColorMatrix type="matrix"
                values="0 0 0 0 0.0627451 0 0 0 0 0.0941176 0 0 0 0 0.156863 0 0 0 0.08 0" />
            <feBlend mode="normal" in2="BackgroundImageFix" result="effect1_dropShadow_9126_33810" />
            <feBlend mode="normal" in="SourceGraphic" in2="effect1_dropShadow_9126_33810"
                result="shape" />
        </filter>
        <filter id="filter3_d_9126_33810" x="-1.65483" y="237.286" width="225.883" height="225.883"
            filterUnits="userSpaceOnUse" color-interpolation-filters="sRGB">
            <feFlood flood-opacity="0" result="BackgroundImageFix" />
            <feColorMatrix in="SourceAlpha" type="matrix"
                values="0 0 0 0 0 0 0 0 0 0 0 0 0 0 0 0 0 0 127 0" result="hardAlpha" />
            <feMorphology radius="8.9393" operator="erode" in="SourceAlpha"
                result="effect1_dropShadow_9126_33810" />
            <feOffset dy="26.8179" />
            <feGaussianBlur stdDeviation="17.8786" />
            <feColorMatrix type="matrix"
                values="0 0 0 0 0.0627451 0 0 0 0 0.0941176 0 0 0 0 0.156863 0 0 0 0.08 0" />
            <feBlend mode="normal" in2="BackgroundImageFix" result="effect1_dropShadow_9126_33810" />
            <feBlend mode="normal" in="SourceGraphic" in2="effect1_dropShadow_9126_33810"
                result="shape" />
        </filter>
        <filter id="filter4_d_9126_33810" x="177.166" y="187" width="194.655" height="194.655"
            filterUnits="userSpaceOnUse" color-interpolation-filters="sRGB">
            <feFlood flood-opacity="0" result="BackgroundImageFix" />
            <feColorMatrix in="SourceAlpha" type="matrix"
                values="0 0 0 0 0 0 0 0 0 0 0 0 0 0 0 0 0 0 127 0" result="hardAlpha" />
            <feMorphology radius="8.27787" operator="erode" in="SourceAlpha"
                result="effect1_dropShadow_9126_33810" />
            <feOffset dy="24.8336" />
            <feGaussianBlur stdDeviation="16.5557" />
            <feColorMatrix type="matrix"
                values="0 0 0 0 0.0627451 0 0 0 0 0.0941176 0 0 0 0 0.156863 0 0 0 0.08 0" />
            <feBlend mode="normal" in2="BackgroundImageFix" result="effect1_dropShadow_9126_33810" />
            <feBlend mode="normal" in="SourceGraphic" in2="effect1_dropShadow_9126_33810"
                result="shape" />
        </filter>
        <filter id="filter5_d_9126_33810" x="181.464" y="339.232" width="186.071" height="186.071"
            filterUnits="userSpaceOnUse" color-interpolation-filters="sRGB">
            <feFlood flood-opacity="0" result="BackgroundImageFix" />
            <feColorMatrix in="SourceAlpha" type="matrix"
                values="0 0 0 0 0 0 0 0 0 0 0 0 0 0 0 0 0 0 127 0" result="hardAlpha" />
            <feMorphology radius="7.59344" operator="erode" in="SourceAlpha"
                result="effect1_dropShadow_9126_33810" />
            <feOffset dy="22.7803" />
            <feGaussianBlur stdDeviation="15.1869" />
            <feColorMatrix type="matrix"
                values="0 0 0 0 0.0627451 0 0 0 0 0.0941176 0 0 0 0 0.156863 0 0 0 0.08 0" />
            <feBlend mode="normal" in2="BackgroundImageFix" result="effect1_dropShadow_9126_33810" />
            <feBlend mode="normal" in="SourceGraphic" in2="effect1_dropShadow_9126_33810"
                result="shape" />
        </filter>
        <filter id="filter6_d_9126_33810" x="337.582" y="278" width="175.718" height="175.718"
            filterUnits="userSpaceOnUse" color-interpolation-filters="sRGB">
            <feFlood flood-opacity="0" result="BackgroundImageFix" />
            <feColorMatrix in="SourceAlpha" type="matrix"
                values="0 0 0 0 0 0 0 0 0 0 0 0 0 0 0 0 0 0 127 0" result="hardAlpha" />
            <feMorphology radius="7.47256" operator="erode" in="SourceAlpha"
                result="effect1_dropShadow_9126_33810" />
            <feOffset dy="22.4177" />
            <feGaussianBlur stdDeviation="14.9451" />
            <feColorMatrix type="matrix"
                values="0 0 0 0 0.0627451 0 0 0 0 0.0941176 0 0 0 0 0.156863 0 0 0 0.08 0" />
            <feBlend mode="normal" in2="BackgroundImageFix" result="effect1_dropShadow_9126_33810" />
            <feBlend mode="normal" in="SourceGraphic" in2="effect1_dropShadow_9126_33810"
                result="shape" />
        </filter>
        <clipPath id="clip0_9126_33810">
            <rect width="64" height="64" fill="white"
                transform="translate(400.667 145.92) rotate(4.9431)" />
        </clipPath>
        <clipPath id="clip1_9126_33810">
            <rect width="64" height="64" fill="white"
                transform="translate(73.8828 279.704) rotate(-7.10553)" />
        </clipPath>
    </defs>
</svg>
    