<svg width="550" height="479" viewBox="0 0 550 479" fill="none" xmlns="http://www.w3.org/2000/svg">
    <g filter="url(#filter0_dd_9079_2186)">
        <rect x="31.687" y="24.414" width="276.043" height="248.438" rx="16.5626" fill="white" />
        <rect x="32.5409" y="25.2679" width="274.335" height="246.73" rx="15.7086" stroke="#DBDBDB"
            stroke-width="1.70783" />
        <path
            d="M115.658 216.863L115.961 153.197L116.195 153.156L112.864 150.908L108.613 152.924L108.308 216.828L115.658 216.863Z"
            fill="#C9C9C9" />
        <path fill-rule="evenodd" clip-rule="evenodd"
            d="M164.293 216.994L171.643 217.029L172.188 102.569L172.189 102.331L164.839 102.296L164.293 216.994Z"
            fill="#C9C9C9" />
        <path
            d="M164.293 216.994L115.658 216.863L108.308 216.828L93.9606 216.76C90.6405 216.744 87.9366 219.629 87.9195 223.204C87.9025 226.778 90.5788 229.69 93.8989 229.705L244.742 230.424C248.062 230.44 250.766 227.554 250.783 223.979C250.8 220.405 248.124 217.494 244.803 217.478L171.643 217.029L164.293 216.994Z"
            fill="#6B6B6B" />
        <path d="M218.467 143.357L218.017 217.35L225.366 217.385L225.817 143.392L218.467 143.357Z"
            fill="#C9C9C9" />
        <path
            d="M130.75 135.724C130.708 144.502 124.324 151.766 115.961 153.197C114.951 153.37 113.912 153.458 112.852 153.453C111.39 153.446 109.97 153.263 108.613 152.924C100.831 150.985 95.0833 143.931 95.1233 135.554C95.1701 125.716 103.183 117.779 113.021 117.826C122.859 117.873 130.796 125.886 130.75 135.724Z"
            fill="#6B6B6B" />
        <path
            d="M186.976 85.0956C186.934 93.8733 180.551 101.138 172.188 102.569C171.178 102.741 170.139 102.829 169.078 102.824C167.617 102.817 166.197 102.634 164.839 102.296C157.058 100.356 151.31 93.3024 151.35 84.9259C151.397 75.0879 159.41 67.1506 169.248 67.1975C179.086 67.2443 187.023 75.2576 186.976 85.0956Z"
            fill="#6B6B6B" />
        <path
            d="M240.222 126.066C240.175 135.904 232.162 143.842 222.324 143.795C212.486 143.748 204.549 135.735 204.596 125.897C204.642 116.059 212.656 108.121 222.494 108.168C232.331 108.215 240.269 116.228 240.222 126.066Z"
            fill="#6B6B6B" />
    </g>
    <g filter="url(#filter1_dd_9079_2186)">
        <rect x="257.412" y="182.722" width="263.221" height="236.899" rx="15.7932" fill="white" />
        <rect x="258.226" y="183.536" width="261.592" height="235.27" rx="14.979" stroke="#DBDBDB"
            stroke-width="1.62851" />
        <path
            d="M324.332 249.167L385.037 249.891L385.075 250.113L387.241 246.953L385.347 242.886L324.415 242.159L324.332 249.167Z"
            fill="#C9C9C9" />
        <path fill-rule="evenodd" clip-rule="evenodd"
            d="M323.875 295.541L323.791 302.549L432.929 303.85L433.155 303.852L433.239 296.845L323.875 295.541Z"
            fill="#C9C9C9" />
        <path
            d="M323.875 295.541L324.332 249.167L324.415 242.159L324.578 228.479C324.616 225.313 321.883 222.715 318.475 222.675C315.066 222.634 312.272 225.166 312.234 228.332L310.52 372.16C310.483 375.325 313.216 377.923 316.624 377.964C320.033 378.004 322.826 375.472 322.864 372.307L323.791 302.549L323.875 295.541Z"
            fill="#6B6B6B" />
        <path d="M393.72 347.7L323.169 346.766L323.085 353.773L393.636 354.708L393.72 347.7Z"
            fill="#C9C9C9" />
        <path
            d="M401.597 264.111C393.227 264.011 386.344 257.875 385.037 249.891C384.879 248.926 384.802 247.935 384.814 246.924C384.831 245.53 385.015 244.178 385.347 242.886C387.25 235.479 394.015 230.046 402.002 230.141C411.382 230.253 418.896 237.948 418.784 247.329C418.672 256.709 410.977 264.223 401.597 264.111Z"
            fill="#6B6B6B" />
        <path
            d="M449.489 318.07C441.119 317.97 434.236 311.834 432.929 303.85C432.771 302.885 432.694 301.894 432.706 300.883C432.723 299.489 432.907 298.137 433.239 296.845C435.142 289.438 441.907 284.005 449.894 284.1C459.274 284.212 466.788 291.907 466.676 301.288C466.564 310.668 458.869 318.182 449.489 318.07Z"
            fill="#6B6B6B" />
        <path
            d="M410.059 368.562C400.678 368.45 393.165 360.755 393.276 351.374C393.388 341.994 401.083 334.48 410.464 334.592C419.844 334.704 427.358 342.399 427.246 351.779C427.134 361.16 419.439 368.673 410.059 368.562Z"
            fill="#6B6B6B" />
    </g>
    <g filter="url(#filter2_d_9079_2186)">
        <rect x="341.912" y="112.586" width="146.269" height="48.5098" rx="9.25373" fill="#53A6FF" />
        <rect x="343.069" y="113.743" width="143.955" height="46.1963" rx="8.09702" stroke="#9ACBFF"
            stroke-width="2.31343" />
        <path
            d="M377.61 129.9V143.84H375.79V137.52H368.69V143.84H366.87V129.9H368.69V136.02H375.79V129.9H377.61ZM385.497 144.02C384.471 144.02 383.537 143.786 382.697 143.32C381.871 142.853 381.217 142.193 380.737 141.34C380.271 140.473 380.037 139.473 380.037 138.34C380.037 137.22 380.277 136.233 380.757 135.38C381.251 134.513 381.917 133.853 382.757 133.4C383.597 132.933 384.537 132.7 385.577 132.7C386.617 132.7 387.557 132.933 388.397 133.4C389.237 133.853 389.897 134.506 390.377 135.36C390.871 136.213 391.117 137.206 391.117 138.34C391.117 139.473 390.864 140.473 390.357 141.34C389.864 142.193 389.191 142.853 388.337 143.32C387.484 143.786 386.537 144.02 385.497 144.02ZM385.497 142.42C386.151 142.42 386.764 142.266 387.337 141.96C387.911 141.653 388.371 141.193 388.717 140.58C389.077 139.966 389.257 139.22 389.257 138.34C389.257 137.46 389.084 136.713 388.737 136.1C388.391 135.486 387.937 135.033 387.377 134.74C386.817 134.433 386.211 134.28 385.557 134.28C384.891 134.28 384.277 134.433 383.717 134.74C383.171 135.033 382.731 135.486 382.397 136.1C382.064 136.713 381.897 137.46 381.897 138.34C381.897 139.233 382.057 139.986 382.377 140.6C382.711 141.213 383.151 141.673 383.697 141.98C384.244 142.273 384.844 142.42 385.497 142.42ZM395.33 134.66C395.65 134.033 396.104 133.546 396.69 133.2C397.29 132.853 398.017 132.68 398.87 132.68V134.56H398.39C396.35 134.56 395.33 135.666 395.33 137.88V143.84H393.51V132.88H395.33V134.66ZM401.911 131.1C401.564 131.1 401.271 130.98 401.031 130.74C400.791 130.5 400.671 130.206 400.671 129.86C400.671 129.513 400.791 129.22 401.031 128.98C401.271 128.74 401.564 128.62 401.911 128.62C402.244 128.62 402.524 128.74 402.751 128.98C402.991 129.22 403.111 129.513 403.111 129.86C403.111 130.206 402.991 130.5 402.751 130.74C402.524 130.98 402.244 131.1 401.911 131.1ZM402.791 132.88V143.84H400.971V132.88H402.791ZM407.253 142.34H412.633V143.84H405.173V142.34L410.493 134.36H405.213V132.88H412.593V134.36L407.253 142.34ZM419.775 144.02C418.748 144.02 417.815 143.786 416.975 143.32C416.148 142.853 415.495 142.193 415.015 141.34C414.548 140.473 414.315 139.473 414.315 138.34C414.315 137.22 414.555 136.233 415.035 135.38C415.528 134.513 416.195 133.853 417.035 133.4C417.875 132.933 418.815 132.7 419.855 132.7C420.895 132.7 421.835 132.933 422.675 133.4C423.515 133.853 424.175 134.506 424.655 135.36C425.148 136.213 425.395 137.206 425.395 138.34C425.395 139.473 425.141 140.473 424.635 141.34C424.141 142.193 423.468 142.853 422.615 143.32C421.761 143.786 420.815 144.02 419.775 144.02ZM419.775 142.42C420.428 142.42 421.041 142.266 421.615 141.96C422.188 141.653 422.648 141.193 422.995 140.58C423.355 139.966 423.535 139.22 423.535 138.34C423.535 137.46 423.361 136.713 423.015 136.1C422.668 135.486 422.215 135.033 421.655 134.74C421.095 134.433 420.488 134.28 419.835 134.28C419.168 134.28 418.555 134.433 417.995 134.74C417.448 135.033 417.008 135.486 416.675 136.1C416.341 136.713 416.175 137.46 416.175 138.34C416.175 139.233 416.335 139.986 416.655 140.6C416.988 141.213 417.428 141.673 417.975 141.98C418.521 142.273 419.121 142.42 419.775 142.42ZM433.128 132.68C434.461 132.68 435.541 133.086 436.368 133.9C437.194 134.7 437.608 135.86 437.608 137.38V143.84H435.808V137.64C435.808 136.546 435.534 135.713 434.988 135.14C434.441 134.553 433.694 134.26 432.748 134.26C431.788 134.26 431.021 134.56 430.448 135.16C429.888 135.76 429.608 136.633 429.608 137.78V143.84H427.788V132.88H429.608V134.44C429.968 133.88 430.454 133.446 431.068 133.14C431.694 132.833 432.381 132.68 433.128 132.68ZM442.801 134.38V140.84C442.801 141.373 442.914 141.753 443.141 141.98C443.367 142.193 443.761 142.3 444.321 142.3H445.661V143.84H444.021C443.007 143.84 442.247 143.606 441.741 143.14C441.234 142.673 440.981 141.906 440.981 140.84V134.38H439.561V132.88H440.981V130.12H442.801V132.88H445.661V134.38H442.801ZM447.186 138.32C447.186 137.2 447.412 136.22 447.866 135.38C448.319 134.526 448.939 133.866 449.726 133.4C450.526 132.933 451.412 132.7 452.386 132.7C453.346 132.7 454.179 132.906 454.886 133.32C455.592 133.733 456.119 134.253 456.466 134.88V132.88H458.306V143.84H456.466V141.8C456.106 142.44 455.566 142.973 454.846 143.4C454.139 143.813 453.312 144.02 452.366 144.02C451.392 144.02 450.512 143.78 449.726 143.3C448.939 142.82 448.319 142.146 447.866 141.28C447.412 140.413 447.186 139.426 447.186 138.32ZM456.466 138.34C456.466 137.513 456.299 136.793 455.966 136.18C455.632 135.566 455.179 135.1 454.606 134.78C454.046 134.446 453.426 134.28 452.746 134.28C452.066 134.28 451.446 134.44 450.886 134.76C450.326 135.08 449.879 135.546 449.546 136.16C449.212 136.773 449.046 137.493 449.046 138.32C449.046 139.16 449.212 139.893 449.546 140.52C449.879 141.133 450.326 141.606 450.886 141.94C451.446 142.26 452.066 142.42 452.746 142.42C453.426 142.42 454.046 142.26 454.606 141.94C455.179 141.606 455.632 141.133 455.966 140.52C456.299 139.893 456.466 139.166 456.466 138.34ZM463.201 129.04V143.84H461.381V129.04H463.201Z"
            fill="white" />
        <path
            d="M411.775 174.016L398.572 160.813C397.271 159.511 395.505 158.78 393.665 158.78H436.429C434.588 158.78 432.823 159.511 431.522 160.813L418.319 174.016C416.512 175.823 413.582 175.823 411.775 174.016Z"
            fill="#53A6FF" />
        <path
            d="M391.912 159.937H392.706C395.16 159.937 397.514 160.912 399.249 162.647L410.139 173.537C412.849 176.247 417.244 176.247 419.954 173.537L430.844 162.647C432.579 160.912 434.933 159.937 437.387 159.937H438.181"
            stroke="#9ACBFF" stroke-width="2.31343" stroke-linecap="round" />
    </g>
    <g filter="url(#filter3_d_9079_2186)">
        <rect x="76.9429" y="294.635" width="122" height="48.5098" rx="9.25373" fill="#53A6FF" />
        <rect x="78.0996" y="295.792" width="119.687" height="46.1963" rx="8.09702" stroke="#9ACBFF"
            stroke-width="2.31343" />
        <path
            d="M141.215 281.715L154.418 294.918C155.719 296.219 157.484 296.951 159.325 296.951L116.561 296.951C118.401 296.951 120.167 296.219 121.468 294.918L134.671 281.715C136.478 279.908 139.408 279.908 141.215 281.715Z"
            fill="#53A6FF" />
        <path
            d="M161.078 295.794L160.284 295.794C157.83 295.794 155.476 294.819 153.74 293.084L142.851 282.194C140.14 279.484 135.746 279.484 133.036 282.194L122.146 293.084C120.411 294.819 118.057 295.794 115.603 295.794L114.809 295.794"
            stroke="#9ACBFF" stroke-width="2.31343" stroke-linecap="round" />
        <path
            d="M112.917 311.951L107.657 325.891H105.557L100.297 311.951H102.237L106.617 323.971L110.997 311.951H112.917ZM124.913 319.991C124.913 320.338 124.893 320.704 124.853 321.091H116.093C116.159 322.171 116.526 323.018 117.193 323.631C117.873 324.231 118.693 324.531 119.653 324.531C120.439 324.531 121.093 324.351 121.613 323.991C122.146 323.618 122.519 323.124 122.733 322.511H124.693C124.399 323.564 123.813 324.424 122.933 325.091C122.053 325.744 120.959 326.071 119.653 326.071C118.613 326.071 117.679 325.838 116.853 325.371C116.039 324.904 115.399 324.244 114.933 323.391C114.466 322.524 114.233 321.524 114.233 320.391C114.233 319.258 114.459 318.264 114.913 317.411C115.366 316.558 115.999 315.904 116.813 315.451C117.639 314.984 118.586 314.751 119.653 314.751C120.693 314.751 121.613 314.978 122.413 315.431C123.213 315.884 123.826 316.511 124.253 317.311C124.693 318.098 124.913 318.991 124.913 319.991ZM123.033 319.611C123.033 318.918 122.879 318.324 122.573 317.831C122.266 317.324 121.846 316.944 121.313 316.691C120.793 316.424 120.213 316.291 119.573 316.291C118.653 316.291 117.866 316.584 117.213 317.171C116.573 317.758 116.206 318.571 116.113 319.611H123.033ZM129.135 316.711C129.455 316.084 129.908 315.598 130.495 315.251C131.095 314.904 131.822 314.731 132.675 314.731V316.611H132.195C130.155 316.611 129.135 317.718 129.135 319.931V325.891H127.315V314.931H129.135V316.711ZM136.996 316.431V322.891C136.996 323.424 137.109 323.804 137.336 324.031C137.563 324.244 137.956 324.351 138.516 324.351H139.856V325.891H138.216C137.203 325.891 136.443 325.658 135.936 325.191C135.429 324.724 135.176 323.958 135.176 322.891V316.431H133.756V314.931H135.176V312.171H136.996V314.931H139.856V316.431H136.996ZM143.001 313.151C142.654 313.151 142.361 313.031 142.121 312.791C141.881 312.551 141.761 312.258 141.761 311.911C141.761 311.564 141.881 311.271 142.121 311.031C142.361 310.791 142.654 310.671 143.001 310.671C143.334 310.671 143.614 310.791 143.841 311.031C144.081 311.271 144.201 311.564 144.201 311.911C144.201 312.258 144.081 312.551 143.841 312.791C143.614 313.031 143.334 313.151 143.001 313.151ZM143.881 314.931V325.891H142.061V314.931H143.881ZM146.303 320.391C146.303 319.258 146.53 318.271 146.983 317.431C147.436 316.578 148.063 315.918 148.863 315.451C149.676 314.984 150.603 314.751 151.643 314.751C152.99 314.751 154.096 315.078 154.963 315.731C155.843 316.384 156.423 317.291 156.703 318.451H154.743C154.556 317.784 154.19 317.258 153.643 316.871C153.11 316.484 152.443 316.291 151.643 316.291C150.603 316.291 149.763 316.651 149.123 317.371C148.483 318.078 148.163 319.084 148.163 320.391C148.163 321.711 148.483 322.731 149.123 323.451C149.763 324.171 150.603 324.531 151.643 324.531C152.443 324.531 153.11 324.344 153.643 323.971C154.176 323.598 154.543 323.064 154.743 322.371H156.703C156.41 323.491 155.823 324.391 154.943 325.071C154.063 325.738 152.963 326.071 151.643 326.071C150.603 326.071 149.676 325.838 148.863 325.371C148.063 324.904 147.436 324.244 146.983 323.391C146.53 322.538 146.303 321.538 146.303 320.391ZM158.451 320.371C158.451 319.251 158.678 318.271 159.131 317.431C159.585 316.578 160.205 315.918 160.991 315.451C161.791 314.984 162.678 314.751 163.651 314.751C164.611 314.751 165.445 314.958 166.151 315.371C166.858 315.784 167.385 316.304 167.731 316.931V314.931H169.571V325.891H167.731V323.851C167.371 324.491 166.831 325.024 166.111 325.451C165.405 325.864 164.578 326.071 163.631 326.071C162.658 326.071 161.778 325.831 160.991 325.351C160.205 324.871 159.585 324.198 159.131 323.331C158.678 322.464 158.451 321.478 158.451 320.371ZM167.731 320.391C167.731 319.564 167.565 318.844 167.231 318.231C166.898 317.618 166.445 317.151 165.871 316.831C165.311 316.498 164.691 316.331 164.011 316.331C163.331 316.331 162.711 316.491 162.151 316.811C161.591 317.131 161.145 317.598 160.811 318.211C160.478 318.824 160.311 319.544 160.311 320.371C160.311 321.211 160.478 321.944 160.811 322.571C161.145 323.184 161.591 323.658 162.151 323.991C162.711 324.311 163.331 324.471 164.011 324.471C164.691 324.471 165.311 324.311 165.871 323.991C166.445 323.658 166.898 323.184 167.231 322.571C167.565 321.944 167.731 321.218 167.731 320.391ZM174.467 311.091V325.891H172.647V311.091H174.467Z"
            fill="white" />
    </g>
    <defs>
        <filter id="filter0_dd_9079_2186" x="0.954527" y="24.414" width="337.507" height="309.903"
            filterUnits="userSpaceOnUse" color-interpolation-filters="sRGB">
            <feFlood flood-opacity="0" result="BackgroundImageFix" />
            <feColorMatrix in="SourceAlpha" type="matrix"
                values="0 0 0 0 0 0 0 0 0 0 0 0 0 0 0 0 0 0 127 0" result="hardAlpha" />
            <feMorphology radius="10.2442" operator="erode" in="SourceAlpha"
                result="effect1_dropShadow_9079_2186" />
            <feOffset dy="30.7325" />
            <feGaussianBlur stdDeviation="20.4883" />
            <feColorMatrix type="matrix"
                values="0 0 0 0 0.0627451 0 0 0 0 0.0941176 0 0 0 0 0.156863 0 0 0 0.08 0" />
            <feBlend mode="normal" in2="BackgroundImageFix" result="effect1_dropShadow_9079_2186" />
            <feColorMatrix in="SourceAlpha" type="matrix"
                values="0 0 0 0 0 0 0 0 0 0 0 0 0 0 0 0 0 0 127 0" result="hardAlpha" />
            <feMorphology radius="10.2442" operator="erode" in="SourceAlpha"
                result="effect2_dropShadow_9079_2186" />
            <feOffset dy="30.7325" />
            <feGaussianBlur stdDeviation="20.4883" />
            <feColorMatrix type="matrix"
                values="0 0 0 0 0.0627451 0 0 0 0 0.0941176 0 0 0 0 0.156863 0 0 0 0.08 0" />
            <feBlend mode="normal" in2="effect1_dropShadow_9079_2186"
                result="effect2_dropShadow_9079_2186" />
            <feBlend mode="normal" in="SourceGraphic" in2="effect2_dropShadow_9079_2186"
                result="shape" />
        </filter>
        <filter id="filter1_dd_9079_2186" x="228.107" y="182.722" width="321.831" height="295.509"
            filterUnits="userSpaceOnUse" color-interpolation-filters="sRGB">
            <feFlood flood-opacity="0" result="BackgroundImageFix" />
            <feColorMatrix in="SourceAlpha" type="matrix"
                values="0 0 0 0 0 0 0 0 0 0 0 0 0 0 0 0 0 0 127 0" result="hardAlpha" />
            <feMorphology radius="9.76833" operator="erode" in="SourceAlpha"
                result="effect1_dropShadow_9079_2186" />
            <feOffset dy="29.305" />
            <feGaussianBlur stdDeviation="19.5367" />
            <feColorMatrix type="matrix"
                values="0 0 0 0 0.0627451 0 0 0 0 0.0941176 0 0 0 0 0.156863 0 0 0 0.08 0" />
            <feBlend mode="normal" in2="BackgroundImageFix" result="effect1_dropShadow_9079_2186" />
            <feColorMatrix in="SourceAlpha" type="matrix"
                values="0 0 0 0 0 0 0 0 0 0 0 0 0 0 0 0 0 0 127 0" result="hardAlpha" />
            <feMorphology radius="9.76833" operator="erode" in="SourceAlpha"
                result="effect2_dropShadow_9079_2186" />
            <feOffset dy="29.305" />
            <feGaussianBlur stdDeviation="19.5367" />
            <feColorMatrix type="matrix"
                values="0 0 0 0 0.0627451 0 0 0 0 0.0941176 0 0 0 0 0.156863 0 0 0 0.08 0" />
            <feBlend mode="normal" in2="effect1_dropShadow_9079_2186"
                result="effect2_dropShadow_9079_2186" />
            <feBlend mode="normal" in="SourceGraphic" in2="effect2_dropShadow_9079_2186"
                result="shape" />
        </filter>
        <filter id="filter2_d_9079_2186" x="330.912" y="101.586" width="176.269" height="97.0149"
            filterUnits="userSpaceOnUse" color-interpolation-filters="sRGB">
            <feFlood flood-opacity="0" result="BackgroundImageFix" />
            <feColorMatrix in="SourceAlpha" type="matrix"
                values="0 0 0 0 0 0 0 0 0 0 0 0 0 0 0 0 0 0 127 0" result="hardAlpha" />
            <feOffset dx="4" dy="4" />
            <feGaussianBlur stdDeviation="7.5" />
            <feColorMatrix type="matrix"
                values="0 0 0 0 0.603922 0 0 0 0 0.796078 0 0 0 0 1 0 0 0 0.1 0" />
            <feBlend mode="normal" in2="BackgroundImageFix" result="effect1_dropShadow_9079_2186" />
            <feBlend mode="normal" in="SourceGraphic" in2="effect1_dropShadow_9079_2186"
                result="shape" />
        </filter>
        <filter id="filter3_d_9079_2186" x="65.3086" y="265.13" width="153.269" height="97.0149"
            filterUnits="userSpaceOnUse" color-interpolation-filters="sRGB">
            <feFlood flood-opacity="0" result="BackgroundImageFix" />
            <feColorMatrix in="SourceAlpha" type="matrix"
                values="0 0 0 0 0 0 0 0 0 0 0 0 0 0 0 0 0 0 127 0" result="hardAlpha" />
            <feOffset dx="4" dy="4" />
            <feGaussianBlur stdDeviation="7.5" />
            <feColorMatrix type="matrix"
                values="0 0 0 0 0.603922 0 0 0 0 0.796078 0 0 0 0 1 0 0 0 0.1 0" />
            <feBlend mode="normal" in2="BackgroundImageFix" result="effect1_dropShadow_9079_2186" />
            <feBlend mode="normal" in="SourceGraphic" in2="effect1_dropShadow_9079_2186"
                result="shape" />
        </filter>
    </defs>
</svg>
    