<svg width="598" height="476" viewBox="0 0 598 476" fill="none" xmlns="http://www.w3.org/2000/svg">
    <g filter="url(#filter0_dd_9079_2909)">
        <rect x="31" width="536" height="414" rx="24" fill="white" />
        <path
            d="M85.7534 113.056C85.2307 113.056 84.7507 112.933 84.3134 112.688C83.876 112.443 83.5294 112.104 83.2734 111.672C83.0174 111.235 82.8894 110.741 82.8894 110.192C82.8894 109.648 83.0174 109.16 83.2734 108.728C83.5294 108.291 83.876 107.949 84.3134 107.704C84.7507 107.459 85.2307 107.336 85.7534 107.336C86.2814 107.336 86.7614 107.459 87.1934 107.704C87.6307 107.949 87.9747 108.291 88.2254 108.728C88.4814 109.16 88.6094 109.648 88.6094 110.192C88.6094 110.741 88.4814 111.235 88.2254 111.672C87.9747 112.104 87.6307 112.443 87.1934 112.688C86.756 112.933 86.276 113.056 85.7534 113.056ZM85.7534 112.056C86.0894 112.056 86.3854 111.981 86.6414 111.832C86.8974 111.677 87.0974 111.459 87.2414 111.176C87.3854 110.893 87.4574 110.565 87.4574 110.192C87.4574 109.819 87.3854 109.493 87.2414 109.216C87.0974 108.933 86.8974 108.717 86.6414 108.568C86.3854 108.419 86.0894 108.344 85.7534 108.344C85.4174 108.344 85.1187 108.419 84.8574 108.568C84.6014 108.717 84.4014 108.933 84.2574 109.216C84.1134 109.493 84.0414 109.819 84.0414 110.192C84.0414 110.565 84.1134 110.893 84.2574 111.176C84.4014 111.459 84.6014 111.677 84.8574 111.832C85.1187 111.981 85.4174 112.056 85.7534 112.056ZM89.1546 110.784C89.1546 110.325 89.248 109.925 89.4346 109.584C89.6213 109.237 89.88 108.971 90.2106 108.784C90.5413 108.592 90.92 108.496 91.3466 108.496C91.896 108.496 92.3493 108.635 92.7066 108.912C93.0693 109.184 93.312 109.568 93.4346 110.064H92.2266C92.1626 109.872 92.0533 109.723 91.8986 109.616C91.7493 109.504 91.5626 109.448 91.3386 109.448C91.0186 109.448 90.7653 109.565 90.5786 109.8C90.392 110.029 90.2986 110.357 90.2986 110.784C90.2986 111.205 90.392 111.533 90.5786 111.768C90.7653 111.997 91.0186 112.112 91.3386 112.112C91.792 112.112 92.088 111.909 92.2266 111.504H93.4346C93.312 111.984 93.0693 112.365 92.7066 112.648C92.344 112.931 91.8906 113.072 91.3466 113.072C90.92 113.072 90.5413 112.979 90.2106 112.792C89.88 112.6 89.6213 112.333 89.4346 111.992C89.248 111.645 89.1546 111.243 89.1546 110.784ZM98.3751 110.688C98.3751 110.848 98.3645 110.992 98.3431 111.12H95.1031C95.1298 111.44 95.2418 111.691 95.4391 111.872C95.6365 112.053 95.8791 112.144 96.1671 112.144C96.5831 112.144 96.8791 111.965 97.0551 111.608H98.2631C98.1351 112.035 97.8898 112.387 97.5271 112.664C97.1645 112.936 96.7191 113.072 96.1911 113.072C95.7645 113.072 95.3805 112.979 95.0391 112.792C94.7031 112.6 94.4391 112.331 94.2471 111.984C94.0605 111.637 93.9671 111.237 93.9671 110.784C93.9671 110.325 94.0605 109.923 94.2471 109.576C94.4338 109.229 94.6951 108.963 95.0311 108.776C95.3671 108.589 95.7538 108.496 96.1911 108.496C96.6125 108.496 96.9885 108.587 97.3191 108.768C97.6551 108.949 97.9138 109.208 98.0951 109.544C98.2818 109.875 98.3751 110.256 98.3751 110.688ZM97.2151 110.368C97.2098 110.08 97.1058 109.851 96.9031 109.68C96.7005 109.504 96.4525 109.416 96.1591 109.416C95.8818 109.416 95.6471 109.501 95.4551 109.672C95.2685 109.837 95.1538 110.069 95.1111 110.368H97.2151ZM98.9046 110.768C98.9046 110.32 98.9926 109.923 99.1686 109.576C99.35 109.229 99.5926 108.963 99.8966 108.776C100.206 108.589 100.55 108.496 100.929 108.496C101.259 108.496 101.547 108.563 101.793 108.696C102.043 108.829 102.243 108.997 102.393 109.2V108.568H103.521V113H102.393V112.352C102.249 112.56 102.049 112.733 101.793 112.872C101.542 113.005 101.251 113.072 100.921 113.072C100.547 113.072 100.206 112.976 99.8966 112.784C99.5926 112.592 99.35 112.323 99.1686 111.976C98.9926 111.624 98.9046 111.221 98.9046 110.768ZM102.393 110.784C102.393 110.512 102.339 110.28 102.233 110.088C102.126 109.891 101.982 109.741 101.801 109.64C101.619 109.533 101.425 109.48 101.217 109.48C101.009 109.48 100.817 109.531 100.641 109.632C100.465 109.733 100.321 109.883 100.209 110.08C100.102 110.272 100.049 110.501 100.049 110.768C100.049 111.035 100.102 111.269 100.209 111.472C100.321 111.669 100.465 111.821 100.641 111.928C100.822 112.035 101.014 112.088 101.217 112.088C101.425 112.088 101.619 112.037 101.801 111.936C101.982 111.829 102.126 111.68 102.233 111.488C102.339 111.291 102.393 111.056 102.393 110.784ZM107.071 108.504C107.599 108.504 108.025 108.672 108.351 109.008C108.676 109.339 108.839 109.803 108.839 110.4V113H107.719V110.552C107.719 110.2 107.631 109.931 107.455 109.744C107.279 109.552 107.039 109.456 106.735 109.456C106.425 109.456 106.18 109.552 105.999 109.744C105.823 109.931 105.735 110.2 105.735 110.552V113H104.615V108.568H105.735V109.12C105.884 108.928 106.073 108.779 106.303 108.672C106.537 108.56 106.793 108.504 107.071 108.504ZM110.472 108.04C110.274 108.04 110.109 107.979 109.976 107.856C109.848 107.728 109.784 107.571 109.784 107.384C109.784 107.197 109.848 107.043 109.976 106.92C110.109 106.792 110.274 106.728 110.472 106.728C110.669 106.728 110.832 106.792 110.96 106.92C111.093 107.043 111.16 107.197 111.16 107.384C111.16 107.571 111.093 107.728 110.96 107.856C110.832 107.979 110.669 108.04 110.472 108.04ZM111.024 108.568V113H109.904V108.568H111.024ZM111.842 110.768C111.842 110.32 111.93 109.923 112.106 109.576C112.287 109.229 112.53 108.963 112.834 108.776C113.143 108.589 113.487 108.496 113.866 108.496C114.197 108.496 114.485 108.563 114.73 108.696C114.981 108.829 115.181 108.997 115.33 109.2V108.568H116.458V113H115.33V112.352C115.186 112.56 114.986 112.733 114.73 112.872C114.479 113.005 114.189 113.072 113.858 113.072C113.485 113.072 113.143 112.976 112.834 112.784C112.53 112.592 112.287 112.323 112.106 111.976C111.93 111.624 111.842 111.221 111.842 110.768ZM115.33 110.784C115.33 110.512 115.277 110.28 115.17 110.088C115.063 109.891 114.919 109.741 114.738 109.64C114.557 109.533 114.362 109.48 114.154 109.48C113.946 109.48 113.754 109.531 113.578 109.632C113.402 109.733 113.258 109.883 113.146 110.08C113.039 110.272 112.986 110.501 112.986 110.768C112.986 111.035 113.039 111.269 113.146 111.472C113.258 111.669 113.402 111.821 113.578 111.928C113.759 112.035 113.951 112.088 114.154 112.088C114.362 112.088 114.557 112.037 114.738 111.936C114.919 111.829 115.063 111.68 115.17 111.488C115.277 111.291 115.33 111.056 115.33 110.784Z"
            fill="#505050" />
        <path
            d="M63.0702 158H61.9502L59.4142 154.168V158H58.2942V152.408H59.4142L61.9502 156.248V152.408H63.0702V158ZM66.145 158.072C65.7183 158.072 65.3343 157.979 64.993 157.792C64.6517 157.6 64.3823 157.331 64.185 156.984C63.993 156.637 63.897 156.237 63.897 155.784C63.897 155.331 63.9957 154.931 64.193 154.584C64.3957 154.237 64.6703 153.971 65.017 153.784C65.3637 153.592 65.7503 153.496 66.177 153.496C66.6037 153.496 66.9903 153.592 67.337 153.784C67.6837 153.971 67.9557 154.237 68.153 154.584C68.3557 154.931 68.457 155.331 68.457 155.784C68.457 156.237 68.353 156.637 68.145 156.984C67.9423 157.331 67.665 157.6 67.313 157.792C66.9663 157.979 66.577 158.072 66.145 158.072ZM66.145 157.096C66.3477 157.096 66.537 157.048 66.713 156.952C66.8943 156.851 67.0383 156.701 67.145 156.504C67.2517 156.307 67.305 156.067 67.305 155.784C67.305 155.363 67.193 155.04 66.969 154.816C66.7503 154.587 66.481 154.472 66.161 154.472C65.841 154.472 65.5717 154.587 65.353 154.816C65.1397 155.04 65.033 155.363 65.033 155.784C65.033 156.205 65.137 156.531 65.345 156.76C65.5583 156.984 65.825 157.096 66.145 157.096ZM70.3986 154.256C70.5426 154.021 70.7292 153.837 70.9586 153.704C71.1932 153.571 71.4599 153.504 71.7586 153.504V154.68H71.4626C71.1106 154.68 70.8439 154.763 70.6626 154.928C70.4866 155.093 70.3986 155.381 70.3986 155.792V158H69.2786V153.568H70.3986V154.256ZM73.8169 154.488V156.632C73.8169 156.781 73.8516 156.891 73.9209 156.96C73.9956 157.024 74.1183 157.056 74.2889 157.056H74.8089V158H74.1049C73.1609 158 72.6889 157.541 72.6889 156.624V154.488H72.1609V153.568H72.6889V152.472H73.8169V153.568H74.8089V154.488H73.8169ZM78.1105 153.504C78.4465 153.504 78.7452 153.579 79.0065 153.728C79.2678 153.872 79.4705 154.088 79.6145 154.376C79.7638 154.659 79.8385 155 79.8385 155.4V158H78.7185V155.552C78.7185 155.2 78.6305 154.931 78.4545 154.744C78.2785 154.552 78.0385 154.456 77.7345 154.456C77.4252 154.456 77.1798 154.552 76.9985 154.744C76.8225 154.931 76.7345 155.2 76.7345 155.552V158H75.6145V152.08H76.7345V154.12C76.8785 153.928 77.0705 153.779 77.3105 153.672C77.5505 153.56 77.8172 153.504 78.1105 153.504ZM86.2338 156.936H84.0098L83.6418 158H82.4658L84.4738 152.408H85.7778L87.7858 158H86.6018L86.2338 156.936ZM85.9298 156.04L85.1218 153.704L84.3138 156.04H85.9298ZM94.0404 153.504C94.5844 153.504 95.0217 153.672 95.3524 154.008C95.6884 154.339 95.8564 154.803 95.8564 155.4V158H94.7364V155.552C94.7364 155.205 94.6484 154.941 94.4724 154.76C94.2964 154.573 94.0564 154.48 93.7524 154.48C93.4484 154.48 93.2057 154.573 93.0244 154.76C92.8484 154.941 92.7604 155.205 92.7604 155.552V158H91.6404V155.552C91.6404 155.205 91.5524 154.941 91.3764 154.76C91.2004 154.573 90.9604 154.48 90.6564 154.48C90.347 154.48 90.1017 154.573 89.9204 154.76C89.7444 154.941 89.6564 155.205 89.6564 155.552V158H88.5364V153.568H89.6564V154.104C89.8004 153.917 89.9844 153.771 90.2084 153.664C90.4377 153.557 90.6884 153.504 90.9604 153.504C91.307 153.504 91.6164 153.579 91.8884 153.728C92.1604 153.872 92.371 154.08 92.5204 154.352C92.6644 154.096 92.8724 153.891 93.1444 153.736C93.4217 153.581 93.7204 153.504 94.0404 153.504ZM101.039 155.688C101.039 155.848 101.029 155.992 101.007 156.12H97.7672C97.7939 156.44 97.9059 156.691 98.1032 156.872C98.3005 157.053 98.5432 157.144 98.8312 157.144C99.2472 157.144 99.5432 156.965 99.7192 156.608H100.927C100.799 157.035 100.554 157.387 100.191 157.664C99.8285 157.936 99.3832 158.072 98.8552 158.072C98.4285 158.072 98.0445 157.979 97.7032 157.792C97.3672 157.6 97.1032 157.331 96.9112 156.984C96.7245 156.637 96.6312 156.237 96.6312 155.784C96.6312 155.325 96.7245 154.923 96.9112 154.576C97.0979 154.229 97.3592 153.963 97.6952 153.776C98.0312 153.589 98.4179 153.496 98.8552 153.496C99.2765 153.496 99.6525 153.587 99.9832 153.768C100.319 153.949 100.578 154.208 100.759 154.544C100.946 154.875 101.039 155.256 101.039 155.688ZM99.8792 155.368C99.8739 155.08 99.7699 154.851 99.5672 154.68C99.3645 154.504 99.1165 154.416 98.8232 154.416C98.5459 154.416 98.3112 154.501 98.1192 154.672C97.9325 154.837 97.8179 155.069 97.7752 155.368H99.8792ZM102.977 154.256C103.121 154.021 103.307 153.837 103.537 153.704C103.771 153.571 104.038 153.504 104.337 153.504V154.68H104.041C103.689 154.68 103.422 154.763 103.241 154.928C103.065 155.093 102.977 155.381 102.977 155.792V158H101.857V153.568H102.977V154.256ZM105.659 153.04C105.462 153.04 105.296 152.979 105.163 152.856C105.035 152.728 104.971 152.571 104.971 152.384C104.971 152.197 105.035 152.043 105.163 151.92C105.296 151.792 105.462 151.728 105.659 151.728C105.856 151.728 106.019 151.792 106.147 151.92C106.28 152.043 106.347 152.197 106.347 152.384C106.347 152.571 106.28 152.728 106.147 152.856C106.019 152.979 105.856 153.04 105.659 153.04ZM106.211 153.568V158H105.091V153.568H106.211ZM107.03 155.784C107.03 155.325 107.123 154.925 107.31 154.584C107.496 154.237 107.755 153.971 108.086 153.784C108.416 153.592 108.795 153.496 109.222 153.496C109.771 153.496 110.224 153.635 110.582 153.912C110.944 154.184 111.187 154.568 111.31 155.064H110.102C110.038 154.872 109.928 154.723 109.774 154.616C109.624 154.504 109.438 154.448 109.214 154.448C108.894 154.448 108.64 154.565 108.454 154.8C108.267 155.029 108.174 155.357 108.174 155.784C108.174 156.205 108.267 156.533 108.454 156.768C108.64 156.997 108.894 157.112 109.214 157.112C109.667 157.112 109.963 156.909 110.102 156.504H111.31C111.187 156.984 110.944 157.365 110.582 157.648C110.219 157.931 109.766 158.072 109.222 158.072C108.795 158.072 108.416 157.979 108.086 157.792C107.755 157.6 107.496 157.333 107.31 156.992C107.123 156.645 107.03 156.243 107.03 155.784ZM111.842 155.768C111.842 155.32 111.93 154.923 112.106 154.576C112.287 154.229 112.53 153.963 112.834 153.776C113.143 153.589 113.487 153.496 113.866 153.496C114.197 153.496 114.485 153.563 114.73 153.696C114.981 153.829 115.181 153.997 115.33 154.2V153.568H116.458V158H115.33V157.352C115.186 157.56 114.986 157.733 114.73 157.872C114.479 158.005 114.189 158.072 113.858 158.072C113.485 158.072 113.143 157.976 112.834 157.784C112.53 157.592 112.287 157.323 112.106 156.976C111.93 156.624 111.842 156.221 111.842 155.768ZM115.33 155.784C115.33 155.512 115.277 155.28 115.17 155.088C115.063 154.891 114.919 154.741 114.738 154.64C114.557 154.533 114.362 154.48 114.154 154.48C113.946 154.48 113.754 154.531 113.578 154.632C113.402 154.733 113.258 154.883 113.146 155.08C113.039 155.272 112.986 155.501 112.986 155.768C112.986 156.035 113.039 156.269 113.146 156.472C113.258 156.669 113.402 156.821 113.578 156.928C113.759 157.035 113.951 157.088 114.154 157.088C114.362 157.088 114.557 157.037 114.738 156.936C114.919 156.829 115.063 156.68 115.17 156.488C115.277 156.291 115.33 156.056 115.33 155.784Z"
            fill="#505050" />
        <path
            d="M90.4298 198.32V199.72H92.3098V200.608H90.4298V202.088H92.5498V203H89.3098V197.408H92.5498V198.32H90.4298ZM97.7516 198.568V203H96.6236V202.44C96.4796 202.632 96.2903 202.784 96.0556 202.896C95.8263 203.003 95.5756 203.056 95.3036 203.056C94.957 203.056 94.6503 202.984 94.3836 202.84C94.117 202.691 93.9063 202.475 93.7516 202.192C93.6023 201.904 93.5276 201.563 93.5276 201.168V198.568H94.6476V201.008C94.6476 201.36 94.7356 201.632 94.9116 201.824C95.0876 202.011 95.3276 202.104 95.6316 202.104C95.941 202.104 96.1836 202.011 96.3596 201.824C96.5356 201.632 96.6236 201.36 96.6236 201.008V198.568H97.7516ZM99.9767 199.256C100.121 199.021 100.307 198.837 100.537 198.704C100.771 198.571 101.038 198.504 101.337 198.504V199.68H101.041C100.689 199.68 100.422 199.763 100.241 199.928C100.065 200.093 99.9767 200.381 99.9767 200.792V203H98.8567V198.568H99.9767V199.256ZM104.059 203.072C103.632 203.072 103.248 202.979 102.907 202.792C102.566 202.6 102.296 202.331 102.099 201.984C101.907 201.637 101.811 201.237 101.811 200.784C101.811 200.331 101.91 199.931 102.107 199.584C102.31 199.237 102.584 198.971 102.931 198.784C103.278 198.592 103.664 198.496 104.091 198.496C104.518 198.496 104.904 198.592 105.251 198.784C105.598 198.971 105.87 199.237 106.067 199.584C106.27 199.931 106.371 200.331 106.371 200.784C106.371 201.237 106.267 201.637 106.059 201.984C105.856 202.331 105.579 202.6 105.227 202.792C104.88 202.979 104.491 203.072 104.059 203.072ZM104.059 202.096C104.262 202.096 104.451 202.048 104.627 201.952C104.808 201.851 104.952 201.701 105.059 201.504C105.166 201.307 105.219 201.067 105.219 200.784C105.219 200.363 105.107 200.04 104.883 199.816C104.664 199.587 104.395 199.472 104.075 199.472C103.755 199.472 103.486 199.587 103.267 199.816C103.054 200.04 102.947 200.363 102.947 200.784C102.947 201.205 103.051 201.531 103.259 201.76C103.472 201.984 103.739 202.096 104.059 202.096ZM108.313 199.208C108.457 199.005 108.654 198.837 108.905 198.704C109.161 198.565 109.451 198.496 109.777 198.496C110.155 198.496 110.497 198.589 110.801 198.776C111.11 198.963 111.353 199.229 111.529 199.576C111.71 199.917 111.801 200.315 111.801 200.768C111.801 201.221 111.71 201.624 111.529 201.976C111.353 202.323 111.11 202.592 110.801 202.784C110.497 202.976 110.155 203.072 109.777 203.072C109.451 203.072 109.163 203.005 108.913 202.872C108.667 202.739 108.467 202.571 108.313 202.368V205.112H107.193V198.568H108.313V199.208ZM110.657 200.768C110.657 200.501 110.601 200.272 110.489 200.08C110.382 199.883 110.238 199.733 110.057 199.632C109.881 199.531 109.689 199.48 109.481 199.48C109.278 199.48 109.086 199.533 108.905 199.64C108.729 199.741 108.585 199.891 108.473 200.088C108.366 200.285 108.313 200.517 108.313 200.784C108.313 201.051 108.366 201.283 108.473 201.48C108.585 201.677 108.729 201.829 108.905 201.936C109.086 202.037 109.278 202.088 109.481 202.088C109.689 202.088 109.881 202.035 110.057 201.928C110.238 201.821 110.382 201.669 110.489 201.472C110.601 201.275 110.657 201.04 110.657 200.768ZM116.735 200.688C116.735 200.848 116.724 200.992 116.703 201.12H113.463C113.489 201.44 113.601 201.691 113.799 201.872C113.996 202.053 114.239 202.144 114.527 202.144C114.943 202.144 115.239 201.965 115.415 201.608H116.623C116.495 202.035 116.249 202.387 115.887 202.664C115.524 202.936 115.079 203.072 114.551 203.072C114.124 203.072 113.74 202.979 113.399 202.792C113.063 202.6 112.799 202.331 112.607 201.984C112.42 201.637 112.326 201.237 112.326 200.784C112.326 200.325 112.42 199.923 112.607 199.576C112.793 199.229 113.055 198.963 113.391 198.776C113.727 198.589 114.113 198.496 114.551 198.496C114.972 198.496 115.348 198.587 115.679 198.768C116.015 198.949 116.273 199.208 116.455 199.544C116.641 199.875 116.735 200.256 116.735 200.688ZM115.575 200.368C115.569 200.08 115.465 199.851 115.263 199.68C115.06 199.504 114.812 199.416 114.519 199.416C114.241 199.416 114.007 199.501 113.815 199.672C113.628 199.837 113.513 200.069 113.471 200.368H115.575Z"
            fill="#505050" />
        <path
            d="M103.242 246.936H101.018L100.65 248H99.4736L101.482 242.408H102.786L104.794 248H103.61L103.242 246.936ZM102.938 246.04L102.13 243.704L101.322 246.04H102.938ZM107.24 248.072C106.878 248.072 106.552 248.008 106.264 247.88C105.976 247.747 105.747 247.568 105.576 247.344C105.411 247.12 105.32 246.872 105.304 246.6H106.432C106.454 246.771 106.536 246.912 106.68 247.024C106.83 247.136 107.014 247.192 107.232 247.192C107.446 247.192 107.611 247.149 107.728 247.064C107.851 246.979 107.912 246.869 107.912 246.736C107.912 246.592 107.838 246.485 107.688 246.416C107.544 246.341 107.312 246.261 106.992 246.176C106.662 246.096 106.39 246.013 106.176 245.928C105.968 245.843 105.787 245.712 105.632 245.536C105.483 245.36 105.408 245.123 105.408 244.824C105.408 244.579 105.478 244.355 105.616 244.152C105.76 243.949 105.963 243.789 106.224 243.672C106.491 243.555 106.803 243.496 107.16 243.496C107.688 243.496 108.11 243.629 108.424 243.896C108.739 244.157 108.912 244.512 108.944 244.96H107.872C107.856 244.784 107.782 244.645 107.648 244.544C107.52 244.437 107.347 244.384 107.128 244.384C106.926 244.384 106.768 244.421 106.656 244.496C106.55 244.571 106.496 244.675 106.496 244.808C106.496 244.957 106.571 245.072 106.72 245.152C106.87 245.227 107.102 245.304 107.416 245.384C107.736 245.464 108 245.547 108.208 245.632C108.416 245.717 108.595 245.851 108.744 246.032C108.899 246.208 108.979 246.443 108.984 246.736C108.984 246.992 108.912 247.221 108.768 247.424C108.63 247.627 108.427 247.787 108.16 247.904C107.899 248.016 107.592 248.072 107.24 248.072ZM110.472 243.04C110.274 243.04 110.109 242.979 109.976 242.856C109.848 242.728 109.784 242.571 109.784 242.384C109.784 242.197 109.848 242.043 109.976 241.92C110.109 241.792 110.274 241.728 110.472 241.728C110.669 241.728 110.832 241.792 110.96 241.92C111.093 242.043 111.16 242.197 111.16 242.384C111.16 242.571 111.093 242.728 110.96 242.856C110.832 242.979 110.669 243.04 110.472 243.04ZM111.024 243.568V248H109.904V243.568H111.024ZM111.842 245.768C111.842 245.32 111.93 244.923 112.106 244.576C112.287 244.229 112.53 243.963 112.834 243.776C113.143 243.589 113.487 243.496 113.866 243.496C114.197 243.496 114.485 243.563 114.73 243.696C114.981 243.829 115.181 243.997 115.33 244.2V243.568H116.458V248H115.33V247.352C115.186 247.56 114.986 247.733 114.73 247.872C114.479 248.005 114.189 248.072 113.858 248.072C113.485 248.072 113.143 247.976 112.834 247.784C112.53 247.592 112.287 247.323 112.106 246.976C111.93 246.624 111.842 246.221 111.842 245.768ZM115.33 245.784C115.33 245.512 115.277 245.28 115.17 245.088C115.063 244.891 114.919 244.741 114.738 244.64C114.557 244.533 114.362 244.48 114.154 244.48C113.946 244.48 113.754 244.531 113.578 244.632C113.402 244.733 113.258 244.883 113.146 245.08C113.039 245.272 112.986 245.501 112.986 245.768C112.986 246.035 113.039 246.269 113.146 246.472C113.258 246.669 113.402 246.821 113.578 246.928C113.759 247.035 113.951 247.088 114.154 247.088C114.362 247.088 114.557 247.037 114.738 246.936C114.919 246.829 115.063 246.68 115.17 246.488C115.277 246.291 115.33 246.056 115.33 245.784Z"
            fill="#505050" />
        <path
            d="M96.7963 291.936H94.5723L94.2043 293H93.0283L95.0363 287.408H96.3403L98.3483 293H97.1643L96.7963 291.936ZM96.4923 291.04L95.6843 288.704L94.8763 291.04H96.4923ZM101.131 289.488H100.355V293H99.2189V289.488H98.7149V288.568H99.2189V288.344C99.2189 287.8 99.3735 287.4 99.6829 287.144C99.9922 286.888 100.459 286.768 101.083 286.784V287.728C100.811 287.723 100.622 287.768 100.515 287.864C100.408 287.96 100.355 288.133 100.355 288.384V288.568H101.131V289.488ZM102.977 289.256C103.121 289.021 103.307 288.837 103.537 288.704C103.771 288.571 104.038 288.504 104.337 288.504V289.68H104.041C103.689 289.68 103.422 289.763 103.241 289.928C103.065 290.093 102.977 290.381 102.977 290.792V293H101.857V288.568H102.977V289.256ZM105.659 288.04C105.462 288.04 105.296 287.979 105.163 287.856C105.035 287.728 104.971 287.571 104.971 287.384C104.971 287.197 105.035 287.043 105.163 286.92C105.296 286.792 105.462 286.728 105.659 286.728C105.856 286.728 106.019 286.792 106.147 286.92C106.28 287.043 106.347 287.197 106.347 287.384C106.347 287.571 106.28 287.728 106.147 287.856C106.019 287.979 105.856 288.04 105.659 288.04ZM106.211 288.568V293H105.091V288.568H106.211ZM107.03 290.784C107.03 290.325 107.123 289.925 107.31 289.584C107.496 289.237 107.755 288.971 108.086 288.784C108.416 288.592 108.795 288.496 109.222 288.496C109.771 288.496 110.224 288.635 110.582 288.912C110.944 289.184 111.187 289.568 111.31 290.064H110.102C110.038 289.872 109.928 289.723 109.774 289.616C109.624 289.504 109.438 289.448 109.214 289.448C108.894 289.448 108.64 289.565 108.454 289.8C108.267 290.029 108.174 290.357 108.174 290.784C108.174 291.205 108.267 291.533 108.454 291.768C108.64 291.997 108.894 292.112 109.214 292.112C109.667 292.112 109.963 291.909 110.102 291.504H111.31C111.187 291.984 110.944 292.365 110.582 292.648C110.219 292.931 109.766 293.072 109.222 293.072C108.795 293.072 108.416 292.979 108.086 292.792C107.755 292.6 107.496 292.333 107.31 291.992C107.123 291.645 107.03 291.243 107.03 290.784ZM111.842 290.768C111.842 290.32 111.93 289.923 112.106 289.576C112.287 289.229 112.53 288.963 112.834 288.776C113.143 288.589 113.487 288.496 113.866 288.496C114.197 288.496 114.485 288.563 114.73 288.696C114.981 288.829 115.181 288.997 115.33 289.2V288.568H116.458V293H115.33V292.352C115.186 292.56 114.986 292.733 114.73 292.872C114.479 293.005 114.189 293.072 113.858 293.072C113.485 293.072 113.143 292.976 112.834 292.784C112.53 292.592 112.287 292.323 112.106 291.976C111.93 291.624 111.842 291.221 111.842 290.768ZM115.33 290.784C115.33 290.512 115.277 290.28 115.17 290.088C115.063 289.891 114.919 289.741 114.738 289.64C114.557 289.533 114.362 289.48 114.154 289.48C113.946 289.48 113.754 289.531 113.578 289.632C113.402 289.733 113.258 289.883 113.146 290.08C113.039 290.272 112.986 290.501 112.986 290.768C112.986 291.035 113.039 291.269 113.146 291.472C113.258 291.669 113.402 291.821 113.578 291.928C113.759 292.035 113.951 292.088 114.154 292.088C114.362 292.088 114.557 292.037 114.738 291.936C114.919 291.829 115.063 291.68 115.17 291.488C115.277 291.291 115.33 291.056 115.33 290.784Z"
            fill="#505050" />
        <path d="M138 88V314" stroke="#8C8C8C" stroke-width="2" />
        <path d="M321 314H138" stroke="#3E3E3E" stroke-width="2" />
        <path d="M192 245H138" stroke="#2959A2" stroke-width="6" />
        <path d="M229 110H138" stroke="#2959A2" stroke-width="6" />
        <circle cx="143" cy="290" r="9" fill="#6BA276" />
        <circle cx="197" cy="245" r="9" fill="#66B08E" />
        <circle cx="145" cy="200" r="9" fill="#64CBC1" />
        <circle cx="143" cy="155" r="9" fill="#66D9DA" />
        <circle cx="232" cy="110" r="9" fill="#6BE7F3" />
        <path
            d="M250.317 107.75V106.71H252.397V114H251.247V107.75H250.317ZM254.573 114.07C254.367 114.07 254.193 114 254.053 113.86C253.913 113.72 253.843 113.547 253.843 113.34C253.843 113.133 253.913 112.96 254.053 112.82C254.193 112.68 254.367 112.61 254.573 112.61C254.773 112.61 254.943 112.68 255.083 112.82C255.223 112.96 255.293 113.133 255.293 113.34C255.293 113.547 255.223 113.72 255.083 113.86C254.943 114 254.773 114.07 254.573 114.07ZM256.375 110.26C256.375 109.107 256.569 108.207 256.955 107.56C257.349 106.907 258.022 106.58 258.975 106.58C259.929 106.58 260.599 106.907 260.985 107.56C261.379 108.207 261.575 109.107 261.575 110.26C261.575 111.427 261.379 112.34 260.985 113C260.599 113.653 259.929 113.98 258.975 113.98C258.022 113.98 257.349 113.653 256.955 113C256.569 112.34 256.375 111.427 256.375 110.26ZM260.455 110.26C260.455 109.72 260.419 109.263 260.345 108.89C260.279 108.517 260.139 108.213 259.925 107.98C259.712 107.74 259.395 107.62 258.975 107.62C258.555 107.62 258.239 107.74 258.025 107.98C257.812 108.213 257.669 108.517 257.595 108.89C257.529 109.263 257.495 109.72 257.495 110.26C257.495 110.82 257.529 111.29 257.595 111.67C257.662 112.05 257.802 112.357 258.015 112.59C258.235 112.823 258.555 112.94 258.975 112.94C259.395 112.94 259.712 112.823 259.925 112.59C260.145 112.357 260.289 112.05 260.355 111.67C260.422 111.29 260.455 110.82 260.455 110.26ZM270.252 107.05V114H269.112V109.24L266.992 114H266.202L264.072 109.24V114H262.932V107.05H264.162L266.602 112.5L269.032 107.05H270.252Z"
            fill="#505050" />
        <path
            d="M213.547 245.26C213.547 244.107 213.741 243.207 214.127 242.56C214.521 241.907 215.194 241.58 216.147 241.58C217.101 241.58 217.771 241.907 218.157 242.56C218.551 243.207 218.747 244.107 218.747 245.26C218.747 246.427 218.551 247.34 218.157 248C217.771 248.653 217.101 248.98 216.147 248.98C215.194 248.98 214.521 248.653 214.127 248C213.741 247.34 213.547 246.427 213.547 245.26ZM217.627 245.26C217.627 244.72 217.591 244.263 217.517 243.89C217.451 243.517 217.311 243.213 217.097 242.98C216.884 242.74 216.567 242.62 216.147 242.62C215.727 242.62 215.411 242.74 215.197 242.98C214.984 243.213 214.841 243.517 214.767 243.89C214.701 244.263 214.667 244.72 214.667 245.26C214.667 245.82 214.701 246.29 214.767 246.67C214.834 247.05 214.974 247.357 215.187 247.59C215.407 247.823 215.727 247.94 216.147 247.94C216.567 247.94 216.884 247.823 217.097 247.59C217.317 247.357 217.461 247.05 217.527 246.67C217.594 246.29 217.627 245.82 217.627 245.26ZM220.564 249.07C220.357 249.07 220.184 249 220.044 248.86C219.904 248.72 219.834 248.547 219.834 248.34C219.834 248.133 219.904 247.96 220.044 247.82C220.184 247.68 220.357 247.61 220.564 247.61C220.764 247.61 220.934 247.68 221.074 247.82C221.214 247.96 221.284 248.133 221.284 248.34C221.284 248.547 221.214 248.72 221.074 248.86C220.934 249 220.764 249.07 220.564 249.07ZM226.286 243.4C226.212 243.093 226.079 242.863 225.886 242.71C225.692 242.557 225.422 242.48 225.076 242.48C224.549 242.48 224.156 242.683 223.896 243.09C223.636 243.49 223.499 244.157 223.486 245.09C223.659 244.797 223.912 244.57 224.246 244.41C224.579 244.25 224.939 244.17 225.326 244.17C225.766 244.17 226.152 244.267 226.486 244.46C226.826 244.647 227.089 244.92 227.276 245.28C227.469 245.64 227.566 246.07 227.566 246.57C227.566 247.037 227.472 247.453 227.286 247.82C227.106 248.187 226.836 248.477 226.476 248.69C226.116 248.897 225.682 249 225.176 249C224.489 249 223.949 248.85 223.556 248.55C223.169 248.243 222.896 247.813 222.736 247.26C222.582 246.707 222.506 246.017 222.506 245.19C222.506 242.75 223.366 241.53 225.086 241.53C225.752 241.53 226.276 241.71 226.656 242.07C227.042 242.43 227.269 242.873 227.336 243.4H226.286ZM225.076 245.13C224.669 245.13 224.322 245.253 224.036 245.5C223.756 245.74 223.616 246.09 223.616 246.55C223.616 247.01 223.746 247.377 224.006 247.65C224.272 247.917 224.642 248.05 225.116 248.05C225.536 248.05 225.866 247.92 226.106 247.66C226.352 247.4 226.476 247.053 226.476 246.62C226.476 246.167 226.356 245.807 226.116 245.54C225.882 245.267 225.536 245.13 225.076 245.13ZM236.252 242.05V249H235.112V244.24L232.992 249H232.202L230.072 244.24V249H228.932V242.05H230.162L232.602 247.5L235.032 242.05H236.252Z"
            fill="#505050" />
        <path
            d="M161.125 200.19C160.432 199.843 160.085 199.297 160.085 198.55C160.085 198.19 160.175 197.86 160.355 197.56C160.535 197.26 160.805 197.023 161.165 196.85C161.525 196.67 161.965 196.58 162.485 196.58C162.998 196.58 163.435 196.67 163.795 196.85C164.162 197.023 164.435 197.26 164.615 197.56C164.795 197.86 164.885 198.19 164.885 198.55C164.885 198.923 164.788 199.253 164.595 199.54C164.408 199.82 164.158 200.037 163.845 200.19C164.225 200.33 164.525 200.56 164.745 200.88C164.965 201.193 165.075 201.563 165.075 201.99C165.075 202.423 164.965 202.807 164.745 203.14C164.525 203.473 164.218 203.73 163.825 203.91C163.432 204.09 162.985 204.18 162.485 204.18C161.985 204.18 161.538 204.09 161.145 203.91C160.758 203.73 160.455 203.473 160.235 203.14C160.015 202.807 159.905 202.423 159.905 201.99C159.905 201.557 160.015 201.183 160.235 200.87C160.455 200.557 160.752 200.33 161.125 200.19ZM163.795 198.69C163.795 198.317 163.678 198.03 163.445 197.83C163.212 197.63 162.892 197.53 162.485 197.53C162.085 197.53 161.768 197.63 161.535 197.83C161.302 198.03 161.185 198.32 161.185 198.7C161.185 199.033 161.305 199.307 161.545 199.52C161.792 199.727 162.105 199.83 162.485 199.83C162.865 199.83 163.178 199.723 163.425 199.51C163.672 199.297 163.795 199.023 163.795 198.69ZM162.485 200.69C162.045 200.69 161.685 200.8 161.405 201.02C161.132 201.233 160.995 201.543 160.995 201.95C160.995 202.33 161.128 202.64 161.395 202.88C161.662 203.113 162.025 203.23 162.485 203.23C162.938 203.23 163.295 203.11 163.555 202.87C163.822 202.63 163.955 202.323 163.955 201.95C163.955 201.55 163.818 201.24 163.545 201.02C163.278 200.8 162.925 200.69 162.485 200.69ZM170.252 204L167.562 200.89V204H166.422V197.05H167.562V200.22L170.262 197.05H171.692L168.672 200.53L171.742 204H170.252Z"
            fill="#505050" />
        <path
            d="M156.657 292.48V291.62L160.017 286.8H161.397V291.49H162.327V292.48H161.397V294H160.277V292.48H156.657ZM160.327 287.96L157.967 291.49H160.327V287.96ZM167.252 294L164.562 290.89V294H163.422V287.05H164.562V290.22L167.262 287.05H168.692L165.672 290.53L168.742 294H167.252Z"
            fill="#505050" />
        <path
            d="M161.776 153.4C161.703 153.093 161.569 152.863 161.376 152.71C161.183 152.557 160.913 152.48 160.566 152.48C160.039 152.48 159.646 152.683 159.386 153.09C159.126 153.49 158.989 154.157 158.976 155.09C159.149 154.797 159.403 154.57 159.736 154.41C160.069 154.25 160.429 154.17 160.816 154.17C161.256 154.17 161.643 154.267 161.976 154.46C162.316 154.647 162.579 154.92 162.766 155.28C162.959 155.64 163.056 156.07 163.056 156.57C163.056 157.037 162.963 157.453 162.776 157.82C162.596 158.187 162.326 158.477 161.966 158.69C161.606 158.897 161.173 159 160.666 159C159.979 159 159.439 158.85 159.046 158.55C158.659 158.243 158.386 157.813 158.226 157.26C158.073 156.707 157.996 156.017 157.996 155.19C157.996 152.75 158.856 151.53 160.576 151.53C161.243 151.53 161.766 151.71 162.146 152.07C162.533 152.43 162.759 152.873 162.826 153.4H161.776ZM160.566 155.13C160.159 155.13 159.813 155.253 159.526 155.5C159.246 155.74 159.106 156.09 159.106 156.55C159.106 157.01 159.236 157.377 159.496 157.65C159.763 157.917 160.133 158.05 160.606 158.05C161.026 158.05 161.356 157.92 161.596 157.66C161.843 157.4 161.966 157.053 161.966 156.62C161.966 156.167 161.846 155.807 161.606 155.54C161.373 155.267 161.026 155.13 160.566 155.13ZM168.252 159L165.562 155.89V159H164.422V152.05H165.562V155.22L168.262 152.05H169.692L166.672 155.53L169.742 159H168.252Z"
            fill="#505050" />
        <path d="M343 88V314" stroke="#8C8C8C" stroke-width="2" />
        <path d="M541 314H343" stroke="#3E3E3E" stroke-width="2" />
        <path d="M452 245H343" stroke="#2959A2" stroke-width="6" />
        <path d="M366 200H343" stroke="#2959A2" stroke-width="6" />
        <path d="M356 155H343" stroke="#2959A2" stroke-width="6" />
        <path d="M512 110L343 110" stroke="#2959A2" stroke-width="6" />
        <circle cx="353" cy="290" r="9" fill="#6BA276" />
        <circle cx="452" cy="245" r="9" fill="#66B08E" />
        <circle cx="365" cy="200" r="9" fill="#64CBC1" />
        <circle cx="357" cy="155" r="9" fill="#66D9DA" />
        <circle cx="512" cy="110" r="9" fill="#6BE7F3" />
        <path
            d="M531.128 107.75V106.71H533.208V114H532.058V107.75H531.128ZM535.384 114.07C535.177 114.07 535.004 114 534.864 113.86C534.724 113.72 534.654 113.547 534.654 113.34C534.654 113.133 534.724 112.96 534.864 112.82C535.004 112.68 535.177 112.61 535.384 112.61C535.584 112.61 535.754 112.68 535.894 112.82C536.034 112.96 536.104 113.133 536.104 113.34C536.104 113.547 536.034 113.72 535.894 113.86C535.754 114 535.584 114.07 535.384 114.07ZM541.806 107.59L539.026 114H537.876L540.686 107.71H536.986V106.74H541.806V107.59ZM550.252 107.05V114H549.112V109.24L546.992 114H546.202L544.072 109.24V114H542.932V107.05H544.162L546.602 112.5L549.032 107.05H550.252Z"
            fill="#505050" />
        <path
            d="M471.249 242.75V241.71H473.329V249H472.179V242.75H471.249ZM475.505 249.07C475.298 249.07 475.125 249 474.985 248.86C474.845 248.72 474.775 248.547 474.775 248.34C474.775 248.133 474.845 247.96 474.985 247.82C475.125 247.68 475.298 247.61 475.505 247.61C475.705 247.61 475.875 247.68 476.015 247.82C476.155 247.96 476.225 248.133 476.225 248.34C476.225 248.547 476.155 248.72 476.015 248.86C475.875 249 475.705 249.07 475.505 249.07ZM477.167 247.48V246.62L480.527 241.8H481.907V246.49H482.837V247.48H481.907V249H480.787V247.48H477.167ZM480.837 242.96L478.477 246.49H480.837V242.96ZM491.252 242.05V249H490.112V244.24L487.992 249H487.202L485.072 244.24V249H483.932V242.05H485.162L487.602 247.5L490.032 242.05H491.252Z"
            fill="#505050" />
        <path
            d="M382.738 200.19C382.045 199.843 381.698 199.297 381.698 198.55C381.698 198.19 381.788 197.86 381.968 197.56C382.148 197.26 382.418 197.023 382.778 196.85C383.138 196.67 383.578 196.58 384.098 196.58C384.612 196.58 385.048 196.67 385.408 196.85C385.775 197.023 386.048 197.26 386.228 197.56C386.408 197.86 386.498 198.19 386.498 198.55C386.498 198.923 386.402 199.253 386.208 199.54C386.022 199.82 385.772 200.037 385.458 200.19C385.838 200.33 386.138 200.56 386.358 200.88C386.578 201.193 386.688 201.563 386.688 201.99C386.688 202.423 386.578 202.807 386.358 203.14C386.138 203.473 385.832 203.73 385.438 203.91C385.045 204.09 384.598 204.18 384.098 204.18C383.598 204.18 383.152 204.09 382.758 203.91C382.372 203.73 382.068 203.473 381.848 203.14C381.628 202.807 381.518 202.423 381.518 201.99C381.518 201.557 381.628 201.183 381.848 200.87C382.068 200.557 382.365 200.33 382.738 200.19ZM385.408 198.69C385.408 198.317 385.292 198.03 385.058 197.83C384.825 197.63 384.505 197.53 384.098 197.53C383.698 197.53 383.382 197.63 383.148 197.83C382.915 198.03 382.798 198.32 382.798 198.7C382.798 199.033 382.918 199.307 383.158 199.52C383.405 199.727 383.718 199.83 384.098 199.83C384.478 199.83 384.792 199.723 385.038 199.51C385.285 199.297 385.408 199.023 385.408 198.69ZM384.098 200.69C383.658 200.69 383.298 200.8 383.018 201.02C382.745 201.233 382.608 201.543 382.608 201.95C382.608 202.33 382.742 202.64 383.008 202.88C383.275 203.113 383.638 203.23 384.098 203.23C384.552 203.23 384.908 203.11 385.168 202.87C385.435 202.63 385.568 202.323 385.568 201.95C385.568 201.55 385.432 201.24 385.158 201.02C384.892 200.8 384.538 200.69 384.098 200.69ZM392.585 197.69H389.235V199.68C389.375 199.493 389.582 199.337 389.855 199.21C390.135 199.083 390.432 199.02 390.745 199.02C391.305 199.02 391.758 199.14 392.105 199.38C392.458 199.62 392.708 199.923 392.855 200.29C393.008 200.657 393.085 201.043 393.085 201.45C393.085 201.943 392.988 202.383 392.795 202.77C392.608 203.15 392.325 203.45 391.945 203.67C391.572 203.89 391.112 204 390.565 204C389.838 204 389.255 203.82 388.815 203.46C388.375 203.1 388.112 202.623 388.025 202.03H389.135C389.208 202.343 389.372 202.593 389.625 202.78C389.878 202.96 390.195 203.05 390.575 203.05C391.048 203.05 391.402 202.907 391.635 202.62C391.875 202.333 391.995 201.953 391.995 201.48C391.995 201 391.875 200.633 391.635 200.38C391.395 200.12 391.042 199.99 390.575 199.99C390.248 199.99 389.972 200.073 389.745 200.24C389.525 200.4 389.365 200.62 389.265 200.9H388.185V196.69H392.585V197.69ZM398.252 204L395.562 200.89V204H394.422V197.05H395.562V200.22L398.262 197.05H399.692L396.672 200.53L399.742 204H398.252Z"
            fill="#505050" />
        <path
            d="M366.22 287.75V286.71H368.3V294H367.15V287.75H366.22ZM369.866 290.26C369.866 289.107 370.059 288.207 370.446 287.56C370.839 286.907 371.512 286.58 372.466 286.58C373.419 286.58 374.089 286.907 374.476 287.56C374.869 288.207 375.066 289.107 375.066 290.26C375.066 291.427 374.869 292.34 374.476 293C374.089 293.653 373.419 293.98 372.466 293.98C371.512 293.98 370.839 293.653 370.446 293C370.059 292.34 369.866 291.427 369.866 290.26ZM373.946 290.26C373.946 289.72 373.909 289.263 373.836 288.89C373.769 288.517 373.629 288.213 373.416 287.98C373.202 287.74 372.886 287.62 372.466 287.62C372.046 287.62 371.729 287.74 371.516 287.98C371.302 288.213 371.159 288.517 371.086 288.89C371.019 289.263 370.986 289.72 370.986 290.26C370.986 290.82 371.019 291.29 371.086 291.67C371.152 292.05 371.292 292.357 371.506 292.59C371.726 292.823 372.046 292.94 372.466 292.94C372.886 292.94 373.202 292.823 373.416 292.59C373.636 292.357 373.779 292.05 373.846 291.67C373.912 291.29 373.946 290.82 373.946 290.26ZM380.252 294L377.562 290.89V294H376.422V287.05H377.562V290.22L380.262 287.05H381.692L378.672 290.53L381.742 294H380.252Z"
            fill="#505050" />
        <path
            d="M375.656 157.45C376.296 156.897 376.799 156.443 377.166 156.09C377.539 155.73 377.849 155.357 378.096 154.97C378.342 154.583 378.466 154.197 378.466 153.81C378.466 153.41 378.369 153.097 378.176 152.87C377.989 152.643 377.692 152.53 377.286 152.53C376.892 152.53 376.586 152.657 376.366 152.91C376.152 153.157 376.039 153.49 376.026 153.91H374.926C374.946 153.15 375.172 152.57 375.606 152.17C376.046 151.763 376.602 151.56 377.276 151.56C378.002 151.56 378.569 151.76 378.976 152.16C379.389 152.56 379.596 153.093 379.596 153.76C379.596 154.24 379.472 154.703 379.226 155.15C378.986 155.59 378.696 155.987 378.356 156.34C378.022 156.687 377.596 157.09 377.076 157.55L376.626 157.95H379.796V158.9H374.936V158.07L375.656 157.45ZM380.657 157.48V156.62L384.017 151.8H385.397V156.49H386.327V157.48H385.397V159H384.277V157.48H380.657ZM384.327 152.96L381.967 156.49H384.327V152.96ZM391.252 159L388.562 155.89V159H387.422V152.05H388.562V155.22L391.262 152.05H392.692L389.672 155.53L392.742 159H391.252Z"
            fill="#505050" />
        <path
            d="M293.5 362L280.167 354.302V369.698L293.5 362ZM136 363.333H281.5V360.667H136V363.333Z"
            fill="black" />
        <circle cx="327.5" cy="362" r="24" fill="#13C45A" />
        <g clip-path="url(#clip0_9079_2909)">
            <mask id="mask0_9079_2909" style="mask-type:luminance" maskUnits="userSpaceOnUse"
                x="314" y="349" width="25" height="25">
                <path d="M314.747 350H338.747V374H314.747V350Z" fill="white" />
            </mask>
            <g mask="url(#mask0_9079_2909)">
                <path fill-rule="evenodd" clip-rule="evenodd"
                    d="M336.882 365.246C339.379 363.803 339.379 360.197 336.882 358.753L324.124 351.377C321.625 349.933 318.498 351.737 318.498 354.625V369.376C318.498 372.263 321.625 374.068 324.124 372.622L336.882 365.246Z"
                    fill="white" />
            </g>
        </g>
        <path d="M519 362L505.667 354.302V369.698L519 362ZM361.5 363.333H507V360.667H361.5V363.333Z"
            fill="black" />
        <path
            d="M94.2964 34.1V35.96H90.5964V48H88.3164V35.96H84.5964V34.1H94.2964ZM101.385 48.18C100.345 48.18 99.4055 47.9467 98.5655 47.48C97.7255 47 97.0655 46.3333 96.5855 45.48C96.1055 44.6133 95.8655 43.6133 95.8655 42.48C95.8655 41.36 96.1121 40.3667 96.6055 39.5C97.0988 38.6333 97.7721 37.9667 98.6255 37.5C99.4788 37.0333 100.432 36.8 101.485 36.8C102.539 36.8 103.492 37.0333 104.345 37.5C105.199 37.9667 105.872 38.6333 106.365 39.5C106.859 40.3667 107.105 41.36 107.105 42.48C107.105 43.6 106.852 44.5933 106.345 45.46C105.839 46.3267 105.145 47 104.265 47.48C103.399 47.9467 102.439 48.18 101.385 48.18ZM101.385 46.2C101.972 46.2 102.519 46.06 103.025 45.78C103.545 45.5 103.965 45.08 104.285 44.52C104.605 43.96 104.765 43.28 104.765 42.48C104.765 41.68 104.612 41.0067 104.305 40.46C103.999 39.9 103.592 39.48 103.085 39.2C102.579 38.92 102.032 38.78 101.445 38.78C100.859 38.78 100.312 38.92 99.8055 39.2C99.3121 39.48 98.9188 39.9 98.6255 40.46C98.3321 41.0067 98.1855 41.68 98.1855 42.48C98.1855 43.6667 98.4855 44.5867 99.0855 45.24C99.6988 45.88 100.465 46.2 101.385 46.2ZM112.019 38.84V44.94C112.019 45.3533 112.113 45.6533 112.299 45.84C112.499 46.0133 112.833 46.1 113.299 46.1H114.699V48H112.899C111.873 48 111.086 47.76 110.539 47.28C109.993 46.8 109.719 46.02 109.719 44.94V38.84H108.419V36.98H109.719V34.24H112.019V36.98H114.699V38.84H112.019ZM116.041 42.44C116.041 41.3333 116.267 40.3533 116.721 39.5C117.187 38.6467 117.814 37.9867 118.601 37.52C119.401 37.04 120.281 36.8 121.241 36.8C122.107 36.8 122.861 36.9733 123.501 37.32C124.154 37.6533 124.674 38.0733 125.061 38.58V36.98H127.361V48H125.061V46.36C124.674 46.88 124.147 47.3133 123.481 47.66C122.814 48.0067 122.054 48.18 121.201 48.18C120.254 48.18 119.387 47.94 118.601 47.46C117.814 46.9667 117.187 46.2867 116.721 45.42C116.267 44.54 116.041 43.5467 116.041 42.44ZM125.061 42.48C125.061 41.72 124.901 41.06 124.581 40.5C124.274 39.94 123.867 39.5133 123.361 39.22C122.854 38.9267 122.307 38.78 121.721 38.78C121.134 38.78 120.587 38.9267 120.081 39.22C119.574 39.5 119.161 39.92 118.841 40.48C118.534 41.0267 118.381 41.68 118.381 42.44C118.381 43.2 118.534 43.8667 118.841 44.44C119.161 45.0133 119.574 45.4533 120.081 45.76C120.601 46.0533 121.147 46.2 121.721 46.2C122.307 46.2 122.854 46.0533 123.361 45.76C123.867 45.4667 124.274 45.04 124.581 44.48C124.901 43.9067 125.061 43.24 125.061 42.48ZM132.635 33.2V48H130.355V33.2H132.635ZM140.064 41.02C140.064 39.66 140.378 38.44 141.004 37.36C141.644 36.28 142.504 35.44 143.584 34.84C144.678 34.2267 145.871 33.92 147.164 33.92C148.644 33.92 149.958 34.2867 151.104 35.02C152.264 35.74 153.104 36.7667 153.624 38.1H150.884C150.524 37.3667 150.024 36.82 149.384 36.46C148.744 36.1 148.004 35.92 147.164 35.92C146.244 35.92 145.424 36.1267 144.704 36.54C143.984 36.9533 143.418 37.5467 143.004 38.32C142.604 39.0933 142.404 39.9933 142.404 41.02C142.404 42.0467 142.604 42.9467 143.004 43.72C143.418 44.4933 143.984 45.0933 144.704 45.52C145.424 45.9333 146.244 46.14 147.164 46.14C148.004 46.14 148.744 45.96 149.384 45.6C150.024 45.24 150.524 44.6933 150.884 43.96H153.624C153.104 45.2933 152.264 46.32 151.104 47.04C149.958 47.76 148.644 48.12 147.164 48.12C145.858 48.12 144.664 47.82 143.584 47.22C142.504 46.6067 141.644 45.76 141.004 44.68C140.378 43.6 140.064 42.38 140.064 41.02ZM155.533 42.44C155.533 41.3333 155.76 40.3533 156.213 39.5C156.68 38.6467 157.306 37.9867 158.093 37.52C158.893 37.04 159.773 36.8 160.733 36.8C161.6 36.8 162.353 36.9733 162.993 37.32C163.646 37.6533 164.166 38.0733 164.553 38.58V36.98H166.853V48H164.553V46.36C164.166 46.88 163.64 47.3133 162.973 47.66C162.306 48.0067 161.546 48.18 160.693 48.18C159.746 48.18 158.88 47.94 158.093 47.46C157.306 46.9667 156.68 46.2867 156.213 45.42C155.76 44.54 155.533 43.5467 155.533 42.44ZM164.553 42.48C164.553 41.72 164.393 41.06 164.073 40.5C163.766 39.94 163.36 39.5133 162.853 39.22C162.346 38.9267 161.8 38.78 161.213 38.78C160.626 38.78 160.08 38.9267 159.573 39.22C159.066 39.5 158.653 39.92 158.333 40.48C158.026 41.0267 157.873 41.68 157.873 42.44C157.873 43.2 158.026 43.8667 158.333 44.44C158.653 45.0133 159.066 45.4533 159.573 45.76C160.093 46.0533 160.64 46.2 161.213 46.2C161.8 46.2 162.346 46.0533 162.853 45.76C163.36 45.4667 163.766 45.04 164.073 44.48C164.393 43.9067 164.553 43.24 164.553 42.48ZM173.848 48.18C172.981 48.18 172.201 48.0267 171.508 47.72C170.828 47.4 170.288 46.9733 169.888 46.44C169.488 45.8933 169.274 45.2867 169.248 44.62H171.608C171.648 45.0867 171.868 45.48 172.268 45.8C172.681 46.1067 173.194 46.26 173.808 46.26C174.448 46.26 174.941 46.14 175.288 45.9C175.648 45.6467 175.828 45.3267 175.828 44.94C175.828 44.5267 175.628 44.22 175.228 44.02C174.841 43.82 174.221 43.6 173.368 43.36C172.541 43.1333 171.868 42.9133 171.348 42.7C170.828 42.4867 170.374 42.16 169.988 41.72C169.614 41.28 169.428 40.7 169.428 39.98C169.428 39.3933 169.601 38.86 169.948 38.38C170.294 37.8867 170.788 37.5 171.428 37.22C172.081 36.94 172.828 36.8 173.668 36.8C174.921 36.8 175.928 37.12 176.688 37.76C177.461 38.3867 177.874 39.2467 177.928 40.34H175.648C175.608 39.8467 175.408 39.4533 175.048 39.16C174.688 38.8667 174.201 38.72 173.588 38.72C172.988 38.72 172.528 38.8333 172.208 39.06C171.888 39.2867 171.728 39.5867 171.728 39.96C171.728 40.2533 171.834 40.5 172.048 40.7C172.261 40.9 172.521 41.06 172.828 41.18C173.134 41.2867 173.588 41.4267 174.188 41.6C174.988 41.8133 175.641 42.0333 176.148 42.26C176.668 42.4733 177.114 42.7933 177.488 43.22C177.861 43.6467 178.054 44.2133 178.068 44.92C178.068 45.5467 177.894 46.1067 177.548 46.6C177.201 47.0933 176.708 47.48 176.068 47.76C175.441 48.04 174.701 48.18 173.848 48.18ZM190.631 42.22C190.631 42.6333 190.605 43.0067 190.551 43.34H182.131C182.198 44.22 182.525 44.9267 183.111 45.46C183.698 45.9933 184.418 46.26 185.271 46.26C186.498 46.26 187.365 45.7467 187.871 44.72H190.331C189.998 45.7333 189.391 46.5667 188.511 47.22C187.645 47.86 186.565 48.18 185.271 48.18C184.218 48.18 183.271 47.9467 182.431 47.48C181.605 47 180.951 46.3333 180.471 45.48C180.005 44.6133 179.771 43.6133 179.771 42.48C179.771 41.3467 179.998 40.3533 180.451 39.5C180.918 38.6333 181.565 37.9667 182.391 37.5C183.231 37.0333 184.191 36.8 185.271 36.8C186.311 36.8 187.238 37.0267 188.051 37.48C188.865 37.9333 189.498 38.5733 189.951 39.4C190.405 40.2133 190.631 41.1533 190.631 42.22ZM188.251 41.5C188.238 40.66 187.938 39.9867 187.351 39.48C186.765 38.9733 186.038 38.72 185.171 38.72C184.385 38.72 183.711 38.9733 183.151 39.48C182.591 39.9733 182.258 40.6467 182.151 41.5H188.251ZM196.875 48.18C196.008 48.18 195.228 48.0267 194.535 47.72C193.855 47.4 193.315 46.9733 192.915 46.44C192.515 45.8933 192.302 45.2867 192.275 44.62H194.635C194.675 45.0867 194.895 45.48 195.295 45.8C195.708 46.1067 196.222 46.26 196.835 46.26C197.475 46.26 197.968 46.14 198.315 45.9C198.675 45.6467 198.855 45.3267 198.855 44.94C198.855 44.5267 198.655 44.22 198.255 44.02C197.868 43.82 197.248 43.6 196.395 43.36C195.568 43.1333 194.895 42.9133 194.375 42.7C193.855 42.4867 193.402 42.16 193.015 41.72C192.642 41.28 192.455 40.7 192.455 39.98C192.455 39.3933 192.628 38.86 192.975 38.38C193.322 37.8867 193.815 37.5 194.455 37.22C195.108 36.94 195.855 36.8 196.695 36.8C197.948 36.8 198.955 37.12 199.715 37.76C200.488 38.3867 200.902 39.2467 200.955 40.34H198.675C198.635 39.8467 198.435 39.4533 198.075 39.16C197.715 38.8667 197.228 38.72 196.615 38.72C196.015 38.72 195.555 38.8333 195.235 39.06C194.915 39.2867 194.755 39.5867 194.755 39.96C194.755 40.2533 194.862 40.5 195.075 40.7C195.288 40.9 195.548 41.06 195.855 41.18C196.162 41.2867 196.615 41.4267 197.215 41.6C198.015 41.8133 198.668 42.0333 199.175 42.26C199.695 42.4733 200.142 42.7933 200.515 43.22C200.888 43.6467 201.082 44.2133 201.095 44.92C201.095 45.5467 200.922 46.1067 200.575 46.6C200.228 47.0933 199.735 47.48 199.095 47.76C198.468 48.04 197.728 48.18 196.875 48.18ZM211.034 38.62C211.421 38.0867 211.947 37.6533 212.614 37.32C213.294 36.9733 214.047 36.8 214.874 36.8C215.847 36.8 216.727 37.0333 217.514 37.5C218.301 37.9667 218.921 38.6333 219.374 39.5C219.827 40.3533 220.054 41.3333 220.054 42.44C220.054 43.5467 219.827 44.54 219.374 45.42C218.921 46.2867 218.294 46.9667 217.494 47.46C216.707 47.94 215.834 48.18 214.874 48.18C214.021 48.18 213.261 48.0133 212.594 47.68C211.941 47.3467 211.421 46.92 211.034 46.4V48H208.754V33.2H211.034V38.62ZM217.734 42.44C217.734 41.68 217.574 41.0267 217.254 40.48C216.947 39.92 216.534 39.5 216.014 39.22C215.507 38.9267 214.961 38.78 214.374 38.78C213.801 38.78 213.254 38.9267 212.734 39.22C212.227 39.5133 211.814 39.94 211.494 40.5C211.187 41.06 211.034 41.72 211.034 42.48C211.034 43.24 211.187 43.9067 211.494 44.48C211.814 45.04 212.227 45.4667 212.734 45.76C213.254 46.0533 213.801 46.2 214.374 46.2C214.961 46.2 215.507 46.0533 216.014 45.76C216.534 45.4533 216.947 45.0133 217.254 44.44C217.574 43.8667 217.734 43.2 217.734 42.44ZM232.229 36.98L225.469 53.18H223.109L225.349 47.82L221.009 36.98H223.549L226.649 45.38L229.869 36.98H232.229ZM238.385 41.02C238.385 39.66 238.698 38.44 239.325 37.36C239.965 36.28 240.825 35.44 241.905 34.84C242.998 34.2267 244.191 33.92 245.485 33.92C246.965 33.92 248.278 34.2867 249.425 35.02C250.585 35.74 251.425 36.7667 251.945 38.1H249.205C248.845 37.3667 248.345 36.82 247.705 36.46C247.065 36.1 246.325 35.92 245.485 35.92C244.565 35.92 243.745 36.1267 243.025 36.54C242.305 36.9533 241.738 37.5467 241.325 38.32C240.925 39.0933 240.725 39.9933 240.725 41.02C240.725 42.0467 240.925 42.9467 241.325 43.72C241.738 44.4933 242.305 45.0933 243.025 45.52C243.745 45.9333 244.565 46.14 245.485 46.14C246.325 46.14 247.065 45.96 247.705 45.6C248.345 45.24 248.845 44.6933 249.205 43.96H251.945C251.425 45.2933 250.585 46.32 249.425 47.04C248.278 47.76 246.965 48.12 245.485 48.12C244.178 48.12 242.985 47.82 241.905 47.22C240.825 46.6067 239.965 45.76 239.325 44.68C238.698 43.6 238.385 42.38 238.385 41.02ZM259.393 48.18C258.353 48.18 257.413 47.9467 256.573 47.48C255.733 47 255.073 46.3333 254.593 45.48C254.113 44.6133 253.873 43.6133 253.873 42.48C253.873 41.36 254.12 40.3667 254.613 39.5C255.107 38.6333 255.78 37.9667 256.633 37.5C257.487 37.0333 258.44 36.8 259.493 36.8C260.547 36.8 261.5 37.0333 262.353 37.5C263.207 37.9667 263.88 38.6333 264.373 39.5C264.867 40.3667 265.113 41.36 265.113 42.48C265.113 43.6 264.86 44.5933 264.353 45.46C263.847 46.3267 263.153 47 262.273 47.48C261.407 47.9467 260.447 48.18 259.393 48.18ZM259.393 46.2C259.98 46.2 260.527 46.06 261.033 45.78C261.553 45.5 261.973 45.08 262.293 44.52C262.613 43.96 262.773 43.28 262.773 42.48C262.773 41.68 262.62 41.0067 262.313 40.46C262.007 39.9 261.6 39.48 261.093 39.2C260.587 38.92 260.04 38.78 259.453 38.78C258.867 38.78 258.32 38.92 257.813 39.2C257.32 39.48 256.927 39.9 256.633 40.46C256.34 41.0067 256.193 41.68 256.193 42.48C256.193 43.6667 256.493 44.5867 257.093 45.24C257.707 45.88 258.473 46.2 259.393 46.2ZM272.927 36.8C273.794 36.8 274.567 36.98 275.247 37.34C275.941 37.7 276.481 38.2333 276.867 38.94C277.254 39.6467 277.447 40.5 277.447 41.5V48H275.187V41.84C275.187 40.8533 274.941 40.1 274.447 39.58C273.954 39.0467 273.281 38.78 272.427 38.78C271.574 38.78 270.894 39.0467 270.387 39.58C269.894 40.1 269.647 40.8533 269.647 41.84V48H267.367V36.98H269.647V38.24C270.021 37.7867 270.494 37.4333 271.067 37.18C271.654 36.9267 272.274 36.8 272.927 36.8ZM283.015 38.84V44.94C283.015 45.3533 283.109 45.6533 283.295 45.84C283.495 46.0133 283.829 46.1 284.295 46.1H285.695V48H283.895C282.869 48 282.082 47.76 281.535 47.28C280.989 46.8 280.715 46.02 280.715 44.94V38.84H279.415V36.98H280.715V34.24H283.015V36.98H285.695V38.84H283.015ZM288.957 35.52C288.544 35.52 288.197 35.38 287.917 35.1C287.637 34.82 287.497 34.4733 287.497 34.06C287.497 33.6467 287.637 33.3 287.917 33.02C288.197 32.74 288.544 32.6 288.957 32.6C289.357 32.6 289.697 32.74 289.977 33.02C290.257 33.3 290.397 33.6467 290.397 34.06C290.397 34.4733 290.257 34.82 289.977 35.1C289.697 35.38 289.357 35.52 288.957 35.52ZM290.077 36.98V48H287.797V36.98H290.077ZM298.63 36.8C299.497 36.8 300.27 36.98 300.95 37.34C301.644 37.7 302.184 38.2333 302.57 38.94C302.957 39.6467 303.15 40.5 303.15 41.5V48H300.89V41.84C300.89 40.8533 300.644 40.1 300.15 39.58C299.657 39.0467 298.984 38.78 298.13 38.78C297.277 38.78 296.597 39.0467 296.09 39.58C295.597 40.1 295.35 40.8533 295.35 41.84V48H293.07V36.98H295.35V38.24C295.724 37.7867 296.197 37.4333 296.77 37.18C297.357 36.9267 297.977 36.8 298.63 36.8ZM316.159 42.22C316.159 42.6333 316.132 43.0067 316.079 43.34H307.659C307.725 44.22 308.052 44.9267 308.639 45.46C309.225 45.9933 309.945 46.26 310.799 46.26C312.025 46.26 312.892 45.7467 313.399 44.72H315.859C315.525 45.7333 314.919 46.5667 314.039 47.22C313.172 47.86 312.092 48.18 310.799 48.18C309.745 48.18 308.799 47.9467 307.959 47.48C307.132 47 306.479 46.3333 305.999 45.48C305.532 44.6133 305.299 43.6133 305.299 42.48C305.299 41.3467 305.525 40.3533 305.979 39.5C306.445 38.6333 307.092 37.9667 307.919 37.5C308.759 37.0333 309.719 36.8 310.799 36.8C311.839 36.8 312.765 37.0267 313.579 37.48C314.392 37.9333 315.025 38.5733 315.479 39.4C315.932 40.2133 316.159 41.1533 316.159 42.22ZM313.779 41.5C313.765 40.66 313.465 39.9867 312.879 39.48C312.292 38.9733 311.565 38.72 310.699 38.72C309.912 38.72 309.239 38.9733 308.679 39.48C308.119 39.9733 307.785 40.6467 307.679 41.5H313.779ZM323.962 36.8C324.829 36.8 325.602 36.98 326.282 37.34C326.976 37.7 327.516 38.2333 327.902 38.94C328.289 39.6467 328.482 40.5 328.482 41.5V48H326.222V41.84C326.222 40.8533 325.976 40.1 325.482 39.58C324.989 39.0467 324.316 38.78 323.462 38.78C322.609 38.78 321.929 39.0467 321.422 39.58C320.929 40.1 320.682 40.8533 320.682 41.84V48H318.402V36.98H320.682V38.24C321.056 37.7867 321.529 37.4333 322.102 37.18C322.689 36.9267 323.309 36.8 323.962 36.8ZM334.051 38.84V44.94C334.051 45.3533 334.144 45.6533 334.331 45.84C334.531 46.0133 334.864 46.1 335.331 46.1H336.731V48H334.931C333.904 48 333.117 47.76 332.571 47.28C332.024 46.8 331.751 46.02 331.751 44.94V38.84H330.451V36.98H331.751V34.24H334.051V36.98H336.731V38.84H334.051ZM341.332 45.26L338.912 50.78H337.432L338.852 45.26H341.332ZM358.82 34.1L354.22 42.96V48H351.94V42.96L347.32 34.1H349.86L353.08 40.92L356.3 34.1H358.82ZM370.729 42.22C370.729 42.6333 370.702 43.0067 370.649 43.34H362.229C362.296 44.22 362.622 44.9267 363.209 45.46C363.796 45.9933 364.516 46.26 365.369 46.26C366.596 46.26 367.462 45.7467 367.969 44.72H370.429C370.096 45.7333 369.489 46.5667 368.609 47.22C367.742 47.86 366.662 48.18 365.369 48.18C364.316 48.18 363.369 47.9467 362.529 47.48C361.702 47 361.049 46.3333 360.569 45.48C360.102 44.6133 359.869 43.6133 359.869 42.48C359.869 41.3467 360.096 40.3533 360.549 39.5C361.016 38.6333 361.662 37.9667 362.489 37.5C363.329 37.0333 364.289 36.8 365.369 36.8C366.409 36.8 367.336 37.0267 368.149 37.48C368.962 37.9333 369.596 38.5733 370.049 39.4C370.502 40.2133 370.729 41.1533 370.729 42.22ZM368.349 41.5C368.336 40.66 368.036 39.9867 367.449 39.48C366.862 38.9733 366.136 38.72 365.269 38.72C364.482 38.72 363.809 38.9733 363.249 39.48C362.689 39.9733 362.356 40.6467 362.249 41.5H368.349ZM372.213 42.44C372.213 41.3333 372.439 40.3533 372.893 39.5C373.359 38.6467 373.986 37.9867 374.773 37.52C375.573 37.04 376.453 36.8 377.413 36.8C378.279 36.8 379.033 36.9733 379.673 37.32C380.326 37.6533 380.846 38.0733 381.233 38.58V36.98H383.533V48H381.233V46.36C380.846 46.88 380.319 47.3133 379.653 47.66C378.986 48.0067 378.226 48.18 377.373 48.18C376.426 48.18 375.559 47.94 374.773 47.46C373.986 46.9667 373.359 46.2867 372.893 45.42C372.439 44.54 372.213 43.5467 372.213 42.44ZM381.233 42.48C381.233 41.72 381.073 41.06 380.753 40.5C380.446 39.94 380.039 39.5133 379.533 39.22C379.026 38.9267 378.479 38.78 377.893 38.78C377.306 38.78 376.759 38.9267 376.253 39.22C375.746 39.5 375.333 39.92 375.013 40.48C374.706 41.0267 374.553 41.68 374.553 42.44C374.553 43.2 374.706 43.8667 375.013 44.44C375.333 45.0133 375.746 45.4533 376.253 45.76C376.773 46.0533 377.319 46.2 377.893 46.2C378.479 46.2 379.026 46.0533 379.533 45.76C380.039 45.4667 380.446 45.04 380.753 44.48C381.073 43.9067 381.233 43.24 381.233 42.48ZM388.807 38.58C389.141 38.02 389.581 37.5867 390.127 37.28C390.687 36.96 391.347 36.8 392.107 36.8V39.16H391.527C390.634 39.16 389.954 39.3867 389.487 39.84C389.034 40.2933 388.807 41.08 388.807 42.2V48H386.527V36.98H388.807V38.58ZM398.638 42.44C398.638 41.3333 398.865 40.3533 399.318 39.5C399.785 38.6467 400.412 37.9867 401.198 37.52C401.998 37.04 402.878 36.8 403.838 36.8C404.705 36.8 405.458 36.9733 406.098 37.32C406.752 37.6533 407.272 38.0733 407.658 38.58V36.98H409.958V48H407.658V46.36C407.272 46.88 406.745 47.3133 406.078 47.66C405.412 48.0067 404.652 48.18 403.798 48.18C402.852 48.18 401.985 47.94 401.198 47.46C400.412 46.9667 399.785 46.2867 399.318 45.42C398.865 44.54 398.638 43.5467 398.638 42.44ZM407.658 42.48C407.658 41.72 407.498 41.06 407.178 40.5C406.872 39.94 406.465 39.5133 405.958 39.22C405.452 38.9267 404.905 38.78 404.318 38.78C403.732 38.78 403.185 38.9267 402.678 39.22C402.172 39.5 401.758 39.92 401.438 40.48C401.132 41.0267 400.978 41.68 400.978 42.44C400.978 43.2 401.132 43.8667 401.438 44.44C401.758 45.0133 402.172 45.4533 402.678 45.76C403.198 46.0533 403.745 46.2 404.318 46.2C404.905 46.2 405.452 46.0533 405.958 45.76C406.465 45.4667 406.872 45.04 407.178 44.48C407.498 43.9067 407.658 43.24 407.658 42.48ZM418.513 36.8C419.38 36.8 420.153 36.98 420.833 37.34C421.526 37.7 422.066 38.2333 422.453 38.94C422.84 39.6467 423.033 40.5 423.033 41.5V48H420.773V41.84C420.773 40.8533 420.526 40.1 420.033 39.58C419.54 39.0467 418.866 38.78 418.013 38.78C417.16 38.78 416.48 39.0467 415.973 39.58C415.48 40.1 415.233 40.8533 415.233 41.84V48H412.953V36.98H415.233V38.24C415.606 37.7867 416.08 37.4333 416.653 37.18C417.24 36.9267 417.86 36.8 418.513 36.8ZM425.181 42.44C425.181 41.3333 425.408 40.3533 425.861 39.5C426.328 38.6467 426.955 37.9867 427.741 37.52C428.541 37.04 429.428 36.8 430.401 36.8C431.121 36.8 431.828 36.96 432.521 37.28C433.228 37.5867 433.788 38 434.201 38.52V33.2H436.501V48H434.201V46.34C433.828 46.8733 433.308 47.3133 432.641 47.66C431.988 48.0067 431.235 48.18 430.381 48.18C429.421 48.18 428.541 47.94 427.741 47.46C426.955 46.9667 426.328 46.2867 425.861 45.42C425.408 44.54 425.181 43.5467 425.181 42.44ZM434.201 42.48C434.201 41.72 434.041 41.06 433.721 40.5C433.415 39.94 433.008 39.5133 432.501 39.22C431.995 38.9267 431.448 38.78 430.861 38.78C430.275 38.78 429.728 38.9267 429.221 39.22C428.715 39.5 428.301 39.92 427.981 40.48C427.675 41.0267 427.521 41.68 427.521 42.44C427.521 43.2 427.675 43.8667 427.981 44.44C428.301 45.0133 428.715 45.4533 429.221 45.76C429.741 46.0533 430.288 46.2 430.861 46.2C431.448 46.2 431.995 46.0533 432.501 45.76C433.008 45.4667 433.415 45.04 433.721 44.48C434.041 43.9067 434.201 43.24 434.201 42.48ZM459.331 34.1V48H457.051V38.48L452.811 48H451.231L446.971 38.48V48H444.691V34.1H447.151L452.031 45L456.891 34.1H459.331ZM467.108 48.18C466.068 48.18 465.128 47.9467 464.288 47.48C463.448 47 462.788 46.3333 462.308 45.48C461.828 44.6133 461.588 43.6133 461.588 42.48C461.588 41.36 461.835 40.3667 462.328 39.5C462.821 38.6333 463.495 37.9667 464.348 37.5C465.201 37.0333 466.155 36.8 467.208 36.8C468.261 36.8 469.215 37.0333 470.068 37.5C470.921 37.9667 471.595 38.6333 472.088 39.5C472.581 40.3667 472.828 41.36 472.828 42.48C472.828 43.6 472.575 44.5933 472.068 45.46C471.561 46.3267 470.868 47 469.988 47.48C469.121 47.9467 468.161 48.18 467.108 48.18ZM467.108 46.2C467.695 46.2 468.241 46.06 468.748 45.78C469.268 45.5 469.688 45.08 470.008 44.52C470.328 43.96 470.488 43.28 470.488 42.48C470.488 41.68 470.335 41.0067 470.028 40.46C469.721 39.9 469.315 39.48 468.808 39.2C468.301 38.92 467.755 38.78 467.168 38.78C466.581 38.78 466.035 38.92 465.528 39.2C465.035 39.48 464.641 39.9 464.348 40.46C464.055 41.0067 463.908 41.68 463.908 42.48C463.908 43.6667 464.208 44.5867 464.808 45.24C465.421 45.88 466.188 46.2 467.108 46.2ZM480.642 36.8C481.509 36.8 482.282 36.98 482.962 37.34C483.655 37.7 484.195 38.2333 484.582 38.94C484.969 39.6467 485.162 40.5 485.162 41.5V48H482.902V41.84C482.902 40.8533 482.655 40.1 482.162 39.58C481.669 39.0467 480.995 38.78 480.142 38.78C479.289 38.78 478.609 39.0467 478.102 39.58C477.609 40.1 477.362 40.8533 477.362 41.84V48H475.082V36.98H477.362V38.24C477.735 37.7867 478.209 37.4333 478.782 37.18C479.369 36.9267 479.989 36.8 480.642 36.8ZM490.73 38.84V44.94C490.73 45.3533 490.824 45.6533 491.01 45.84C491.21 46.0133 491.544 46.1 492.01 46.1H493.41V48H491.61C490.584 48 489.797 47.76 489.25 47.28C488.704 46.8 488.43 46.02 488.43 44.94V38.84H487.13V36.98H488.43V34.24H490.73V36.98H493.41V38.84H490.73ZM501.212 36.8C502.052 36.8 502.798 36.98 503.452 37.34C504.118 37.7 504.638 38.2333 505.012 38.94C505.398 39.6467 505.592 40.5 505.592 41.5V48H503.332V41.84C503.332 40.8533 503.085 40.1 502.592 39.58C502.098 39.0467 501.425 38.78 500.572 38.78C499.718 38.78 499.038 39.0467 498.532 39.58C498.038 40.1 497.792 40.8533 497.792 41.84V48H495.512V33.2H497.792V38.26C498.178 37.7933 498.665 37.4333 499.252 37.18C499.852 36.9267 500.505 36.8 501.212 36.8Z"
            fill="black" />
        <g filter="url(#filter1_d_9079_2909)">
            <rect x="51.6997" y="321.102" width="133.269" height="48.5098" rx="9.25373"
                transform="rotate(-16.3815 51.6997 321.102)" fill="#E06C01" />
            <rect x="53.1357" y="321.886" width="130.955" height="46.1963" rx="8.09702"
                transform="rotate(-16.3815 53.1357 321.886)" stroke="#FFDBC7" stroke-width="2.31343" />
            <g clip-path="url(#clip1_9079_2909)">
                <path
                    d="M83.4675 342.818C84.7086 341.036 85.6674 339.593 86.344 338.491C87.0168 337.376 87.5332 336.272 87.893 335.18C88.2618 334.071 88.3165 333.075 88.0571 332.192C87.8126 331.361 87.4162 330.769 86.8677 330.416C86.3282 330.046 85.6108 329.993 84.7153 330.256C83.8455 330.512 83.2484 330.986 82.924 331.679C82.6086 332.356 82.5652 333.154 82.7938 334.073L81.1053 334.57C80.7353 333.122 80.8449 331.887 81.4342 330.866C82.0235 329.845 82.9642 329.145 84.2562 328.765C85.5738 328.378 86.7235 328.436 87.7054 328.94C88.7 329.439 89.3854 330.329 89.7614 331.608C90.0735 332.67 90.0583 333.8 89.7158 334.998C89.3823 336.181 88.9254 337.274 88.3451 338.278C87.7611 339.27 86.9908 340.455 86.0343 341.834L92.635 339.894L93.0637 341.352L83.8342 344.065L83.4675 342.818ZM93.0459 333.832C92.3991 331.632 92.2534 329.812 92.6087 328.374C92.9603 326.922 94.0316 325.933 95.8225 325.407C97.6006 324.884 99.0302 325.138 100.111 326.168C101.189 327.186 102.051 328.794 102.698 330.995C103.356 333.233 103.509 335.078 103.157 336.53C102.806 337.981 101.741 338.968 99.9627 339.491C98.1718 340.017 96.7358 339.765 95.6547 338.735C94.5736 337.705 93.704 336.071 93.0459 333.832ZM100.971 331.502C100.643 330.389 100.29 329.472 99.9111 328.749C99.541 328.01 99.0562 327.472 98.4565 327.134C97.8697 326.792 97.1477 326.748 96.2906 326.999C95.4208 327.255 94.8251 327.687 94.5038 328.296C94.1952 328.901 94.0788 329.616 94.1547 330.442C94.2396 331.25 94.4457 332.211 94.7728 333.324C95.1113 334.476 95.4655 335.421 95.8356 336.16C96.2185 336.895 96.7034 337.433 97.2902 337.775C97.8899 338.113 98.6246 338.154 99.4945 337.898C100.352 337.646 100.934 337.218 101.243 336.613C101.564 336.004 101.681 335.289 101.592 334.467C101.516 333.642 101.309 332.654 100.971 331.502ZM103.106 325.225L102.637 323.633L106.245 322.572L110.323 336.445L108.558 336.964L104.948 324.684L103.106 325.225ZM114.473 331.181C114.815 331.873 115.275 332.349 115.852 332.61C116.442 332.868 117.133 332.88 117.926 332.647C118.988 332.335 119.646 331.689 119.901 330.711C120.168 329.729 119.999 328.257 119.395 326.295C119.295 326.949 118.981 327.535 118.452 328.052C117.919 328.556 117.269 328.921 116.501 329.147C115.644 329.398 114.826 329.451 114.047 329.305C113.276 329.143 112.599 328.779 112.016 328.214C111.433 327.648 111.001 326.886 110.719 325.927C110.316 324.558 110.389 323.341 110.938 322.277C111.483 321.199 112.485 320.446 113.943 320.018C115.734 319.491 117.159 319.705 118.217 320.658C119.288 321.608 120.163 323.234 120.839 325.537C121.313 327.148 121.557 328.522 121.571 329.657C121.598 330.789 121.347 331.731 120.818 332.485C120.302 333.234 119.449 333.783 118.259 334.133C116.954 334.517 115.834 334.464 114.898 333.975C113.962 333.486 113.283 332.712 112.861 331.655L114.473 331.181ZM116.355 327.584C117.212 327.332 117.839 326.863 118.234 326.177C118.627 325.478 118.689 324.675 118.422 323.766C118.14 322.807 117.644 322.112 116.934 321.682C116.223 321.251 115.382 321.179 114.41 321.465C113.515 321.728 112.881 322.22 112.509 322.941C112.15 323.658 112.106 324.477 112.377 325.398C112.651 326.331 113.133 327.003 113.823 327.411C114.513 327.82 115.357 327.878 116.355 327.584ZM140.475 313.156L144.378 326.434L142.632 326.948L139.721 317.047L138.219 328.245L136.99 328.606L129.642 319.989L132.558 329.909L130.812 330.422L126.909 317.144L128.789 316.591L136.928 326.123L138.613 313.703L140.475 313.156ZM145.13 320.46C144.814 319.385 144.755 318.381 144.953 317.447C145.147 316.501 145.556 315.693 146.179 315.023C146.815 314.35 147.6 313.876 148.534 313.601C149.455 313.331 150.313 313.294 151.107 313.491C151.902 313.688 152.554 314.039 153.063 314.542L152.499 312.623L154.264 312.104L157.355 322.619L155.59 323.138L155.015 321.181C154.85 321.897 154.482 322.561 153.912 323.173C153.35 323.769 152.615 324.2 151.707 324.467C150.773 324.742 149.861 324.76 148.971 324.521C148.081 324.283 147.297 323.811 146.617 323.108C145.938 322.404 145.442 321.521 145.13 320.46ZM154.039 317.862C153.806 317.069 153.443 316.425 152.95 315.93C152.457 315.436 151.891 315.116 151.25 314.971C150.619 314.809 149.977 314.824 149.325 315.016C148.672 315.207 148.123 315.536 147.676 316.001C147.229 316.466 146.932 317.039 146.785 317.722C146.638 318.404 146.681 319.142 146.914 319.935C147.151 320.741 147.518 321.398 148.015 321.905C148.507 322.399 149.069 322.727 149.701 322.889C150.328 323.038 150.968 323.017 151.621 322.825C152.273 322.633 152.823 322.305 153.27 321.84C153.726 321.359 154.027 320.777 154.174 320.094C154.317 319.399 154.272 318.655 154.039 317.862ZM159.463 312.431C159.593 311.74 159.891 311.145 160.356 310.647C160.834 310.145 161.482 309.774 162.301 309.533L162.831 311.337L162.371 311.472C160.414 312.048 159.747 313.397 160.371 315.521L162.052 321.239L160.306 321.752L157.215 311.237L158.961 310.724L159.463 312.431Z"
                    fill="white" />
            </g>
            <path
                d="M129.816 362.168L113.425 353.225C111.809 352.343 109.909 352.139 108.143 352.659L149.172 340.598C147.406 341.117 145.919 342.316 145.037 343.932L136.094 360.323C134.87 362.566 132.059 363.392 129.816 362.168Z"
                fill="#E06C01" />
            <path
                d="M106.788 354.262L107.55 354.039C109.904 353.346 112.437 353.618 114.592 354.793L128.111 362.17C131.475 364.006 135.691 362.766 137.527 359.402L144.904 345.883C146.079 343.728 148.062 342.129 150.417 341.437L151.178 341.213"
                stroke="#FFDBC7" stroke-width="2.31343" stroke-linecap="round" />
        </g>
        <g filter="url(#filter2_d_9079_2909)">
            <rect x="415.261" y="321.525" width="136.269" height="48.5098" rx="9.25373"
                transform="rotate(-16.3815 415.261 321.525)" fill="#E06C01" />
            <rect x="416.697" y="322.309" width="133.955" height="46.1963" rx="8.09702"
                transform="rotate(-16.3815 416.697 322.309)" stroke="#FFDBC7" stroke-width="2.31343" />
            <g clip-path="url(#clip2_9079_2909)">
                <path
                    d="M447.1 343.22C448.341 341.438 449.3 339.996 449.976 338.893C450.649 337.778 451.165 336.675 451.525 335.582C451.894 334.473 451.949 333.477 451.689 332.595C451.445 331.763 451.048 331.171 450.5 330.818C449.96 330.448 449.243 330.395 448.348 330.658C447.478 330.914 446.881 331.388 446.556 332.081C446.241 332.758 446.197 333.556 446.426 334.475L444.738 334.972C444.368 333.524 444.477 332.29 445.066 331.269C445.656 330.248 446.596 329.547 447.888 329.167C449.206 328.78 450.356 328.838 451.338 329.342C452.332 329.841 453.018 330.731 453.394 332.01C453.706 333.072 453.691 334.202 453.348 335.401C453.015 336.583 452.558 337.676 451.977 338.68C451.393 339.672 450.623 340.857 449.667 342.236L456.267 340.296L456.696 341.754L447.466 344.468L447.1 343.22ZM456.678 334.234C456.031 332.034 455.886 330.214 456.241 328.776C456.593 327.324 457.664 326.335 459.455 325.809C461.233 325.286 462.662 325.54 463.744 326.57C464.821 327.588 465.683 329.197 466.33 331.397C466.988 333.635 467.141 335.48 466.789 336.932C466.438 338.383 465.373 339.37 463.595 339.893C461.804 340.42 460.368 340.168 459.287 339.137C458.206 338.107 457.336 336.473 456.678 334.234ZM464.603 331.905C464.276 330.792 463.923 329.874 463.543 329.152C463.173 328.413 462.688 327.874 462.089 327.536C461.502 327.195 460.78 327.15 459.923 327.402C459.053 327.657 458.457 328.09 458.136 328.698C457.827 329.303 457.711 330.018 457.787 330.844C457.872 331.653 458.078 332.614 458.405 333.726C458.743 334.878 459.098 335.823 459.468 336.562C459.851 337.297 460.336 337.835 460.922 338.177C461.522 338.515 462.257 338.556 463.127 338.3C463.984 338.049 464.567 337.62 464.875 337.015C465.197 336.406 465.313 335.691 465.224 334.87C465.148 334.044 464.941 333.056 464.603 331.905ZM470.185 336.434C471.426 334.652 472.385 333.209 473.062 332.107C473.735 330.992 474.251 329.888 474.611 328.796C474.98 327.687 475.034 326.691 474.775 325.808C474.531 324.977 474.134 324.384 473.586 324.031C473.046 323.662 472.329 323.609 471.433 323.872C470.563 324.128 469.966 324.602 469.642 325.295C469.327 325.971 469.283 326.769 469.512 327.689L467.823 328.185C467.453 326.738 467.563 325.503 468.152 324.482C468.741 323.461 469.682 322.761 470.974 322.381C472.292 321.994 473.441 322.052 474.423 322.555C475.418 323.055 476.103 323.945 476.479 325.224C476.791 326.285 476.776 327.416 476.434 328.614C476.1 329.796 475.643 330.89 475.063 331.894C474.479 332.886 473.709 334.071 472.752 335.45L479.353 333.51L479.782 334.968L470.552 337.681L470.185 336.434ZM479.764 327.448C479.117 325.247 478.971 323.428 479.327 321.989C479.678 320.538 480.749 319.549 482.54 319.023C484.318 318.5 485.748 318.754 486.829 319.784C487.907 320.801 488.769 322.41 489.415 324.61C490.074 326.849 490.227 328.694 489.875 330.146C489.524 331.597 488.459 332.584 486.681 333.107C484.89 333.633 483.454 333.381 482.373 332.351C481.291 331.321 480.422 329.686 479.764 327.448ZM487.688 325.118C487.361 324.005 487.008 323.088 486.629 322.365C486.259 321.626 485.774 321.088 485.174 320.75C484.588 320.408 483.866 320.363 483.009 320.615C482.139 320.871 481.543 321.303 481.222 321.912C480.913 322.517 480.797 323.232 480.873 324.057C480.958 324.866 481.164 325.827 481.491 326.94C481.829 328.091 482.183 329.036 482.554 329.775C482.936 330.511 483.421 331.049 484.008 331.391C484.608 331.729 485.343 331.77 486.212 331.514C487.07 331.262 487.652 330.834 487.961 330.229C488.282 329.62 488.399 328.905 488.31 328.083C488.234 327.258 488.027 326.269 487.688 325.118ZM502.926 313.801L503.343 315.221L497.529 316.93L498.855 321.44L503.575 320.052L503.993 321.472L499.272 322.859L501.044 328.884L499.297 329.398L495.366 316.024L502.926 313.801ZM516.896 318.075C516.994 318.407 517.078 318.765 517.149 319.147L508.745 321.617C509.113 322.635 509.704 323.344 510.516 323.744C511.338 324.128 512.209 324.185 513.13 323.914C513.885 323.692 514.461 323.335 514.859 322.843C515.265 322.334 515.484 321.756 515.516 321.107L517.396 320.554C517.412 321.648 517.091 322.638 516.435 323.526C515.775 324.401 514.818 325.023 513.565 325.391C512.567 325.685 511.606 325.724 510.681 325.509C509.769 325.291 508.969 324.838 508.28 324.151C507.588 323.451 507.082 322.558 506.763 321.47C506.443 320.383 506.38 319.366 506.575 318.42C506.769 317.473 507.192 316.668 507.845 316.003C508.506 315.323 509.349 314.832 510.372 314.531C511.37 314.238 512.316 314.196 513.212 314.405C514.107 314.614 514.872 315.042 515.507 315.69C516.151 316.32 516.614 317.115 516.896 318.075ZM514.986 318.24C514.79 317.575 514.476 317.049 514.042 316.662C513.605 316.263 513.095 316.017 512.512 315.924C511.938 315.815 511.344 315.85 510.73 316.031C509.847 316.29 509.175 316.794 508.714 317.541C508.265 318.284 508.143 319.168 508.347 320.192L514.986 318.24ZM520.096 313.986C520.27 313.254 520.644 312.588 521.218 311.989C521.792 311.389 522.52 310.96 523.403 310.7C524.35 310.422 525.266 310.396 526.153 310.622C527.039 310.847 527.82 311.306 528.495 311.997C529.167 312.675 529.661 313.551 529.977 314.625C530.289 315.687 530.35 316.698 530.159 317.657C529.969 318.616 529.558 319.439 528.925 320.125C528.306 320.808 527.53 321.286 526.596 321.561C525.687 321.828 524.83 321.864 524.022 321.671C523.228 321.474 522.568 321.119 522.042 320.606L522.611 322.544L520.865 323.058L516.691 308.858L518.437 308.345L520.096 313.986ZM528.193 315.15C527.959 314.357 527.596 313.713 527.104 313.219C526.611 312.724 526.044 312.404 525.404 312.259C524.776 312.11 524.137 312.131 523.484 312.323C522.845 312.511 522.297 312.846 521.841 313.327C521.394 313.792 521.092 314.374 520.936 315.073C520.79 315.756 520.831 316.487 521.06 317.268C521.293 318.061 521.658 318.711 522.155 319.218C522.66 319.709 523.229 320.035 523.86 320.197C524.5 320.342 525.14 320.321 525.78 320.133C526.432 319.941 526.982 319.613 527.429 319.148C527.885 318.666 528.186 318.084 528.333 317.402C528.476 316.707 528.429 315.956 528.193 315.15Z"
                    fill="white" />
            </g>
            <path
                d="M494.816 362.168L478.425 353.225C476.809 352.343 474.909 352.139 473.143 352.659L514.172 340.598C512.406 341.117 510.919 342.316 510.037 343.932L501.094 360.323C499.87 362.566 497.059 363.392 494.816 362.168Z"
                fill="#E06C01" />
            <path
                d="M471.788 354.262L472.55 354.039C474.904 353.346 477.437 353.618 479.592 354.793L493.111 362.17C496.475 364.006 500.691 362.766 502.527 359.402L509.904 345.883C511.079 343.728 513.062 342.129 515.417 341.437L516.178 341.213"
                stroke="#FFDBC7" stroke-width="2.31343" stroke-linecap="round" />
        </g>
    </g>
    <defs>
        <filter id="filter0_dd_9079_2909" x="0.267515" y="0" width="597.465" height="475.465"
            filterUnits="userSpaceOnUse" color-interpolation-filters="sRGB">
            <feFlood flood-opacity="0" result="BackgroundImageFix" />
            <feColorMatrix in="SourceAlpha" type="matrix"
                values="0 0 0 0 0 0 0 0 0 0 0 0 0 0 0 0 0 0 127 0" result="hardAlpha" />
            <feMorphology radius="10.2442" operator="erode" in="SourceAlpha"
                result="effect1_dropShadow_9079_2909" />
            <feOffset dy="30.7325" />
            <feGaussianBlur stdDeviation="20.4883" />
            <feColorMatrix type="matrix"
                values="0 0 0 0 0.0627451 0 0 0 0 0.0941176 0 0 0 0 0.156863 0 0 0 0.08 0" />
            <feBlend mode="normal" in2="BackgroundImageFix" result="effect1_dropShadow_9079_2909" />
            <feColorMatrix in="SourceAlpha" type="matrix"
                values="0 0 0 0 0 0 0 0 0 0 0 0 0 0 0 0 0 0 127 0" result="hardAlpha" />
            <feMorphology radius="10.2442" operator="erode" in="SourceAlpha"
                result="effect2_dropShadow_9079_2909" />
            <feOffset dy="30.7325" />
            <feGaussianBlur stdDeviation="20.4883" />
            <feColorMatrix type="matrix"
                values="0 0 0 0 0.0627451 0 0 0 0 0.0941176 0 0 0 0 0.156863 0 0 0 0.08 0" />
            <feBlend mode="normal" in2="effect1_dropShadow_9079_2909"
                result="effect2_dropShadow_9079_2909" />
            <feBlend mode="normal" in="SourceGraphic" in2="effect2_dropShadow_9079_2909"
                result="shape" />
        </filter>
        <filter id="filter1_d_9079_2909" x="40.6997" y="272.516" width="171.54" height="124.832"
            filterUnits="userSpaceOnUse" color-interpolation-filters="sRGB">
            <feFlood flood-opacity="0" result="BackgroundImageFix" />
            <feColorMatrix in="SourceAlpha" type="matrix"
                values="0 0 0 0 0 0 0 0 0 0 0 0 0 0 0 0 0 0 127 0" result="hardAlpha" />
            <feOffset dx="4" dy="4" />
            <feGaussianBlur stdDeviation="7.5" />
            <feColorMatrix type="matrix"
                values="0 0 0 0 0.603922 0 0 0 0 0.796078 0 0 0 0 1 0 0 0 0.1 0" />
            <feBlend mode="normal" in2="BackgroundImageFix" result="effect1_dropShadow_9079_2909" />
            <feBlend mode="normal" in="SourceGraphic" in2="effect1_dropShadow_9079_2909"
                result="shape" />
        </filter>
        <filter id="filter2_d_9079_2909" x="404.261" y="272.093" width="174.418" height="125.255"
            filterUnits="userSpaceOnUse" color-interpolation-filters="sRGB">
            <feFlood flood-opacity="0" result="BackgroundImageFix" />
            <feColorMatrix in="SourceAlpha" type="matrix"
                values="0 0 0 0 0 0 0 0 0 0 0 0 0 0 0 0 0 0 127 0" result="hardAlpha" />
            <feOffset dx="4" dy="4" />
            <feGaussianBlur stdDeviation="7.5" />
            <feColorMatrix type="matrix"
                values="0 0 0 0 0.603922 0 0 0 0 0.796078 0 0 0 0 1 0 0 0 0.1 0" />
            <feBlend mode="normal" in2="BackgroundImageFix" result="effect1_dropShadow_9079_2909" />
            <feBlend mode="normal" in="SourceGraphic" in2="effect1_dropShadow_9079_2909"
                result="shape" />
        </filter>
        <clipPath id="clip0_9079_2909">
            <rect width="24" height="24" fill="white" transform="translate(314.75 350)" />
        </clipPath>
        <clipPath id="clip1_9079_2909">
            <rect width="133.269" height="48.5075" fill="white"
                transform="translate(51.6997 321.102) rotate(-16.3815)" />
        </clipPath>
        <clipPath id="clip2_9079_2909">
            <rect width="136.269" height="48.5075" fill="white"
                transform="translate(415.261 321.525) rotate(-16.3815)" />
        </clipPath>
    </defs>
</svg>
    