<svg width="20" height="20" viewBox="0 0 20 20" fill="none" xmlns="http://www.w3.org/2000/svg">
<path d="M0.999985 17.8174H10V18.9999H0.999985V17.8174Z" fill="#F1C90F"/>
<path d="M10 17.8174H19V18.9999H10V17.8174Z" fill="#222222"/>
<path d="M9.856 6.60987C9.856 7.25943 9.47748 7.81914 8.93239 8.07358C8.73137 8.16742 8.5077 8.21974 8.272 8.21974C8.02846 8.21974 7.79775 8.16387 7.59161 8.06407C7.05728 7.80538 6.688 7.25145 6.688 6.60987C6.688 5.72076 7.39718 5 8.272 5C9.14682 5 9.856 5.72076 9.856 6.60987Z" fill="#F1C90F"/>
<path d="M7.59161 8.06407L7.48876 17C7.85905 17 8.82971 17 8.82971 17L8.93239 8.07358C8.73137 8.16742 8.5077 8.21974 8.272 8.21974C8.02846 8.21974 7.79775 8.16387 7.59161 8.06407Z" fill="#3F3F3F"/>
<path fill-rule="evenodd" clip-rule="evenodd" d="M3.76787 8.76938C3.40104 8.76938 3.10367 9.07293 3.10367 9.44738L3 17C3.36683 17 4.32841 17 4.32841 17L4.43208 9.44738C4.43208 9.07293 4.1347 8.76938 3.76787 8.76938ZM11.92 3.2374C11.5532 3.2374 11.2558 3.54096 11.2558 3.9154L11.1521 17C11.519 17 12.4806 17 12.4806 17L12.5842 3.9154C12.5842 3.54096 12.2868 3.2374 11.92 3.2374ZM15.8352 7.30541C15.4684 7.30541 15.171 7.60896 15.171 7.98341L15.1633 8.54855L15.0673 17C15.4341 17 16.3957 17 16.3957 17L16.4898 8.69237L16.4994 7.98341C16.4994 7.60896 16.202 7.30541 15.8352 7.30541Z" fill="#3F3F3F"/>
<path d="M5.34544 8.08291C5.34544 8.96754 4.64289 9.68468 3.77625 9.68468C2.90961 9.68468 2.20706 8.96754 2.20706 8.08291C2.20706 7.19827 2.90961 6.48113 3.77625 6.48113C4.64289 6.48113 5.34544 7.19827 5.34544 8.08291Z" fill="#F1C90F"/>
<path d="M13.564 2.60178C13.564 3.48642 12.8615 4.20356 11.9948 4.20356C11.1282 4.20356 10.4256 3.48642 10.4256 2.60178C10.4256 1.71714 11.1282 1 11.9948 1C12.8615 1 13.564 1.71714 13.564 2.60178Z" fill="#F1C90F"/>
<path d="M17.5456 7.17829C17.5456 7.87939 17.1043 8.47529 16.4898 8.69237C16.3289 8.7492 16.1562 8.78007 15.9764 8.78007C15.6787 8.78007 15.4004 8.69547 15.1633 8.54855C14.71 8.26769 14.4072 7.75909 14.4072 7.17829C14.4072 6.29365 15.1098 5.57651 15.9764 5.57651C16.843 5.57651 17.5456 6.29365 17.5456 7.17829Z" fill="#F1C90F"/>
</svg>
