<svg width="2" height="10" viewBox="0 0 2 10" fill="none" xmlns="http://www.w3.org/2000/svg">
    <path
        d="M1 2C0.447715 2 -6.78525e-08 1.55228 -4.37114e-08 1C-1.95703e-08 0.447715 0.447715 -6.78525e-08 1 -4.37114e-08C1.55228 -1.95703e-08 2 0.447715 2 1C2 1.55228 1.55228 2 1 2ZM1 6C0.447715 6 -2.42698e-07 5.55229 -2.18557e-07 5C-1.94416e-07 4.44772 0.447715 4 1 4C1.55228 4 2 4.44772 2 5C2 5.55229 1.55228 6 1 6ZM-3.93402e-07 9C-4.17544e-07 9.55229 0.447714 10 1 10C1.55228 10 2 9.55229 2 9C2 8.44771 1.55228 8 1 8C0.447714 8 -3.69261e-07 8.44771 -3.93402e-07 9Z"
        fill="#8A8A8A" />
</svg>