<svg width="32" height="32" viewBox="0 0 32 32" fill="none" xmlns="http://www.w3.org/2000/svg">
    <path
        d="M13.75 7.75H18.25C18.25 6.50736 17.2426 5.5 16 5.5C14.7574 5.5 13.75 6.50736 13.75 7.75ZM12.25 7.75C12.25 5.67893 13.9289 4 16 4C18.0711 4 19.75 5.67893 19.75 7.75H27.25C27.6642 7.75 28 8.08579 28 8.5C28 8.91421 27.6642 9.25 27.25 9.25H25.6684L23.8782 24.7658C23.6162 27.0365 21.6935 28.75 19.4078 28.75H12.5922C10.3065 28.75 8.38385 27.0365 8.12185 24.7658L6.33156 9.25H4.75C4.33579 9.25 4 8.91421 4 8.5C4 8.08579 4.33579 7.75 4.75 7.75H12.25ZM9.61196 24.5939C9.78663 26.1076 11.0684 27.25 12.5922 27.25H19.4078C20.9316 27.25 22.2134 26.1076 22.388 24.5939L24.1585 9.25H7.84151L9.61196 24.5939ZM13.75 13C14.1642 13 14.5 13.3358 14.5 13.75V22.75C14.5 23.1642 14.1642 23.5 13.75 23.5C13.3358 23.5 13 23.1642 13 22.75V13.75C13 13.3358 13.3358 13 13.75 13ZM19 13.75C19 13.3358 18.6642 13 18.25 13C17.8358 13 17.5 13.3358 17.5 13.75V22.75C17.5 23.1642 17.8358 23.5 18.25 23.5C18.6642 23.5 19 23.1642 19 22.75V13.75Z"
        fill="#E04A38" />
</svg>
    