<svg width="45" height="44" viewBox="0 0 45 44" fill="none" xmlns="http://www.w3.org/2000/svg">
<path d="M41.1887 33.195C43.197 29.8572 44.1953 26.1931 44.248 22.298C44.3008 18.4029 43.3184 14.5636 41.4012 11.1725C39.484 7.7815 36.7008 4.96032 33.336 2.99735C29.9713 1.03438 26.5428 0.0036134 22.6473 0.00358988L22.5223 6.92498C25.1921 6.925 27.5417 7.63142 29.8477 8.97673C32.1537 10.322 34.0612 12.2555 35.3751 14.5795C36.689 16.9035 37.3623 19.5348 37.3261 22.2042C37.29 24.8737 36.6058 27.3848 35.2294 29.6724L41.1887 33.195Z" fill="#6B6B6B"/>
<path d="M22.6473 0.00358988C17.7309 -0.0852101 12.9264 1.47566 9.0008 4.43703C5.07526 7.39841 2.25499 11.5895 0.990213 16.3414L7.67983 18.1219C8.54663 14.8653 10.4795 11.9929 13.1698 9.9634C15.8601 7.93385 19.1529 6.86413 22.5223 6.92498L22.6473 0.00358988Z" fill="#9A9A9A"/>
<path d="M0.989444 16.3442C-0.162509 20.6744 0.0352535 25.2531 1.55628 29.4679C3.0773 33.6827 5.84906 37.3326 9.50079 39.9293L13.5125 34.2876C11.0098 32.508 9.11019 30.0066 8.06777 27.1181C7.02535 24.2295 6.88982 21.0915 7.6793 18.1238L0.989444 16.3442Z" fill="#B7B7B7"/>
<path d="M9.50405 39.9315C11.9858 41.6956 14.8067 42.9253 17.7882 43.5428C20.7697 44.1603 23.847 44.1522 26.8252 43.519C29.8035 42.8858 32.6178 41.6413 35.0902 39.8642C37.5626 38.0871 39.6393 35.8161 41.1887 33.195L35.2294 29.6724C34.1676 31.4687 32.7444 33.0251 31.0499 34.243C29.3555 35.4609 27.4267 36.3139 25.3856 36.7478C23.3445 37.1818 21.2355 37.1873 19.1922 36.7641C17.1488 36.3409 15.2155 35.4982 13.5147 34.2892L9.50405 39.9315Z" fill="#E3E3E3"/>
</svg>
