<svg width="41" height="40" viewBox="0 0 41 40" fill="none" xmlns="http://www.w3.org/2000/svg">
    <path
        d="M3.67972 6.80511L19.3162 6.80511L19.3267 6.86236L19.8748 6.04168L19.3746 5L3.67972 5L3.67972 6.80511Z"
        fill="#C9C9C9" />
    <path fill-rule="evenodd" clip-rule="evenodd"
        d="M3.7043 18.75L3.7043 20.5551L31.8162 20.5551L31.8746 20.5551L31.8746 18.75L3.7043 18.75Z"
        fill="#C9C9C9" />
    <path
        d="M3.7043 18.75L3.67972 6.80511L3.67972 5L3.67972 1.47613C3.67972 0.660704 2.96799 -1.64057e-06 2.09002 -1.67895e-06C1.21204 -1.71732e-06 0.500153 0.660704 0.500153 1.47613L0.500151 38.5239C0.500151 39.3393 1.21204 40 2.09002 40C2.96799 40 3.67972 39.3393 3.67972 38.5239L3.7043 20.5551L3.7043 18.75Z"
        fill="#6B6B6B" />
    <path d="M21.8527 31.969L3.67973 31.9449L3.67973 33.75L21.8527 33.7741L21.8527 31.969Z"
        fill="#C9C9C9" />
    <path
        d="M23.6248 10.4167C21.469 10.4167 19.6774 8.85739 19.3162 6.80511C19.2726 6.5572 19.2498 6.3021 19.2498 6.04168C19.2498 5.68271 19.293 5.33385 19.3746 5C19.8419 3.08667 21.5675 1.66668 23.6248 1.66668C26.0411 1.66668 27.9998 3.62543 27.9998 6.04168C27.9998 8.45792 26.0411 10.4167 23.6248 10.4167Z"
        fill="#6B6B6B" />
    <path
        d="M36.1248 24.1667C33.969 24.1667 32.1774 22.6074 31.8162 20.5551C31.7726 20.3072 31.7498 20.0521 31.7498 19.7917C31.7498 19.4327 31.793 19.0838 31.8746 18.75C32.3419 16.8367 34.0675 15.4167 36.1248 15.4167C38.5411 15.4167 40.4998 17.3754 40.4998 19.7917C40.4998 22.2079 38.5411 24.1667 36.1248 24.1667Z"
        fill="#6B6B6B" />
    <path
        d="M26.1248 37.2917C23.7086 37.2917 21.7498 35.3329 21.7498 32.9167C21.7498 30.5004 23.7086 28.5417 26.1248 28.5417C28.5411 28.5417 30.4998 30.5004 30.4998 32.9167C30.4998 35.3329 28.5411 37.2917 26.1248 37.2917Z"
        fill="#6B6B6B" />
</svg>
