<svg width="45" height="44" viewBox="0 0 45 44" fill="none" xmlns="http://www.w3.org/2000/svg">
<path d="M22.75 22V0C34.9006 0 44.75 9.8494 44.75 22H22.75Z" fill="#E3E3E3"/>
<path d="M22.75 22L33.75 41.119C37.0928 39.1797 39.8688 36.3924 41.7995 33.0367C43.7301 29.681 44.7477 25.8749 44.75 22H22.75Z" fill="#9A9A9A"/>
<path fill-rule="evenodd" clip-rule="evenodd" d="M7.79274 38.1333L22.7434 22V0C10.5928 0.0044 0.745601 9.856 0.750001 22.0066C0.752309 28.3785 3.46264 34.1169 7.79274 38.1333Z" fill="#6B6B6B"/>
<path d="M33.7434 41.052L22.7434 22L7.79274 38.1333C11.7198 41.7759 16.979 44.0021 22.7588 44C26.615 43.9985 30.4031 42.9834 33.7434 41.0564L33.75 41.0454L33.7434 41.052Z" fill="#B7B7B7"/>
</svg>
