<svg width="48" height="49" viewBox="0 0 48 49" fill="none" xmlns="http://www.w3.org/2000/svg">
    <path
        d="M14.1176 0.5C10.9989 0.5 8.47059 3.02828 8.47059 6.14706V20.8493C9.38056 20.5919 10.3245 20.4154 11.2941 20.328V6.14706C11.2941 4.58767 12.5583 3.32353 14.1176 3.32353H33.8824C35.4417 3.32353 36.7059 4.58767 36.7059 6.14706V37.2059H28.172C28.0846 38.1755 27.9081 39.1194 27.6507 40.0294H39.5294C44.2076 40.0294 48 36.237 48 31.5588V25.9118H39.5294V6.14706C39.5294 3.02828 37.0011 0.5 33.8824 0.5H14.1176ZM39.5294 37.2059V28.7353H45.1765V31.5588C45.1765 34.6776 42.6482 37.2059 39.5294 37.2059ZM18.3529 8.97059C17.5732 8.97059 16.9412 9.60266 16.9412 10.3824C16.9412 11.162 17.5732 11.7941 18.3529 11.7941H29.6471C30.4268 11.7941 31.0588 11.162 31.0588 10.3824C31.0588 9.60266 30.4268 8.97059 29.6471 8.97059H18.3529ZM16.9412 16.0294C16.9412 15.2497 17.5732 14.6176 18.3529 14.6176H29.6471C30.4268 14.6176 31.0588 15.2497 31.0588 16.0294C31.0588 16.8091 30.4268 17.4412 29.6471 17.4412H18.3529C17.5732 17.4412 16.9412 16.8091 16.9412 16.0294ZM25.4118 35.7941C25.4118 42.8114 19.7231 48.5 12.7059 48.5C5.68862 48.5 0 42.8114 0 35.7941C0 28.7769 5.68862 23.0882 12.7059 23.0882C19.7231 23.0882 25.4118 28.7769 25.4118 35.7941ZM14.1176 30.1471C14.1176 29.3674 13.4856 28.7353 12.7059 28.7353C11.9262 28.7353 11.2941 29.3674 11.2941 30.1471V34.3824H7.05882C6.27913 34.3824 5.64706 35.0144 5.64706 35.7941C5.64706 36.5738 6.27913 37.2059 7.05882 37.2059H11.2941L11.2941 41.4412C11.2941 42.2209 11.9262 42.8529 12.7059 42.8529C13.4856 42.8529 14.1176 42.2209 14.1176 41.4412V37.2059H18.3529C19.1326 37.2059 19.7647 36.5738 19.7647 35.7941C19.7647 35.0144 19.1326 34.3824 18.3529 34.3824H14.1176V30.1471Z"
        fill="#8A8A8A" />
</svg>