<svg width="41" height="44" viewBox="0 0 41 44" fill="none" xmlns="http://www.w3.org/2000/svg">
<path fill-rule="evenodd" clip-rule="evenodd" d="M9.4118 16.494L14.8746 18.4516C14.3516 19.4305 13.6686 21.8778 15.1208 23.8355L9.85465 26.2827C8.4276 23.0523 8.32909 19.5775 9.4118 16.494Z" fill="#9A9A9A"/>
<path d="M15.1208 23.8355L21.5187 20.85L14.8746 18.4516C14.3516 19.4305 13.6686 21.8778 15.1208 23.8355Z" fill="#9A9A9A"/>
<path d="M24.3969 16.8364L23.1918 20.1155L26.4153 18.6228C25.8899 17.4285 24.8508 16.9343 24.3969 16.8364Z" fill="#E3E3E3"/>
<path d="M30.6232 24.2269L23.1919 21.5349L26.4892 28.6316C27.6583 28.239 30.1217 26.8084 30.6232 24.2269Z" fill="#E3E3E3"/>
<path fill-rule="evenodd" clip-rule="evenodd" d="M27.6703 32.8899C24.1269 35.0722 19.9929 34.0276 18.3688 33.2325L14.8744 42.7276C17.286 43.5596 19.845 44 22.4532 44C25.603 44 28.8512 43.3636 31.9024 41.9932L27.6703 32.8899Z" fill="#E3E3E3"/>
<path d="M27.6703 32.8899L22.5027 21.8776L18.3688 33.2325C19.9929 34.0276 24.1269 35.0722 27.6703 32.8899Z" fill="#E3E3E3"/>
<path fill-rule="evenodd" clip-rule="evenodd" d="M18.75 30.5C16.25 30 13.75 28 13.0535 25.6461L5.67134 29.0721C7.68921 33.1344 11.1833 36.5116 15.7603 38.2245L18.75 30.5Z" fill="#6B6B6B"/>
<path d="M21.8628 21.5349L13.0535 25.6461C13.75 28 16.25 30 18.75 30.5L21.8628 21.5349Z" fill="#6B6B6B"/>
<path d="M26.4892 28.6316L29.2943 34.554C32.5916 32.9388 35.3476 30.1492 36.7256 26.4784L30.6232 24.2269C30.1217 26.8084 27.6583 28.239 26.4892 28.6316Z" fill="#E3E3E3"/>
<path d="M28.75 18.3782L23.487 20.8008L28.75 22.72C29.55 20.8959 29.0833 19.0654 28.75 18.3782Z" fill="#9A9A9A"/>
<path d="M39.7771 26.7231C41.2041 22.5627 41.1058 17.8642 39.1864 13.5572L35.25 15.3786C35.7903 17.0178 36.6467 21.2898 35.75 25.2643L39.7771 26.7231Z" fill="#9A9A9A"/>
<path d="M32.0995 16.8364L28.75 18.3782C29.0833 19.0654 29.55 20.8959 28.75 22.72L32.3456 24.0311L35.75 25.2643C36.6467 21.2898 35.7903 17.0178 35.25 15.3786L32.0995 16.8364Z" fill="#9A9A9A"/>
<path fill-rule="evenodd" clip-rule="evenodd" d="M28.9991 1.81092C26.9321 1.12573 24.7667 0.734166 22.5521 0.734166C19.8452 0.734166 17.0893 1.27256 14.481 2.44736L17.25 8.5C19.75 7 24.4146 6.92145 26.75 7.92878L28.9991 1.81092Z" fill="#6B6B6B"/>
<path d="M18.0735 10.1801L19.1838 12.5357C20.25 11.5 23.25 11 25.0905 12.5L26.75 7.92878C24.4146 6.92145 19.75 7 17.25 8.5L18.0735 10.1801Z" fill="#6B6B6B"/>
<path d="M19.1838 12.5357L21.0494 16.494L22.5026 19.5772L23.6301 16.494L25.0905 12.5C23.25 11 20.25 11.5 19.1838 12.5357Z" fill="#6B6B6B"/>
<path d="M10.1992 15.9065L21.6662 20.0668L16.4821 9L16.4018 8.82864C14.8746 9.5 11.75 11 9.66956 15.7172L10.1992 15.9065Z" fill="#6B6B6B"/>
<path fill-rule="evenodd" clip-rule="evenodd" d="M34.75 14.7734L29.6388 17.13L26.4153 18.6228C25.8899 17.4285 24.8508 16.9343 24.3969 16.8364L27.6481 8.26863C29.182 8.86138 32.75 10.9922 34.75 14.7734Z" fill="#E3E3E3"/>
<path d="M12.2661 0C7.14803 2.49603 2.91543 6.80315 0.75 12.5295L9.66956 15.7172C11.75 11 14.8746 9.5 16.4018 8.82864L12.2661 0Z" fill="#6B6B6B"/>
</svg>
