<svg width="41" height="40" viewBox="0 0 41 40" fill="none" xmlns="http://www.w3.org/2000/svg">
    <path d="M7.30511 36.8204V21.184L7.36236 21.1735L6.54168 20.6253L5.5 21.1256V36.8204H7.30511Z"
        fill="#8E8E8E" />
    <path fill-rule="evenodd" clip-rule="evenodd"
        d="M19.25 36.7958H21.0551V8.68396V8.62556H19.25V36.7958Z" fill="#8E8E8E" />
    <path
        d="M19.25 36.7958L7.30511 36.8204H5.5H1.97614C1.16071 36.8204 0.5 37.5322 0.5 38.4101C0.5 39.2881 1.16071 40 1.97614 40H39.0239C39.8393 40 40.5 39.2881 40.5 38.4101C40.5 37.5322 39.8393 36.8204 39.0239 36.8204L21.0551 36.7958H19.25Z"
        fill="#4D4D4D" />
    <path d="M32.469 18.6474L32.4449 36.8204H34.25L34.2741 18.6474H32.469Z" fill="#8E8E8E" />
    <path
        d="M10.9167 16.8753C10.9167 19.0312 9.3574 20.8228 7.30511 21.184C7.0572 21.2276 6.8021 21.2503 6.54168 21.2503C6.18271 21.2503 5.83385 21.2071 5.5 21.1256C3.58667 20.6582 2.16668 18.9326 2.16668 16.8753C2.16668 14.4591 4.12543 12.5003 6.54168 12.5003C8.95792 12.5003 10.9167 14.4591 10.9167 16.8753Z"
        fill="#4D4D4D" />
    <path
        d="M24.6667 4.37534C24.6667 6.53116 23.1074 8.3228 21.0551 8.68396C20.8072 8.72758 20.5521 8.75034 20.2917 8.75034C19.9327 8.75034 19.5838 8.7071 19.25 8.62556C17.3367 8.15824 15.9167 6.43262 15.9167 4.37534C15.9167 1.95909 17.8754 0.000335693 20.2917 0.000335693C22.7079 0.000335693 24.6667 1.95909 24.6667 4.37534Z"
        fill="#4D4D4D" />
    <path
        d="M37.7917 14.3753C37.7917 16.7916 35.8329 18.7503 33.4167 18.7503C31.0004 18.7503 29.0417 16.7916 29.0417 14.3753C29.0417 11.9591 31.0004 10.0003 33.4167 10.0003C35.8329 10.0003 37.7917 11.9591 37.7917 14.3753Z"
        fill="#4D4D4D" />
</svg>
    